<svg xmlns="http://www.w3.org/2000/svg" xmlns:xlink="http://www.w3.org/1999/xlink" preserveAspectRatio="xMidYMid" width="62" height="62" viewBox="0 0 62 62">
  <defs>
    <style>
      .cls-1 {
        fill: #a1a5b1;
        filter: url(#color-overlay-1);
        fill-rule: evenodd;
      }
    </style>

    <filter id="color-overlay-1" filterUnits="userSpaceOnUse">
      <feFlood flood-color="#008cc6"/>
      <feComposite operator="in" in2="SourceGraphic"/>
      <feBlend in2="SourceGraphic" result="solidFill"/>
    </filter>
  </defs>
  <path d="M31.000,62.000 C13.879,62.000 0.000,48.121 0.000,31.000 C0.000,13.879 13.879,0.000 31.000,0.000 C48.121,0.000 62.000,13.879 62.000,31.000 C62.000,48.121 48.121,62.000 31.000,62.000 ZM31.000,1.000 C14.431,1.000 1.000,14.431 1.000,31.000 C1.000,47.569 14.431,61.000 31.000,61.000 C47.569,61.000 61.000,47.569 61.000,31.000 C61.000,14.431 47.569,1.000 31.000,1.000 ZM41.178,38.822 C37.364,38.822 34.258,35.708 34.138,31.966 L34.304,31.966 L40.723,20.696 L32.785,20.696 L32.785,42.932 L35.111,42.932 C35.668,42.932 36.121,43.386 36.121,43.947 C36.121,44.508 35.668,44.963 35.111,44.963 L27.838,44.963 C27.280,44.963 26.828,44.508 26.828,43.947 C26.828,43.386 27.280,42.932 27.838,42.932 L30.164,42.932 L30.164,20.696 L22.226,20.696 L28.645,31.966 L28.811,31.966 C28.690,35.708 25.585,38.822 21.770,38.822 C17.956,38.822 14.850,35.708 14.730,31.966 L14.896,31.966 L21.318,20.689 C20.847,20.672 20.470,20.288 20.470,19.811 C20.470,19.323 20.863,18.927 21.349,18.927 L29.692,18.927 C29.270,18.822 28.951,18.457 28.951,18.000 C28.951,17.463 29.384,17.028 29.918,17.028 L33.031,17.028 C33.565,17.028 33.998,17.463 33.998,18.000 C33.998,18.457 33.678,18.822 33.257,18.927 L41.599,18.927 C42.086,18.927 42.479,19.323 42.479,19.811 C42.479,20.288 42.101,20.672 41.630,20.689 L48.053,31.966 L48.219,31.966 C48.099,35.708 44.993,38.822 41.178,38.822 ZM15.449,31.966 L28.091,31.966 L21.770,20.867 L15.449,31.966 ZM41.178,20.867 L34.857,31.966 L47.500,31.966 L41.178,20.867 ZM31.475,16.870 C30.558,16.870 29.815,16.139 29.815,15.237 C29.815,14.336 30.558,12.820 31.475,12.820 C32.391,12.820 33.134,14.336 33.134,15.237 C33.134,16.139 32.391,16.870 31.475,16.870 ZM25.269,45.229 L37.680,45.229 C38.237,45.229 38.689,45.684 38.689,46.245 C38.689,46.805 38.237,47.260 37.680,47.260 L25.269,47.260 C24.711,47.260 24.259,46.805 24.259,46.245 C24.259,45.684 24.711,45.229 25.269,45.229 Z" class="cls-1"/>
</svg>
