<svg xmlns="http://www.w3.org/2000/svg" xmlns:xlink="http://www.w3.org/1999/xlink" preserveAspectRatio="xMidYMid" width="62" height="62" viewBox="0 0 62 62">
  <defs>
    <style>
      .cls-1 {
        fill: #a1a5b1;
        filter: url(#color-overlay-1);
        fill-rule: evenodd;
      }
    </style>

    <filter id="color-overlay-1" filterUnits="userSpaceOnUse">
      <feFlood flood-color="#008cc6"/>
      <feComposite operator="in" in2="SourceGraphic"/>
      <feBlend in2="SourceGraphic" result="solidFill"/>
    </filter>
  </defs>
  <path d="M31.000,62.000 C13.879,62.000 0.000,48.121 0.000,31.000 C0.000,13.879 13.879,0.000 31.000,0.000 C48.121,0.000 62.000,13.879 62.000,31.000 C62.000,48.121 48.121,62.000 31.000,62.000 ZM31.000,1.000 C14.431,1.000 1.000,14.431 1.000,31.000 C1.000,47.569 14.431,61.000 31.000,61.000 C47.569,61.000 61.000,47.569 61.000,31.000 C61.000,14.431 47.569,1.000 31.000,1.000 ZM15.502,39.396 L15.502,21.693 C15.502,21.693 30.469,30.927 47.266,22.787 L47.266,39.895 C30.469,48.035 15.502,39.396 15.502,39.396 ZM37.804,34.156 C37.804,30.657 34.945,27.820 31.418,27.820 C27.891,27.820 25.032,30.657 25.032,34.156 C25.032,37.655 27.891,40.492 31.418,40.492 C34.945,40.492 37.804,37.655 37.804,34.156 ZM30.963,38.757 L30.963,37.051 L28.346,37.051 L28.346,36.369 L30.963,36.369 L30.963,35.516 L28.346,35.516 L28.346,34.919 L30.963,34.919 L30.963,34.635 L27.892,30.996 L28.891,30.996 L31.407,33.756 L33.794,30.996 L34.879,30.996 L31.781,34.635 L31.781,34.919 L34.235,34.919 L34.235,35.516 L31.781,35.516 L31.781,36.369 L34.235,36.369 L34.235,37.051 L31.781,37.051 L31.781,38.757 L30.963,38.757 ZM15.495,20.854 C15.495,20.854 28.300,26.883 43.389,19.579 L43.354,22.747 C27.545,28.295 15.495,20.854 15.495,20.854 ZM15.659,20.061 C15.659,20.061 27.824,22.889 39.025,16.271 L39.025,19.538 C25.902,24.356 15.659,20.061 15.659,20.061 Z" class="cls-1"/>
</svg>
