<svg xmlns="http://www.w3.org/2000/svg" xmlns:xlink="http://www.w3.org/1999/xlink" preserveAspectRatio="xMidYMid" width="62" height="62" viewBox="0 0 62 62">
  <defs>
    <style>
      .cls-1 {
        fill: #a1a5b1;
        filter: url(#color-overlay-1);
        fill-rule: evenodd;
      }
    </style>

    <filter id="color-overlay-1" filterUnits="userSpaceOnUse">
      <feFlood flood-color="#008cc6"/>
      <feComposite operator="in" in2="SourceGraphic"/>
      <feBlend in2="SourceGraphic" result="solidFill"/>
    </filter>
  </defs>
  <path d="M31.000,62.000 C13.879,62.000 0.000,48.121 0.000,31.000 C0.000,13.879 13.879,0.000 31.000,0.000 C48.121,0.000 62.000,13.879 62.000,31.000 C62.000,48.121 48.121,62.000 31.000,62.000 ZM31.000,1.000 C14.431,1.000 1.000,14.431 1.000,31.000 C1.000,47.569 14.431,61.000 31.000,61.000 C47.569,61.000 61.000,47.569 61.000,31.000 C61.000,14.431 47.569,1.000 31.000,1.000 ZM45.202,38.692 C42.698,40.364 40.906,41.865 39.853,42.309 C38.800,42.752 32.613,44.903 31.691,45.210 C30.770,45.517 29.852,45.381 27.119,44.119 C24.387,42.858 20.113,40.574 18.994,40.199 C18.344,39.982 17.335,40.040 16.545,40.127 L16.545,41.086 L13.780,41.086 L13.780,33.313 L16.545,33.313 L16.545,34.062 L17.976,34.174 C17.976,34.174 19.740,32.724 22.396,32.649 C25.052,32.575 27.156,33.396 28.110,33.710 C30.236,34.409 35.229,34.101 36.091,34.087 C37.572,34.062 39.246,33.694 39.419,34.790 C39.600,35.939 38.069,37.368 35.233,37.442 C32.398,37.516 30.237,38.057 30.237,38.057 C30.237,38.057 31.032,38.055 31.343,39.340 C31.343,39.340 32.832,38.633 35.005,39.340 C35.005,39.340 38.040,38.222 39.587,38.393 C40.739,37.779 42.670,36.228 44.085,36.126 C44.744,35.035 47.479,34.941 48.219,36.179 C47.698,36.737 47.445,37.196 45.202,38.692 ZM33.230,32.741 C32.502,32.767 31.647,32.793 30.710,32.809 C26.874,32.280 23.914,28.888 23.914,24.769 C23.914,20.286 27.423,16.652 31.753,16.652 C36.081,16.652 39.594,20.286 39.594,24.769 C39.594,28.731 36.853,32.025 33.230,32.741 ZM31.753,17.624 C27.940,17.624 24.851,20.822 24.851,24.769 C24.851,28.715 27.940,31.918 31.753,31.918 C35.563,31.918 38.654,28.715 38.654,24.769 C38.654,20.822 35.563,17.624 31.753,17.624 ZM34.930,24.889 L34.930,26.116 L32.559,26.116 L32.559,26.935 L34.930,26.935 L34.930,28.162 L32.559,28.162 L32.559,30.207 L30.980,30.207 L30.980,28.162 L28.807,28.162 L28.807,26.935 L30.980,26.935 L30.980,26.116 L28.807,26.116 L28.807,24.889 L30.577,24.889 L28.113,20.185 L29.595,20.185 L31.387,23.734 C31.532,24.021 31.650,24.349 31.743,24.571 C31.843,24.352 31.971,24.028 32.136,23.697 L33.829,20.185 L35.391,20.185 L32.938,24.889 L34.930,24.889 Z" class="cls-1"/>
</svg>
