<svg xmlns="http://www.w3.org/2000/svg" xmlns:xlink="http://www.w3.org/1999/xlink" preserveAspectRatio="xMidYMid" width="62" height="62" viewBox="0 0 62 62">
  <defs>
    <style>
      .cls-1 {
        fill: #6ac035;
        filter: url(#color-overlay-1);
        fill-rule: evenodd;
      }
    </style>

    <filter id="color-overlay-1" filterUnits="userSpaceOnUse">
      <feFlood flood-color="#008cc6"/>
      <feComposite operator="in" in2="SourceGraphic"/>
      <feBlend in2="SourceGraphic" result="solidFill"/>
    </filter>
  </defs>
  <path d="M31.000,62.000 C13.879,62.000 0.000,48.121 0.000,31.000 C0.000,13.879 13.879,0.000 31.000,0.000 C48.121,0.000 62.000,13.879 62.000,31.000 C62.000,48.121 48.121,62.000 31.000,62.000 ZM31.000,1.000 C14.431,1.000 1.000,14.431 1.000,31.000 C1.000,47.569 14.431,61.000 31.000,61.000 C47.569,61.000 61.000,47.569 61.000,31.000 C61.000,14.431 47.569,1.000 31.000,1.000 ZM47.344,42.134 C47.227,43.134 46.261,44.119 45.191,44.305 C41.916,44.772 38.620,45.070 35.320,45.199 L38.699,38.350 L36.407,33.349 C39.720,33.775 42.969,34.621 46.025,35.911 C47.095,36.407 47.846,37.696 47.732,38.696 C47.606,39.842 47.479,40.989 47.344,42.134 ZM38.038,25.092 C37.865,25.075 37.713,24.992 37.604,24.875 C37.511,25.670 37.422,26.465 37.330,27.260 C37.271,27.890 36.693,28.646 35.893,29.161 C35.728,30.312 35.564,31.466 35.399,32.619 C35.344,33.133 34.531,33.795 33.591,33.959 C32.192,34.151 30.755,34.151 29.355,33.959 C28.415,33.795 27.602,33.133 27.543,32.619 C27.383,31.466 27.218,30.312 27.054,29.160 C26.253,28.645 25.676,27.890 25.617,27.260 C25.524,26.464 25.431,25.669 25.343,24.875 C25.229,24.992 25.081,25.075 24.909,25.092 C24.525,25.131 24.183,24.856 24.146,24.475 L23.762,20.803 C23.724,20.423 24.002,20.082 24.381,20.043 C24.529,20.028 24.669,20.060 24.786,20.126 C24.706,19.427 24.626,18.729 24.542,18.030 C24.479,17.073 24.002,14.520 25.853,12.875 C28.529,10.255 34.417,10.255 37.094,12.875 C38.940,14.520 38.468,17.073 38.405,18.030 C38.325,18.727 38.240,19.427 38.160,20.126 C38.278,20.060 38.417,20.028 38.564,20.043 C38.944,20.082 39.222,20.423 39.181,20.803 L38.801,24.475 C38.762,24.856 38.422,25.131 38.038,25.092 ZM24.070,38.350 L27.450,45.193 C24.209,45.057 20.972,44.764 17.756,44.305 C16.686,44.119 15.720,43.134 15.602,42.134 C15.467,40.989 15.341,39.842 15.214,38.696 C15.101,37.696 15.851,36.408 16.922,35.911 C19.918,34.645 23.105,33.805 26.355,33.371 L24.070,38.350 ZM30.042,34.995 L32.731,34.995 L34.072,36.489 L32.731,39.635 L33.608,45.353 L29.165,45.353 L30.042,39.635 L28.702,36.489 L30.042,34.995 Z" class="cls-1"/>
</svg>
