<svg xmlns="http://www.w3.org/2000/svg" xmlns:xlink="http://www.w3.org/1999/xlink" preserveAspectRatio="xMidYMid" width="62" height="62" viewBox="0 0 62 62">
  <defs>
    <style>
      .cls-1 {
        fill: #a1a5b1;
        filter: url(#color-overlay-1);
        fill-rule: evenodd;
      }
    </style>

    <filter id="color-overlay-1" filterUnits="userSpaceOnUse">
      <feFlood flood-color="#008cc6"/>
      <feComposite operator="in" in2="SourceGraphic"/>
      <feBlend in2="SourceGraphic" result="solidFill"/>
    </filter>
  </defs>
  <path d="M31.000,62.000 C13.879,62.000 0.000,48.121 0.000,31.000 C0.000,13.879 13.879,0.000 31.000,0.000 C48.121,0.000 62.000,13.879 62.000,31.000 C62.000,48.121 48.121,62.000 31.000,62.000 ZM31.000,1.000 C14.431,1.000 1.000,14.431 1.000,31.000 C1.000,47.569 14.431,61.000 31.000,61.000 C47.569,61.000 61.000,47.569 61.000,31.000 C61.000,14.431 47.569,1.000 31.000,1.000 ZM44.347,42.754 C43.010,41.538 42.685,40.572 41.818,39.213 C41.460,38.650 40.655,37.763 39.834,36.916 C39.824,36.907 39.811,36.904 39.801,36.894 L36.838,33.959 L36.506,34.288 C36.055,34.735 35.322,34.735 34.870,34.288 C34.418,33.840 34.418,33.115 34.870,32.668 L35.202,32.339 L28.636,25.837 L26.158,28.291 C26.520,28.741 26.508,29.391 26.088,29.807 C25.635,30.254 24.903,30.254 24.452,29.807 L19.865,25.264 C19.413,24.817 19.413,24.091 19.865,23.644 C20.285,23.228 20.941,23.216 21.395,23.575 L24.784,20.217 L28.175,16.860 C27.812,16.410 27.824,15.761 28.245,15.345 C28.696,14.897 29.429,14.897 29.881,15.345 L34.468,19.888 C34.919,20.335 34.919,21.060 34.468,21.508 C34.047,21.924 33.391,21.936 32.937,21.577 L30.459,24.032 L37.025,30.534 L37.356,30.206 C37.808,29.758 38.541,29.758 38.992,30.206 C39.443,30.653 39.443,31.378 38.992,31.826 L38.660,32.154 L41.624,35.089 C41.634,35.099 41.637,35.113 41.647,35.123 C42.502,35.935 43.398,36.732 43.965,37.086 C45.337,37.945 46.313,38.267 47.540,39.590 C48.769,40.914 48.066,42.253 47.551,42.764 C47.035,43.275 45.683,43.970 44.347,42.754 ZM35.053,19.308 L30.465,14.765 C30.014,14.318 30.014,13.593 30.465,13.145 C30.917,12.698 31.650,12.698 32.101,13.145 L36.689,17.688 C37.141,18.136 37.141,18.861 36.689,19.308 C36.237,19.756 35.505,19.756 35.053,19.308 ZM23.867,32.007 C23.415,32.454 22.682,32.454 22.231,32.007 L17.644,27.463 C17.192,27.016 17.192,26.291 17.644,25.844 C18.095,25.396 18.828,25.396 19.280,25.844 L23.867,30.386 C24.318,30.834 24.318,31.559 23.867,32.007 ZM19.053,39.442 C18.681,39.442 18.380,39.144 18.380,38.775 C18.380,38.407 18.681,38.109 19.053,38.109 L31.696,38.109 C32.068,38.109 32.370,38.407 32.370,38.775 C32.370,39.144 32.068,39.442 31.696,39.442 L19.053,39.442 ZM35.059,41.834 C35.059,42.609 34.424,43.237 33.641,43.237 L17.108,43.237 C16.325,43.237 15.691,42.609 15.691,41.834 C15.691,41.059 16.325,40.430 17.108,40.430 L33.641,40.430 C34.424,40.430 35.059,41.059 35.059,41.834 Z" class="cls-1"/>
</svg>
