<svg xmlns="http://www.w3.org/2000/svg" xmlns:xlink="http://www.w3.org/1999/xlink" preserveAspectRatio="xMidYMid" width="62" height="62" viewBox="0 0 62 62">
  <defs>
    <style>
      .cls-1 {
        fill: #a1a5b1;
        filter: url(#color-overlay-1);
        fill-rule: evenodd;
      }
    </style>

    <filter id="color-overlay-1" filterUnits="userSpaceOnUse">
      <feFlood flood-color="#008cc6"/>
      <feComposite operator="in" in2="SourceGraphic"/>
      <feBlend in2="SourceGraphic" result="solidFill"/>
    </filter>
  </defs>
  <path d="M31.000,62.000 C13.879,62.000 0.000,48.121 0.000,31.000 C0.000,13.879 13.879,0.000 31.000,0.000 C48.121,0.000 62.000,13.879 62.000,31.000 C62.000,48.121 48.121,62.000 31.000,62.000 ZM31.000,1.000 C14.431,1.000 1.000,14.431 1.000,31.000 C1.000,47.569 14.431,61.000 31.000,61.000 C47.569,61.000 61.000,47.569 61.000,31.000 C61.000,14.431 47.569,1.000 31.000,1.000 ZM44.382,40.811 L43.325,40.819 L43.344,43.566 C43.352,44.725 41.843,45.676 40.623,45.685 C39.403,45.694 37.880,44.766 37.872,43.607 L37.853,40.860 L31.013,40.910 L24.173,40.961 L24.193,43.708 C24.201,44.867 22.691,45.818 21.471,45.827 C20.251,45.836 18.729,44.908 18.721,43.749 L18.701,41.001 L17.645,41.009 C16.537,41.017 15.647,39.820 15.692,38.769 L16.165,27.471 C16.208,26.489 17.053,25.424 18.087,25.416 L18.695,25.412 C18.994,25.893 19.379,26.506 19.628,26.876 C20.233,27.775 21.340,27.894 22.030,27.889 L30.921,27.803 L39.813,27.757 C40.503,27.752 41.607,27.617 42.200,26.709 C42.444,26.335 42.821,25.716 43.112,25.231 L43.720,25.227 C44.755,25.219 45.615,26.271 45.671,27.253 L46.303,38.543 C46.363,39.592 45.489,40.803 44.382,40.811 ZM20.606,28.727 C19.252,28.737 18.162,29.872 18.172,31.263 C18.182,32.654 19.288,33.773 20.641,33.763 C21.995,33.753 23.085,32.617 23.075,31.227 C23.065,29.836 21.960,28.716 20.606,28.727 ZM36.229,31.778 L30.950,31.817 L25.670,31.856 C25.292,31.859 24.988,32.152 24.991,32.510 C24.993,32.869 25.301,33.158 25.679,33.155 L30.959,33.116 L36.238,33.077 C36.616,33.074 36.920,32.781 36.917,32.422 C36.915,32.064 36.607,31.775 36.229,31.778 ZM36.247,34.376 L30.967,34.415 L25.688,34.454 C25.310,34.457 25.006,34.750 25.009,35.109 C25.012,35.467 25.320,35.756 25.697,35.753 L30.976,35.714 L36.256,35.675 C36.634,35.672 36.938,35.379 36.936,35.020 C36.933,34.662 36.625,34.373 36.247,34.376 ZM41.242,28.574 C39.888,28.584 38.799,29.719 38.808,31.110 C38.817,32.501 39.923,33.620 41.277,33.610 C42.632,33.600 43.721,32.465 43.712,31.074 C43.702,29.683 42.597,28.564 41.242,28.574 ZM39.869,27.398 L30.918,27.444 L21.969,27.530 C21.279,27.535 20.463,27.418 19.796,26.459 C19.604,26.181 19.340,25.786 19.092,25.409 L19.495,25.406 L20.803,17.609 C20.906,16.676 21.735,16.298 22.722,16.290 L30.840,16.228 L39.021,16.165 C40.008,16.158 40.872,16.729 40.989,17.660 L42.313,25.237 L42.715,25.234 C42.473,25.615 42.215,26.013 42.026,26.295 C41.373,27.264 40.558,27.393 39.869,27.398 ZM39.367,23.133 L38.654,19.837 C38.478,19.097 37.833,18.389 37.091,18.369 C35.544,18.326 33.333,18.382 30.904,18.382 C28.474,18.382 26.263,18.373 24.717,18.416 C23.975,18.436 23.329,19.215 23.154,19.955 L22.440,23.129 C22.193,24.170 22.960,25.629 24.004,25.629 L30.904,25.629 L37.804,25.629 C38.847,25.629 39.615,24.174 39.367,23.133 Z" class="cls-1"/>
</svg>
