<svg xmlns="http://www.w3.org/2000/svg" xmlns:xlink="http://www.w3.org/1999/xlink" preserveAspectRatio="xMidYMid" width="24" height="24.031" viewBox="0 0 24 24.031">
  <defs>
    <style>
      .cls-1 {
        fill: #12c8cc;
        fill-rule: evenodd;
      }
    </style>
  </defs>
  <path d="M16.803,0.999 C10.738,-1.651 3.653,1.133 1.003,7.205 C-1.642,13.278 1.137,20.375 7.201,23.024 C8.976,23.803 10.840,24.111 12.655,24.011 C14.217,23.921 15.740,23.523 17.144,22.858 L17.147,22.868 C17.289,22.814 18.538,22.321 18.887,21.129 C19.103,20.389 18.904,19.597 18.317,18.785 C18.493,18.587 18.519,18.307 18.384,18.090 L17.999,16.518 L16.498,15.017 C16.326,14.739 15.618,14.189 15.347,14.355 L14.205,15.321 C13.652,15.589 13.136,15.030 12.218,13.854 L10.308,10.830 C9.927,10.052 9.620,9.260 10.154,8.860 L11.466,8.169 L11.466,8.167 C11.750,7.987 11.812,7.624 11.645,7.365 L11.999,7.508 L10.499,4.505 C10.329,4.230 8.882,3.458 8.610,3.628 L7.443,4.547 C6.756,5.149 5.075,7.937 8.741,13.908 C12.543,20.106 15.993,19.967 16.858,19.533 L17.238,19.355 L17.115,19.432 C17.459,19.888 17.716,20.416 17.630,20.720 C17.522,21.108 16.841,21.561 16.579,21.692 C15.295,22.301 13.896,22.654 12.466,22.717 C10.884,22.789 9.265,22.510 7.721,21.832 C2.311,19.468 -0.168,13.141 2.195,7.725 C4.555,2.310 10.874,-0.174 16.285,2.189 C21.667,4.543 24.144,10.824 21.838,16.222 C21.780,16.284 21.718,16.503 21.697,16.589 C21.621,16.890 21.873,17.056 22.242,17.147 C22.613,17.240 22.667,17.240 22.910,16.997 C22.918,16.969 23.047,16.719 23.047,16.690 C25.600,10.646 22.825,3.630 16.803,0.999 Z" class="cls-1"/>
</svg>
