<svg xmlns="http://www.w3.org/2000/svg" xmlns:xlink="http://www.w3.org/1999/xlink" preserveAspectRatio="xMidYMid" width="80" height="80" viewBox="0 0 80 80">
  <defs>
    <style>
      .cls-1 {
        fill: #00acc1;
        fill-rule: evenodd;
      }
    </style>
  </defs>
  <path d="M39.997,80.000 C17.905,80.000 -0.003,62.091 -0.003,40.000 C-0.003,17.908 17.905,-0.000 39.997,-0.000 C62.088,-0.000 79.996,17.908 79.996,40.000 C79.996,62.091 62.088,80.000 39.997,80.000 ZM39.997,1.000 C18.458,1.000 0.996,18.461 0.996,40.000 C0.996,61.539 18.458,79.000 39.997,79.000 C61.535,79.000 78.997,61.539 78.997,40.000 C78.997,18.461 61.535,1.000 39.997,1.000 ZM46.869,34.551 L46.871,34.551 L53.206,30.413 L59.995,34.551 L59.997,34.551 L59.997,57.999 L46.869,57.999 L46.869,34.551 ZM55.852,55.931 L57.925,55.931 L57.925,53.862 L55.852,53.862 L55.852,55.931 ZM55.852,51.793 L57.925,51.793 L57.925,49.724 L55.852,49.724 L55.852,51.793 ZM55.852,47.655 L57.925,47.655 L57.925,45.586 L55.852,45.586 L55.852,47.655 ZM55.852,43.517 L57.925,43.517 L57.925,41.448 L55.852,41.448 L55.852,43.517 ZM55.852,39.379 L57.925,39.379 L57.925,37.310 L55.852,37.310 L55.852,39.379 ZM52.398,55.931 L54.469,55.931 L54.469,53.862 L52.398,53.862 L52.398,55.931 ZM52.398,51.793 L54.469,51.793 L54.469,49.724 L52.398,49.724 L52.398,51.793 ZM52.398,47.655 L54.469,47.655 L54.469,45.586 L52.398,45.586 L52.398,47.655 ZM52.398,43.517 L54.469,43.517 L54.469,41.448 L52.398,41.448 L52.398,43.517 ZM52.398,39.379 L54.469,39.379 L54.469,37.310 L52.398,37.310 L52.398,39.379 ZM48.943,55.931 L51.015,55.931 L51.015,53.862 L48.943,53.862 L48.943,55.931 ZM48.943,51.793 L51.015,51.793 L51.015,49.724 L48.943,49.724 L48.943,51.793 ZM48.943,47.655 L51.015,47.655 L51.015,45.586 L48.943,45.586 L48.943,47.655 ZM48.943,43.517 L51.015,43.517 L51.015,41.448 L48.943,41.448 L48.943,43.517 ZM48.943,39.379 L51.015,39.379 L51.015,37.310 L48.943,37.310 L48.943,39.379 ZM31.669,26.395 L31.669,25.586 L31.669,24.206 L31.669,22.154 L31.669,18.000 L33.052,18.000 L33.052,21.688 L33.764,21.448 L35.145,21.448 L44.796,24.718 L44.796,57.999 L31.669,57.999 L31.669,26.395 ZM41.342,55.931 L43.415,55.931 L43.415,53.862 L41.342,53.862 L41.342,55.931 ZM41.342,51.793 L43.415,51.793 L43.415,49.724 L41.342,49.724 L41.342,51.793 ZM41.342,47.655 L43.415,47.655 L43.415,45.586 L41.342,45.586 L41.342,47.655 ZM41.342,43.517 L43.415,43.517 L43.415,41.448 L41.342,41.448 L41.342,43.517 ZM41.342,39.379 L43.415,39.379 L43.415,37.310 L41.342,37.310 L41.342,39.379 ZM41.342,35.241 L43.415,35.241 L43.415,33.172 L41.342,33.172 L41.342,35.241 ZM41.342,31.103 L43.415,31.103 L43.415,29.034 L41.342,29.034 L41.342,31.103 ZM37.197,55.931 L39.269,55.931 L39.269,53.862 L37.197,53.862 L37.197,55.931 ZM37.197,51.793 L39.269,51.793 L39.269,49.724 L37.197,49.724 L37.197,51.793 ZM37.197,47.655 L39.269,47.655 L39.269,45.586 L37.197,45.586 L37.197,47.655 ZM37.197,43.517 L39.269,43.517 L39.269,41.448 L37.197,41.448 L37.197,43.517 ZM37.197,39.379 L39.269,39.379 L39.269,37.310 L37.197,37.310 L37.197,39.379 ZM37.197,35.241 L39.269,35.241 L39.269,33.172 L37.197,33.172 L37.197,35.241 ZM37.197,31.103 L39.269,31.103 L39.269,29.034 L37.197,29.034 L37.197,31.103 ZM37.197,26.965 L39.269,26.965 L39.269,24.896 L37.197,24.896 L37.197,26.965 ZM33.052,55.931 L35.124,55.931 L35.124,53.862 L33.052,53.862 L33.052,55.931 ZM33.052,51.793 L35.124,51.793 L35.124,49.724 L33.052,49.724 L33.052,51.793 ZM33.052,47.655 L35.124,47.655 L35.124,45.586 L33.052,45.586 L33.052,47.655 ZM33.052,43.517 L35.124,43.517 L35.124,41.448 L33.052,41.448 L33.052,43.517 ZM33.052,39.379 L35.124,39.379 L35.124,37.310 L33.052,37.310 L33.052,39.379 ZM33.052,35.241 L35.124,35.241 L35.124,33.172 L33.052,33.172 L33.052,35.241 ZM33.052,31.103 L35.124,31.103 L35.124,29.034 L33.052,29.034 L33.052,31.103 ZM33.052,25.586 L33.052,26.965 L35.124,26.965 L35.124,24.896 L33.052,24.896 L33.052,25.586 ZM24.070,30.635 L30.979,26.780 L30.979,57.999 L24.070,57.999 L24.070,30.635 ZM28.215,55.931 L29.597,55.931 L29.597,54.551 L28.215,54.551 L28.215,55.931 ZM28.215,53.172 L29.597,53.172 L29.597,51.793 L28.215,51.793 L28.215,53.172 ZM28.215,50.413 L29.597,50.413 L29.597,49.034 L28.215,49.034 L28.215,50.413 ZM28.215,47.655 L29.597,47.655 L29.597,46.276 L28.215,46.276 L28.215,47.655 ZM28.215,44.896 L29.597,44.896 L29.597,43.517 L28.215,43.517 L28.215,44.896 ZM28.215,42.138 L29.597,42.138 L29.597,40.758 L28.215,40.758 L28.215,42.138 ZM28.215,39.379 L29.597,39.379 L29.597,38.000 L28.215,38.000 L28.215,39.379 ZM28.215,36.620 L29.597,36.620 L29.597,35.241 L28.215,35.241 L28.215,36.620 ZM28.215,33.862 L29.597,33.862 L29.597,32.482 L28.215,32.482 L28.215,33.862 ZM28.215,31.103 L29.597,31.103 L29.597,29.724 L28.215,29.724 L28.215,31.103 ZM25.450,55.931 L26.833,55.931 L26.833,54.551 L25.450,54.551 L25.450,55.931 ZM25.450,53.172 L26.833,53.172 L26.833,51.793 L25.450,51.793 L25.450,53.172 ZM25.450,50.413 L26.833,50.413 L26.833,49.034 L25.450,49.034 L25.450,50.413 ZM25.450,47.655 L26.833,47.655 L26.833,46.276 L25.450,46.276 L25.450,47.655 ZM25.450,44.896 L26.833,44.896 L26.833,43.517 L25.450,43.517 L25.450,44.896 ZM25.450,42.138 L26.833,42.138 L26.833,40.758 L25.450,40.758 L25.450,42.138 ZM25.450,39.379 L26.833,39.379 L26.833,38.000 L25.450,38.000 L25.450,39.379 ZM25.450,36.620 L26.833,36.620 L26.833,35.241 L25.450,35.241 L25.450,36.620 ZM25.450,33.862 L26.833,33.862 L26.833,32.482 L25.450,32.482 L25.450,33.862 Z" class="cls-1"/>
</svg>
