<svg xmlns="http://www.w3.org/2000/svg" xmlns:xlink="http://www.w3.org/1999/xlink" preserveAspectRatio="xMidYMid" width="80.03" height="80" viewBox="0 0 80.03 80">
  <defs>
    <style>
      .cls-1 {
        fill: #ef944a;
        fill-rule: evenodd;
      }
    </style>
  </defs>
  <path d="M40.021,80.000 C17.916,80.000 -0.003,62.091 -0.003,40.000 C-0.003,17.908 17.916,-0.000 40.021,-0.000 C62.125,-0.000 80.044,17.908 80.044,40.000 C80.044,62.091 62.125,80.000 40.021,80.000 ZM40.021,1.000 C18.469,1.000 0.998,18.461 0.998,40.000 C0.998,61.539 18.469,79.000 40.021,79.000 C61.572,79.000 79.044,61.539 79.044,40.000 C79.044,18.461 61.572,1.000 40.021,1.000 ZM37.620,21.217 C39.192,20.298 39.697,19.998 40.498,19.998 C41.157,19.998 42.199,20.422 43.460,21.116 C49.062,24.196 58.998,32.577 58.998,32.577 L21.997,32.577 C21.997,32.577 31.905,24.556 37.620,21.217 ZM40.500,30.462 C42.203,30.462 43.583,29.084 43.583,27.384 C43.583,25.685 42.203,24.308 40.500,24.308 C38.797,24.308 37.416,25.685 37.416,27.384 C37.416,29.084 38.797,30.462 40.500,30.462 ZM32.687,56.922 L24.463,56.922 C24.802,56.165 25.281,55.237 26.055,54.909 L26.055,36.032 C25.281,35.700 24.802,34.962 24.463,34.201 L32.687,34.201 C32.349,34.962 31.531,35.700 30.756,36.032 L30.756,54.909 C31.531,55.237 32.349,56.165 32.687,56.922 ZM45.020,56.922 L35.975,56.922 C36.310,56.165 37.374,55.237 38.147,54.909 L38.147,36.032 C37.374,35.700 36.310,34.962 35.975,34.201 L45.020,34.201 C44.684,34.962 43.620,35.700 42.849,36.032 L42.849,54.909 C43.620,55.237 44.684,56.165 45.020,56.922 ZM56.531,56.922 L48.308,56.922 C48.643,56.165 49.465,55.237 50.237,54.909 L50.237,36.032 C49.465,35.700 48.643,34.962 48.308,34.201 L56.531,34.201 C56.197,34.962 55.714,35.700 54.940,36.032 L54.940,54.909 C55.714,55.237 56.246,55.775 56.531,56.922 ZM25.080,57.538 L55.919,57.538 C56.599,57.538 57.150,58.089 57.150,58.769 C57.150,59.449 56.599,60.000 55.919,60.000 L25.080,60.000 C24.400,60.000 23.850,59.449 23.850,58.769 C23.850,58.089 24.400,57.538 25.080,57.538 Z" class="cls-1"/>
</svg>
