<svg xmlns="http://www.w3.org/2000/svg" xmlns:xlink="http://www.w3.org/1999/xlink" preserveAspectRatio="xMidYMid" width="46" height="54" viewBox="0 0 46 54">
  <defs>
    <style>
      .cls-1 {
        fill: #fff;
        fill-rule: evenodd;
      }
    </style>
  </defs>
  <path d="M43.999,54.000 L2.000,54.000 C0.895,54.000 -0.000,53.105 -0.000,52.000 L-0.000,2.000 C-0.000,0.895 0.895,-0.000 2.000,-0.000 L43.999,-0.000 C45.104,-0.000 45.999,0.895 45.999,2.000 L45.999,52.000 C45.999,53.105 45.104,54.000 43.999,54.000 ZM25.179,49.594 L31.763,49.594 L31.763,42.984 L25.179,42.984 L25.179,49.594 ZM25.179,39.656 L31.763,39.656 L31.763,33.047 L25.179,33.047 L25.179,39.656 ZM25.179,29.719 L31.763,29.719 L31.763,23.109 L25.179,23.109 L25.179,29.719 ZM15.302,49.594 L21.886,49.594 L21.886,42.984 L15.302,42.984 L15.302,49.594 ZM15.302,39.656 L21.886,39.656 L21.886,33.047 L15.302,33.047 L15.302,39.656 ZM15.302,29.719 L21.886,29.719 L21.886,23.109 L15.302,23.109 L15.302,29.719 ZM5.518,49.594 L12.056,49.594 L12.056,42.984 L5.518,42.984 L5.518,49.594 ZM5.518,39.656 L12.056,39.656 L12.056,33.047 L5.518,33.047 L5.518,39.656 ZM5.518,29.719 L12.056,29.719 L12.056,23.109 L5.518,23.109 L5.518,29.719 ZM41.594,5.406 C41.594,4.854 41.147,4.406 40.595,4.406 L5.404,4.406 C4.852,4.406 4.405,4.854 4.405,5.406 L4.405,13.344 C4.405,13.896 4.852,14.344 5.404,14.344 L40.595,14.344 C41.147,14.344 41.594,13.896 41.594,13.344 L41.594,5.406 ZM41.594,17.625 L31.763,17.625 L31.763,19.875 L41.594,19.875 L41.594,17.625 ZM41.594,23.109 L35.056,23.109 L35.056,29.719 L41.594,29.719 L41.594,23.109 ZM41.594,33.047 L35.056,33.047 L35.056,39.656 L41.594,39.656 L41.594,33.047 ZM41.594,42.984 L35.056,42.984 L35.056,49.594 L41.594,49.594 L41.594,42.984 Z" class="cls-1"/>
</svg>
