<svg xmlns="http://www.w3.org/2000/svg" xmlns:xlink="http://www.w3.org/1999/xlink" preserveAspectRatio="xMidYMid" width="80" height="80" viewBox="0 0 80 80">
  <defs>
    <style>
      .cls-1 {
        fill: #aac4ff;
        fill-rule: evenodd;
      }
    </style>
  </defs>
  <path d="M40.000,80.000 C17.909,80.000 -0.000,62.091 -0.000,40.000 C-0.000,17.909 17.909,-0.000 40.000,-0.000 C62.091,-0.000 80.000,17.909 80.000,40.000 C80.000,62.091 62.091,80.000 40.000,80.000 ZM40.000,1.000 C18.461,1.000 1.000,18.461 1.000,40.000 C1.000,61.539 18.461,79.000 40.000,79.000 C61.539,79.000 79.000,61.539 79.000,40.000 C79.000,18.461 61.539,1.000 40.000,1.000 ZM54.884,48.650 C57.030,45.741 58.301,42.163 58.301,38.295 C58.301,28.586 50.314,20.686 40.496,20.686 C30.678,20.686 22.691,28.586 22.691,38.295 C22.691,42.162 23.961,45.740 26.107,48.648 L25.872,49.483 C23.445,46.387 21.995,42.506 21.995,38.295 C21.995,28.206 30.294,19.998 40.496,19.998 C50.697,19.998 58.997,28.206 58.997,38.295 C58.997,42.507 57.547,46.388 55.119,49.484 L54.884,48.650 ZM26.432,47.490 C24.662,44.852 23.628,41.691 23.628,38.295 C23.628,37.399 23.705,36.486 23.855,35.582 C23.886,35.394 24.065,35.266 24.255,35.298 C24.445,35.329 24.573,35.506 24.542,35.693 C24.398,36.561 24.324,37.436 24.324,38.295 C24.324,41.335 25.187,44.179 26.682,46.602 L26.432,47.490 ZM44.551,30.278 L43.833,31.164 L44.461,32.114 L43.387,31.714 L42.668,32.598 L42.721,31.464 L41.649,31.060 L42.756,30.760 L42.812,29.626 L43.443,30.575 L44.551,30.278 ZM40.463,22.367 L41.130,24.385 L43.277,24.388 L41.542,25.639 L42.202,27.659 L40.463,26.414 L38.725,27.659 L39.385,25.639 L37.650,24.388 L39.797,24.385 L40.463,22.367 ZM37.565,30.600 L38.188,29.646 L38.254,30.779 L39.364,31.070 L38.294,31.482 L38.358,32.616 L37.630,31.738 L36.560,32.148 L37.180,31.192 L36.455,30.312 L37.565,30.600 ZM38.505,36.621 C39.021,37.239 39.544,37.691 40.074,37.976 C39.737,38.143 39.508,38.345 39.388,38.583 C38.667,37.989 38.054,37.298 37.549,36.514 C37.044,35.729 36.635,34.932 36.322,34.124 C36.587,34.076 36.827,33.993 37.044,33.874 C37.500,35.087 37.987,36.003 38.505,36.621 ZM43.965,51.486 C43.639,50.550 42.071,49.731 40.496,49.731 C38.921,49.731 37.988,50.550 36.529,51.691 C34.709,52.224 31.757,49.794 31.757,49.794 L32.603,47.448 L35.565,47.448 L35.565,46.817 L34.493,46.479 L35.099,46.154 L36.028,46.154 L36.028,45.599 L35.205,45.384 L35.611,45.159 L36.246,45.159 L36.246,44.759 L35.999,44.189 L36.140,43.928 L36.701,44.268 L40.446,44.268 L44.191,44.268 L44.751,43.928 L44.893,44.189 L44.646,44.759 L44.646,45.159 L45.281,45.159 L45.687,45.384 L44.864,45.599 L44.864,46.154 L45.793,46.154 L46.399,46.479 L45.327,46.817 L45.327,47.448 L48.289,47.448 L49.135,49.794 C47.412,51.204 44.290,52.423 43.965,51.486 ZM49.091,37.655 L49.091,38.297 C48.706,38.274 48.249,38.262 47.720,38.262 L47.360,38.262 C47.095,38.952 46.734,39.570 46.278,40.117 C47.167,40.450 48.081,40.878 49.019,41.401 C48.850,41.591 48.682,41.816 48.514,42.078 C47.624,41.484 46.698,40.997 45.737,40.616 C45.135,41.068 44.450,41.418 43.681,41.668 C42.911,41.918 42.274,42.090 41.769,42.185 C41.673,41.900 41.528,41.650 41.336,41.436 C42.081,41.388 42.784,41.258 43.446,41.044 C44.107,40.830 44.618,40.592 44.979,40.330 C44.258,40.069 43.416,39.831 42.454,39.617 C42.839,39.094 43.127,38.642 43.320,38.262 L42.418,38.262 C42.130,38.262 41.720,38.274 41.192,38.297 L41.192,37.655 C41.480,37.679 41.877,37.691 42.382,37.691 L43.572,37.691 C43.885,37.120 44.125,36.549 44.294,35.979 C44.582,36.145 44.859,36.264 45.123,36.335 C45.027,36.431 44.937,36.544 44.853,36.674 C44.768,36.805 44.594,37.144 44.330,37.691 L47.684,37.691 C48.261,37.691 48.730,37.679 49.091,37.655 ZM44.114,38.262 C43.921,38.547 43.717,38.880 43.500,39.260 C44.486,39.522 45.183,39.724 45.592,39.867 C45.929,39.558 46.253,39.023 46.566,38.262 L44.114,38.262 ZM33.761,36.977 C33.280,37.691 32.788,38.285 32.283,38.761 C32.090,38.500 31.886,38.309 31.669,38.190 C32.174,37.810 32.703,37.227 33.256,36.442 C33.809,35.658 34.206,34.897 34.447,34.159 C34.615,34.279 34.855,34.386 35.168,34.480 C34.711,35.432 34.242,36.264 33.761,36.977 ZM33.337,29.019 L32.818,30.032 L32.633,28.912 L31.498,28.737 L32.518,28.216 L32.335,27.096 L33.151,27.894 L34.173,27.376 L33.657,28.390 L34.471,29.190 L33.337,29.019 ZM36.863,39.367 C37.103,39.225 37.308,39.082 37.477,38.939 C37.837,39.463 38.174,39.980 38.487,40.491 C38.799,41.003 39.039,41.412 39.208,41.722 C38.943,41.864 38.715,41.995 38.523,42.114 C38.378,41.829 38.186,41.484 37.946,41.080 C36.334,41.294 35.198,41.448 34.537,41.543 C33.875,41.638 33.401,41.745 33.112,41.864 C33.040,41.626 32.908,41.365 32.715,41.080 C32.956,40.985 33.184,40.818 33.401,40.580 C33.617,40.343 33.936,39.843 34.357,39.082 C34.777,38.321 35.072,37.655 35.240,37.084 C35.601,37.298 35.877,37.429 36.070,37.477 C35.805,37.882 35.451,38.488 35.006,39.296 C34.561,40.105 34.242,40.628 34.050,40.866 C35.156,40.771 36.358,40.652 37.657,40.509 C37.464,40.176 37.200,39.795 36.863,39.367 ZM48.478,35.979 C48.478,36.193 48.490,36.478 48.514,36.835 L47.756,36.835 L47.756,35.729 L42.418,35.729 L42.418,36.763 L41.661,36.763 C41.684,36.431 41.697,36.145 41.697,35.907 C41.697,35.670 41.673,35.420 41.625,35.158 L44.943,35.158 C44.750,34.754 44.534,34.421 44.294,34.159 C44.510,34.017 44.702,33.874 44.871,33.731 C45.135,34.065 45.400,34.433 45.664,34.837 C45.520,34.908 45.364,35.015 45.196,35.158 L48.514,35.158 C48.490,35.491 48.478,35.765 48.478,35.979 ZM48.361,28.846 L48.185,29.968 L47.658,28.959 L46.525,29.140 L47.332,28.333 L46.808,27.323 L47.833,27.833 L48.643,27.028 L48.469,28.150 L49.494,28.662 L48.361,28.846 ZM56.737,35.298 C56.927,35.269 57.106,35.394 57.137,35.582 C57.287,36.487 57.363,37.399 57.363,38.295 C57.363,41.692 56.329,44.854 54.558,47.492 L54.308,46.604 C55.804,44.181 56.667,41.336 56.667,38.295 C56.667,37.437 56.594,36.561 56.450,35.693 C56.419,35.506 56.547,35.329 56.737,35.298 ZM37.330,52.613 C38.103,50.677 39.546,50.532 40.496,50.532 C41.446,50.532 42.889,50.677 43.662,52.613 C48.710,53.071 52.934,47.620 52.934,47.620 L55.455,56.586 L54.283,57.179 L52.588,50.895 L52.315,50.967 L54.026,57.310 L52.500,58.082 L51.110,52.231 L50.835,52.294 L52.241,58.213 L50.704,58.991 L49.714,53.499 L49.436,53.548 L50.441,59.124 L48.710,59.999 L48.120,55.374 C48.120,55.374 44.692,57.198 41.653,55.007 C40.339,56.348 39.339,55.007 39.339,55.007 C36.300,57.198 32.872,55.374 32.872,55.374 L32.282,59.999 L30.717,59.207 L31.737,53.548 L31.459,53.499 L30.454,59.074 L28.913,58.294 L30.338,52.294 L30.063,52.231 L28.654,58.163 L27.126,57.390 L28.858,50.967 L28.585,50.895 L26.868,57.260 L25.537,56.586 L28.058,47.620 C28.058,47.620 32.282,53.071 37.330,52.613 Z" class="cls-1"/>
</svg>
