<svg xmlns="http://www.w3.org/2000/svg" xmlns:xlink="http://www.w3.org/1999/xlink" preserveAspectRatio="xMidYMid" width="80" height="80" viewBox="0 0 80 80">
  <defs>
    <style>
      .cls-1 {
        fill: #9cbbff;
        fill-rule: evenodd;
      }
    </style>
  </defs>
  <path d="M39.998,80.000 C17.907,80.000 -0.003,62.091 -0.003,40.000 C-0.003,17.908 17.907,-0.000 39.998,-0.000 C62.089,-0.000 79.998,17.908 79.998,40.000 C79.998,62.091 62.089,80.000 39.998,80.000 ZM39.998,1.000 C18.460,1.000 0.997,18.461 0.997,40.000 C0.997,61.539 18.460,79.000 39.998,79.000 C61.538,79.000 78.998,61.539 78.998,40.000 C78.998,18.461 61.538,1.000 39.998,1.000 ZM24.536,55.894 L27.622,55.894 C25.432,47.865 25.992,39.648 28.020,31.330 C26.722,32.382 25.122,33.377 23.934,33.377 C23.523,33.377 23.127,33.307 22.753,33.175 C21.924,32.883 21.222,32.293 20.732,31.488 C20.272,30.731 20.003,29.789 20.003,28.741 C20.003,28.057 20.118,27.324 20.370,26.569 C21.359,23.612 25.644,25.083 28.136,26.236 L26.546,21.994 L30.027,20.683 L31.041,24.026 L31.967,20.005 L35.185,20.772 L33.819,24.612 L38.843,20.953 L42.634,21.994 L38.153,28.962 L38.266,28.962 C51.730,36.061 57.540,45.123 56.675,55.894 L60.003,55.894 L60.003,60.006 L24.536,60.006 L24.536,55.894 ZM22.521,27.324 C22.353,27.825 22.277,28.302 22.277,28.741 C22.277,29.341 22.418,29.862 22.659,30.257 C22.870,30.604 23.160,30.855 23.490,30.971 C23.627,31.019 23.776,31.044 23.934,31.044 C24.877,31.044 26.620,29.610 27.680,28.562 C25.961,27.657 22.888,26.226 22.521,27.324 ZM35.037,49.914 C35.768,50.655 36.716,51.097 37.880,51.242 L37.880,53.161 L39.358,53.161 L39.358,51.220 C40.686,51.007 41.718,50.474 42.464,49.614 C43.209,48.755 43.581,47.700 43.581,46.444 C43.581,45.321 43.285,44.402 42.692,43.683 C42.104,42.969 40.990,42.382 39.358,41.935 L39.358,37.873 C40.016,38.165 40.426,38.719 40.585,39.537 L43.164,39.195 C42.988,38.154 42.578,37.322 41.940,36.700 C41.299,36.078 40.440,35.702 39.358,35.570 L39.358,34.546 L37.880,34.546 L37.880,35.570 C36.723,35.688 35.797,36.131 35.100,36.907 C34.402,37.677 34.053,38.634 34.053,39.771 C34.053,40.893 34.362,41.846 34.978,42.635 C35.591,43.420 36.559,44.007 37.880,44.395 L37.880,48.748 C37.517,48.566 37.187,48.278 36.889,47.877 C36.590,47.475 36.386,46.999 36.278,46.444 L33.636,46.765 C33.841,48.119 34.305,49.170 35.037,49.914 ZM41.084,46.815 C41.084,47.337 40.925,47.788 40.602,48.172 C40.283,48.555 39.867,48.806 39.358,48.918 L39.358,44.842 C39.971,45.023 40.412,45.278 40.679,45.616 C40.949,45.951 41.084,46.351 41.084,46.815 ZM36.906,40.674 C36.695,40.356 36.590,40.016 36.590,39.650 C36.590,39.247 36.705,38.882 36.937,38.548 C37.169,38.213 37.482,37.977 37.880,37.830 L37.880,41.435 C37.444,41.241 37.117,40.985 36.906,40.674 Z" class="cls-1"/>
</svg>
