<svg xmlns="http://www.w3.org/2000/svg" xmlns:xlink="http://www.w3.org/1999/xlink" preserveAspectRatio="xMidYMid" width="80" height="80" viewBox="0 0 80 80">
  <defs>
    <style>
      .cls-1 {
        fill: #12c8cc;
        fill-rule: evenodd;
      }
    </style>
  </defs>
  <path d="M39.998,80.000 C17.907,80.000 -0.002,62.091 -0.002,40.000 C-0.002,17.908 17.907,-0.000 39.998,-0.000 C62.089,-0.000 79.998,17.908 79.998,40.000 C79.998,62.091 62.089,80.000 39.998,80.000 ZM39.998,1.000 C18.460,1.000 0.998,18.461 0.998,40.000 C0.998,61.539 18.460,79.000 39.998,79.000 C61.538,79.000 78.998,61.539 78.998,40.000 C78.998,18.461 61.538,1.000 39.998,1.000 ZM39.031,47.409 L37.645,43.172 L37.645,42.887 L37.551,42.887 L36.435,39.475 L55.564,33.626 L59.998,40.576 L39.031,47.409 ZM33.840,47.409 L19.999,40.576 L24.433,33.626 L36.435,39.475 L33.840,47.409 ZM21.859,25.656 L41.208,21.000 L43.245,28.605 L24.433,33.626 L21.859,25.656 ZM45.281,21.000 L58.138,25.656 L55.564,33.626 L43.245,28.605 L45.281,21.000 ZM36.475,43.380 L36.477,43.388 L36.477,57.835 L36.435,57.848 L24.433,51.998 L24.433,44.073 L34.657,49.497 L36.475,43.380 ZM37.645,46.957 L38.390,49.233 L55.564,43.696 L55.564,51.998 L37.645,57.478 L37.645,46.957 Z" class="cls-1"/>
</svg>
