<svg xmlns="http://www.w3.org/2000/svg" xmlns:xlink="http://www.w3.org/1999/xlink" preserveAspectRatio="xMidYMid" width="80" height="80" viewBox="0 0 80 80">
  <defs>
    <style>
      .cls-1 {
        fill: #ef944a;
        fill-rule: evenodd;
      }
    </style>
  </defs>
  <path d="M39.998,80.000 C17.907,80.000 -0.002,62.091 -0.002,40.000 C-0.002,17.908 17.907,-0.000 39.998,-0.000 C62.089,-0.000 79.998,17.908 79.998,40.000 C79.998,62.091 62.089,80.000 39.998,80.000 ZM39.998,1.000 C18.460,1.000 0.998,18.461 0.998,40.000 C0.998,61.539 18.460,79.000 39.998,79.000 C61.538,79.000 78.998,61.539 78.998,40.000 C78.998,18.461 61.538,1.000 39.998,1.000 ZM21.999,20.000 L49.537,20.000 L57.998,28.669 L57.998,60.000 L21.999,60.000 L21.999,20.000 ZM49.691,22.857 L46.921,22.857 L46.921,30.000 L41.384,30.000 L41.384,22.857 L30.305,22.857 L30.305,32.857 L49.691,32.857 L49.691,22.857 ZM26.153,51.428 L26.153,57.143 L53.845,57.143 L53.845,51.428 L53.845,45.714 C53.845,43.347 51.985,41.428 49.691,41.428 L30.305,41.428 C28.012,41.428 26.153,43.347 26.153,45.714 L26.153,51.428 ZM48.306,45.714 L31.691,45.714 L31.691,44.285 L48.306,44.285 L48.306,45.714 ZM48.306,50.000 L31.691,50.000 L31.691,48.571 L48.306,48.571 L48.306,50.000 ZM48.306,54.285 L31.691,54.285 L31.691,52.857 L48.306,52.857 L48.306,54.285 Z" class="cls-1"/>
</svg>
