<svg xmlns="http://www.w3.org/2000/svg" xmlns:xlink="http://www.w3.org/1999/xlink" preserveAspectRatio="xMidYMid" width="80" height="80" viewBox="0 0 80 80">
  <defs>
    <style>
      .cls-1 {
        fill: #12c8cc;
        fill-rule: evenodd;
      }
    </style>
  </defs>
  <path d="M39.998,80.000 C17.907,80.000 -0.003,62.091 -0.003,40.000 C-0.003,17.908 17.907,-0.000 39.998,-0.000 C62.089,-0.000 79.998,17.908 79.998,40.000 C79.998,62.091 62.089,80.000 39.998,80.000 ZM39.998,1.000 C18.460,1.000 0.997,18.461 0.997,40.000 C0.997,61.539 18.460,79.000 39.998,79.000 C61.538,79.000 78.998,61.539 78.998,40.000 C78.998,18.461 61.538,1.000 39.998,1.000 ZM56.631,40.510 C56.694,48.652 53.038,57.687 39.998,60.000 C26.960,57.687 23.303,48.652 23.366,40.510 C23.428,32.368 23.789,27.172 20.999,23.305 C25.365,21.625 31.142,20.000 39.998,20.000 C48.855,20.000 54.632,21.625 58.999,23.305 C56.208,27.172 56.569,32.368 56.631,40.510 ZM57.665,23.729 C53.790,22.321 48.329,20.859 39.998,20.859 C31.669,20.859 26.208,22.321 22.332,23.729 C24.415,27.300 24.363,31.766 24.288,38.260 C24.279,38.986 24.270,39.738 24.264,40.516 C24.220,46.393 26.208,56.603 39.998,59.125 C53.790,56.603 55.778,46.393 55.733,40.516 C55.726,39.737 55.718,38.985 55.710,38.259 C55.635,31.766 55.583,27.300 57.665,23.729 ZM53.463,38.283 C53.471,39.013 53.480,39.760 53.486,40.532 C53.505,43.058 53.111,46.749 51.118,49.990 C48.917,53.568 45.178,55.903 39.998,56.935 C34.820,55.903 31.079,53.568 28.880,49.990 C26.888,46.749 26.492,43.058 26.511,40.532 C26.517,39.778 26.525,39.050 26.534,38.347 L26.535,38.284 C26.598,32.809 26.646,28.576 25.363,24.990 C28.628,23.995 33.322,23.007 39.998,23.007 C46.675,23.007 51.370,23.995 54.633,24.990 C53.351,28.576 53.400,32.808 53.463,38.283 ZM32.061,27.172 L30.380,27.696 L29.341,26.327 L29.342,28.018 L27.660,28.540 L29.342,29.061 L29.341,30.753 L30.380,29.383 L32.061,29.907 L31.021,28.540 L32.061,27.172 ZM36.874,26.446 L36.125,24.589 L35.591,26.513 L33.514,26.620 L35.263,27.699 L34.726,29.622 L36.339,28.365 L38.088,29.446 L37.336,27.591 L38.952,26.336 L36.874,26.446 ZM38.836,33.054 L35.062,33.051 L38.116,35.170 L36.947,38.601 L39.998,36.478 L43.049,38.601 L41.881,35.170 L44.936,33.051 L41.161,33.054 L39.998,29.622 L38.836,33.054 ZM44.404,26.513 L43.872,24.589 L43.124,26.446 L41.046,26.336 L42.661,27.591 L41.909,29.446 L43.656,28.365 L45.270,29.622 L44.734,27.699 L46.483,26.620 L44.404,26.513 ZM32.412,41.302 L31.578,41.302 L31.578,42.100 L31.578,44.057 L31.552,44.057 L29.556,47.444 C29.363,47.772 29.610,48.178 30.003,48.178 L33.987,48.178 C34.380,48.178 34.629,47.772 34.435,47.444 L32.438,44.057 L32.412,44.057 L32.412,42.100 L39.883,42.100 C39.063,42.100 38.398,42.736 38.398,43.519 C38.398,44.038 38.691,44.490 39.124,44.737 L38.151,51.674 L41.614,51.674 L40.641,44.737 C41.076,44.490 41.367,44.038 41.367,43.519 C41.367,42.736 40.702,42.100 39.883,42.100 L47.584,42.100 L47.584,44.057 L47.560,44.057 L45.562,47.444 C45.369,47.772 45.617,48.178 46.011,48.178 L49.992,48.178 C50.387,48.178 50.635,47.772 50.441,47.444 L48.444,44.057 L48.419,44.057 L48.419,42.100 L48.441,42.100 L48.441,41.302 L48.419,41.302 L47.584,41.302 L32.412,41.302 ZM50.656,26.327 L49.618,27.696 L47.935,27.172 L48.976,28.540 L47.935,29.907 L49.618,29.383 L50.656,30.753 L50.655,29.061 L52.337,28.540 L50.655,28.018 L50.656,26.327 Z" class="cls-1"/>
</svg>
