<svg xmlns="http://www.w3.org/2000/svg" xmlns:xlink="http://www.w3.org/1999/xlink" preserveAspectRatio="xMidYMid" width="80" height="80" viewBox="0 0 80 80">
  <defs>
    <style>
      .cls-1 {
        fill: #3789c9;
        opacity: 0.8;
        fill-rule: evenodd;
      }
    </style>
  </defs>
  <path d="M39.998,80.000 C17.907,80.000 -0.002,62.091 -0.002,40.000 C-0.002,17.908 17.907,-0.000 39.998,-0.000 C62.089,-0.000 79.998,17.908 79.998,40.000 C79.998,62.091 62.089,80.000 39.998,80.000 ZM39.998,1.000 C18.460,1.000 0.998,18.461 0.998,40.000 C0.998,61.539 18.460,79.000 39.998,79.000 C61.538,79.000 78.998,61.539 78.998,40.000 C78.998,18.461 61.538,1.000 39.998,1.000 ZM56.461,60.009 C55.556,60.009 54.655,59.665 53.964,58.975 C53.964,58.975 44.974,49.973 44.903,49.886 C42.390,51.492 39.402,52.427 36.196,52.427 C27.247,52.427 19.989,45.165 19.989,36.209 C19.989,27.254 27.247,19.993 36.196,19.993 C45.150,19.993 52.408,27.254 52.408,36.209 C52.408,39.415 51.474,42.404 49.869,44.921 C49.958,44.990 58.957,53.984 58.957,53.984 C60.332,55.363 60.332,57.599 58.954,58.975 C58.268,59.665 57.363,60.009 56.461,60.009 ZM50.080,36.208 C50.080,28.539 43.865,22.323 36.196,22.323 C28.531,22.323 22.317,28.539 22.317,36.208 C22.317,43.880 28.531,50.097 36.196,50.097 C43.865,50.097 50.080,43.880 50.080,36.208 ZM36.859,46.629 L29.292,46.629 L29.292,26.702 L36.944,26.702 L36.944,36.004 L40.336,33.487 L43.813,36.066 L43.813,46.629 L36.944,46.629 L36.859,46.629 ZM32.457,28.146 L30.735,28.146 L30.735,29.870 L32.457,29.870 L32.457,28.146 ZM32.457,31.209 L30.735,31.209 L30.735,32.933 L32.457,32.933 L32.457,31.209 ZM32.457,34.272 L30.735,34.272 L30.735,35.996 L32.457,35.996 L32.457,34.272 ZM32.457,37.335 L30.735,37.335 L30.735,39.059 L32.457,39.059 L32.457,37.335 ZM32.457,40.399 L30.735,40.399 L30.735,42.122 L32.457,42.122 L32.457,40.399 ZM32.457,43.462 L30.735,43.462 L30.735,45.185 L32.457,45.185 L32.457,43.462 ZM35.501,28.146 L33.778,28.146 L33.778,29.870 L35.501,29.870 L35.501,28.146 ZM35.501,31.209 L33.778,31.209 L33.778,32.933 L35.501,32.933 L35.501,31.209 ZM35.501,34.272 L33.778,34.272 L33.778,35.996 L35.501,35.996 L35.501,34.272 ZM35.501,37.335 L33.778,37.335 L33.778,39.059 L35.501,39.059 L35.501,37.335 ZM35.501,40.399 L33.778,40.399 L33.778,42.122 L35.501,42.122 L35.501,40.399 ZM35.501,43.462 L33.778,43.462 L33.778,45.185 L35.501,45.185 L35.501,43.462 ZM41.000,45.185 L42.724,45.185 L42.724,43.462 L41.000,43.462 L41.000,45.185 ZM41.000,42.122 L42.724,42.122 L42.724,40.399 L41.000,40.399 L41.000,42.122 ZM41.000,39.059 L42.724,39.059 L42.724,37.335 L41.000,37.335 L41.000,39.059 ZM37.957,45.185 L39.681,45.185 L39.681,43.462 L37.957,43.462 L37.957,45.185 ZM37.957,42.122 L39.681,42.122 L39.681,40.399 L37.957,40.399 L37.957,42.122 ZM37.957,39.059 L39.681,39.059 L39.681,37.335 L37.957,37.335 L37.957,39.059 Z" class="cls-1"/>
</svg>
