<svg xmlns="http://www.w3.org/2000/svg" xmlns:xlink="http://www.w3.org/1999/xlink" preserveAspectRatio="xMidYMid" width="80" height="80" viewBox="0 0 80 80">
  <defs>
    <style>
      .cls-1 {
        fill: #f17181;
        fill-rule: evenodd;
      }
    </style>
  </defs>
  <path d="M39.998,80.000 C17.907,80.000 -0.003,62.091 -0.003,40.000 C-0.003,17.909 17.907,-0.000 39.998,-0.000 C62.089,-0.000 79.998,17.909 79.998,40.000 C79.998,62.091 62.089,80.000 39.998,80.000 ZM39.998,1.000 C18.460,1.000 0.997,18.461 0.997,40.000 C0.997,61.539 18.460,79.000 39.998,79.000 C61.538,79.000 78.998,61.539 78.998,40.000 C78.998,18.461 61.538,1.000 39.998,1.000 ZM59.943,47.821 L59.300,49.235 C59.165,49.532 58.820,49.651 58.441,49.581 C58.258,49.837 57.940,49.935 57.666,49.783 L45.431,42.991 C45.118,42.816 44.991,42.394 45.149,42.047 L45.172,41.995 L35.693,36.509 C34.569,38.826 33.333,40.878 32.100,42.499 L27.565,39.981 C28.068,37.623 28.957,34.933 30.202,32.195 C31.446,29.457 32.868,27.062 34.279,25.209 L38.814,27.726 C38.374,29.789 37.621,32.108 36.612,34.488 L46.253,39.618 L46.276,39.566 C46.434,39.219 46.817,39.079 47.130,39.253 L59.364,46.046 C59.639,46.198 59.758,46.539 59.681,46.855 C59.957,47.148 60.077,47.525 59.943,47.821 ZM39.855,27.427 C39.740,27.681 39.459,27.784 39.229,27.657 L34.083,24.799 C33.852,24.671 33.759,24.361 33.874,24.107 L34.250,23.282 C34.365,23.027 34.646,22.924 34.876,23.052 L40.023,25.910 C40.253,26.037 40.346,26.347 40.230,26.602 L39.855,27.427 ZM32.504,43.601 L32.129,44.426 C32.013,44.680 31.733,44.783 31.503,44.655 L26.356,41.798 C26.126,41.670 26.033,41.360 26.149,41.106 L26.524,40.280 C26.639,40.026 26.920,39.923 27.150,40.051 L32.296,42.908 C32.527,43.036 32.620,43.346 32.504,43.601 ZM45.570,53.075 L22.714,53.075 C23.070,51.645 24.049,50.143 25.216,50.143 L43.069,50.143 C44.235,50.143 45.214,51.645 45.570,53.075 ZM45.722,54.137 C45.722,53.806 45.662,53.442 45.570,53.075 L45.722,53.075 L45.722,54.137 ZM22.562,53.075 L22.714,53.075 C22.623,53.442 22.562,53.806 22.562,54.137 L22.562,53.075 ZM48.287,55.330 L48.287,56.129 C48.287,56.610 47.934,57.000 47.500,57.000 L20.786,57.000 C20.351,57.000 19.997,56.610 19.997,56.129 L19.997,55.330 C19.997,54.849 20.564,54.875 20.999,54.875 L46.998,54.875 C47.434,54.875 48.287,54.849 48.287,55.330 Z" class="cls-1"/>
</svg>
