<svg xmlns="http://www.w3.org/2000/svg" xmlns:xlink="http://www.w3.org/1999/xlink" preserveAspectRatio="xMidYMid" width="80" height="80" viewBox="0 0 80 80">
  <defs>
    <style>
      .cls-1 {
        fill: #00acc1;
        fill-rule: evenodd;
      }
    </style>
  </defs>
  <path d="M39.998,80.000 C17.907,80.000 -0.002,62.091 -0.002,40.000 C-0.002,17.909 17.907,-0.000 39.998,-0.000 C62.089,-0.000 79.998,17.909 79.998,40.000 C79.998,62.091 62.089,80.000 39.998,80.000 ZM39.998,1.000 C18.460,1.000 0.998,18.461 0.998,40.000 C0.998,61.539 18.460,79.000 39.998,79.000 C61.538,79.000 78.998,61.539 78.998,40.000 C78.998,18.461 61.538,1.000 39.998,1.000 ZM58.725,57.995 C57.625,57.995 22.719,57.995 21.284,57.995 C20.041,57.995 20.007,56.047 20.007,56.047 L60.001,56.047 C60.001,56.047 59.911,57.995 58.725,57.995 ZM24.261,48.866 L55.746,48.866 L60.001,54.221 L20.007,54.221 L24.261,48.866 ZM44.684,52.558 L42.982,50.610 L37.026,50.610 L35.323,52.558 L44.684,52.558 ZM24.261,25.110 C24.261,23.676 24.851,23.001 26.105,23.001 L53.911,23.001 C55.163,23.001 55.753,23.676 55.753,25.110 L55.753,46.919 L24.261,46.919 L24.261,25.110 ZM26.814,43.997 L43.391,43.997 L39.605,31.065 L36.112,39.785 L33.096,35.663 L31.125,37.293 L30.596,37.730 L29.495,36.889 L33.397,33.661 L35.703,36.809 L39.833,26.492 L43.615,39.407 L46.768,30.595 L49.574,38.515 L48.102,38.844 L46.761,35.052 L43.560,43.997 L53.201,43.997 L53.201,25.922 L26.814,25.922 L26.814,43.997 Z" class="cls-1"/>
</svg>
