<svg xmlns="http://www.w3.org/2000/svg" xmlns:xlink="http://www.w3.org/1999/xlink" preserveAspectRatio="xMidYMid" width="80" height="80" viewBox="0 0 80 80">
  <defs>
    <style>
      .cls-1 {
        fill: #5fa1d4;
        fill-rule: evenodd;
      }
    </style>
  </defs>
  <path d="M39.998,80.000 C17.907,80.000 -0.003,62.091 -0.003,40.000 C-0.003,17.909 17.907,-0.000 39.998,-0.000 C62.089,-0.000 79.998,17.909 79.998,40.000 C79.998,62.091 62.089,80.000 39.998,80.000 ZM39.998,1.000 C18.460,1.000 0.997,18.461 0.997,40.000 C0.997,61.539 18.460,79.000 39.998,79.000 C61.538,79.000 78.998,61.539 78.998,40.000 C78.998,18.461 61.538,1.000 39.998,1.000 ZM55.206,37.760 C51.956,40.223 47.398,43.020 42.346,45.645 C34.063,49.949 26.135,52.880 22.712,52.880 C21.485,52.880 20.690,52.498 20.349,51.742 C19.891,50.721 18.999,49.781 24.270,45.862 C24.623,45.621 24.454,45.705 25.439,47.621 C23.227,49.301 22.447,50.092 22.153,50.801 C22.268,50.826 22.447,50.849 22.712,50.850 C25.829,50.856 33.614,47.953 41.555,43.844 C51.635,38.627 57.526,33.894 58.169,32.298 C58.061,32.272 57.894,32.247 57.647,32.242 C57.107,32.231 56.397,32.325 55.576,32.494 C55.180,31.735 54.814,31.135 54.541,30.718 C55.796,30.421 56.859,30.262 57.647,30.279 C58.791,30.305 59.530,30.689 59.845,31.423 C60.270,32.414 60.130,34.027 55.206,37.760 ZM53.028,34.852 C52.798,34.166 52.520,33.498 52.196,32.850 L52.021,32.499 L51.665,32.597 C50.206,32.993 48.740,33.313 47.307,33.547 L46.830,33.625 L46.910,34.141 C47.124,35.539 47.260,36.989 47.314,38.450 L47.315,38.488 C45.921,39.315 44.407,40.174 42.779,41.055 L35.266,41.055 L35.287,41.593 C35.330,42.647 35.419,43.690 35.550,44.705 C34.923,44.999 34.307,45.280 33.705,45.550 C33.518,44.249 33.393,42.907 33.344,41.550 L33.327,41.055 L26.821,41.055 L26.877,41.625 C27.070,43.575 27.603,45.433 28.461,47.149 L28.636,47.500 L28.992,47.402 C29.284,47.323 29.574,47.250 29.866,47.177 C28.788,47.607 27.776,47.986 26.836,48.315 C25.574,45.855 24.849,43.020 24.849,40.000 C24.849,30.627 31.795,23.000 40.330,23.000 C46.829,23.000 52.402,27.426 54.691,33.675 C54.177,34.051 53.621,34.444 53.028,34.852 ZM45.391,38.945 L45.369,38.407 C45.314,37.016 45.178,35.647 44.968,34.337 L44.893,33.871 L44.459,33.913 C42.877,34.066 41.564,34.137 40.329,34.137 C39.092,34.137 37.781,34.066 36.199,33.913 L35.765,33.871 L35.690,34.337 C35.479,35.652 35.343,37.022 35.287,38.407 L35.266,38.945 L45.391,38.945 ZM28.993,32.597 L28.636,32.500 L28.461,32.850 C27.603,34.565 27.070,36.424 26.877,38.374 L26.821,38.945 L33.327,38.945 L33.344,38.450 C33.398,36.985 33.534,35.535 33.748,34.141 L33.826,33.625 L33.351,33.547 C31.925,33.314 30.459,32.994 28.993,32.597 ZM35.393,26.150 C33.481,26.977 31.733,28.305 30.334,29.993 L29.790,30.649 L30.582,30.840 C31.729,31.117 32.795,31.332 33.840,31.497 L34.251,31.563 L34.364,31.129 C34.796,29.480 35.340,28.054 35.976,26.891 L36.689,25.590 L35.393,26.150 ZM40.330,25.553 C38.899,25.553 37.388,27.714 36.386,31.192 L36.208,31.807 L36.801,31.858 C37.969,31.959 39.157,32.010 40.329,32.010 C41.502,32.010 42.689,31.959 43.858,31.858 L44.451,31.808 L44.273,31.192 C43.271,27.714 41.760,25.553 40.330,25.553 ZM50.324,29.993 C48.928,28.307 47.179,26.978 45.264,26.149 L43.969,25.588 L44.682,26.891 C45.318,28.052 45.860,29.478 46.293,31.129 L46.407,31.563 L46.818,31.497 C47.864,31.332 48.930,31.117 50.074,30.840 L50.866,30.649 L50.324,29.993 ZM35.393,53.850 L36.688,54.411 L35.976,53.109 C35.602,52.427 35.265,51.642 34.960,50.785 C35.550,50.524 36.151,50.254 36.759,49.974 C37.741,52.761 39.067,54.446 40.330,54.446 C41.760,54.446 43.271,52.286 44.274,48.808 L44.452,48.191 L43.859,48.141 C42.865,48.055 41.859,48.014 40.860,48.001 C41.596,47.631 42.338,47.252 43.087,46.860 C43.572,46.606 44.053,46.350 44.531,46.093 L44.893,46.128 L44.934,45.876 C45.655,45.486 46.367,45.093 47.068,44.698 C47.020,45.088 46.969,45.476 46.910,45.858 L46.830,46.374 L47.307,46.452 C48.743,46.687 50.209,47.007 51.665,47.402 L52.022,47.500 L52.197,47.149 C53.055,45.432 53.587,43.574 53.779,41.625 L53.837,41.055 L53.138,41.055 C54.065,40.460 54.952,39.870 55.792,39.289 C55.800,39.525 55.808,39.761 55.808,39.999 C55.808,49.373 48.864,56.999 40.330,56.999 C36.424,56.999 32.854,55.399 30.128,52.769 C30.822,52.507 31.536,52.226 32.269,51.927 C33.232,52.716 34.282,53.370 35.393,53.850 ZM45.266,53.850 C47.180,53.021 48.928,51.691 50.325,50.005 L50.867,49.349 L50.074,49.159 C48.927,48.882 47.861,48.667 46.818,48.502 L46.407,48.436 L46.293,48.870 C45.860,50.520 45.318,51.947 44.683,53.109 L43.970,54.411 L45.266,53.850 Z" class="cls-1"/>
</svg>
