<svg xmlns="http://www.w3.org/2000/svg" xmlns:xlink="http://www.w3.org/1999/xlink" preserveAspectRatio="xMidYMid" width="80" height="80" viewBox="0 0 80 80">
  <defs>
    <style>
      .cls-1 {
        fill: #9cbbff;
        fill-rule: evenodd;
      }
    </style>
  </defs>
  <path d="M39.998,80.000 C17.907,80.000 -0.002,62.091 -0.002,40.000 C-0.002,17.909 17.907,-0.000 39.998,-0.000 C62.089,-0.000 79.998,17.909 79.998,40.000 C79.998,62.091 62.089,80.000 39.998,80.000 ZM39.998,1.000 C18.460,1.000 0.998,18.461 0.998,40.000 C0.998,61.539 18.460,79.000 39.998,79.000 C61.538,79.000 78.998,61.539 78.998,40.000 C78.998,18.461 61.538,1.000 39.998,1.000 ZM58.784,26.567 C58.391,27.058 57.672,27.141 57.178,26.752 L56.479,26.202 C55.984,25.812 55.901,25.099 56.294,24.607 L57.324,23.317 C57.611,22.957 58.139,22.896 58.502,23.182 L59.679,24.108 C60.042,24.394 60.102,24.917 59.815,25.277 L58.784,26.567 ZM56.971,27.011 C57.332,27.295 57.786,27.384 58.204,27.293 L47.964,40.112 C47.571,40.604 46.852,40.686 46.358,40.297 L45.659,39.747 C45.164,39.357 45.080,38.643 45.474,38.152 L55.714,25.333 C55.720,25.758 55.911,26.177 56.272,26.461 L56.971,27.011 ZM45.036,38.863 C45.031,38.883 45.026,38.904 45.021,38.924 L45.035,38.862 L45.036,38.863 ZM46.133,40.579 C46.471,40.845 46.914,40.891 47.286,40.735 L44.385,42.054 L45.017,38.949 C44.950,39.344 45.095,39.763 45.434,40.029 L46.133,40.579 ZM47.368,40.698 L47.310,40.725 C47.329,40.716 47.349,40.707 47.367,40.698 L47.368,40.698 ZM50.248,30.253 C46.851,30.253 43.733,32.310 40.539,35.750 L40.539,49.562 C42.571,47.768 46.869,45.124 51.460,45.124 C52.996,45.124 54.413,45.517 55.686,46.295 L55.686,31.908 C55.566,31.826 55.866,31.613 55.675,31.500 C56.090,31.759 56.353,31.478 56.353,31.478 L56.353,47.688 C49.459,41.907 39.650,52.011 39.650,52.011 C39.650,52.011 29.841,41.907 22.947,47.688 L22.947,31.478 C22.947,31.478 30.390,24.691 39.458,34.687 C44.196,29.465 48.279,28.904 51.350,29.375 L50.269,30.437 C49.963,30.407 50.576,30.253 50.248,30.253 ZM28.647,30.437 C25.912,30.437 24.624,31.648 24.323,32.562 L24.323,45.312 C25.596,44.534 27.111,44.250 28.647,44.250 C33.238,44.250 37.426,47.768 39.458,49.562 L39.458,35.750 C36.264,32.310 32.044,30.437 28.647,30.437 ZM39.650,53.614 C39.650,53.614 47.881,43.781 57.208,50.170 L57.309,33.299 L59.301,34.153 L59.301,53.261 C59.301,53.261 49.772,46.931 39.650,57.000 C29.527,46.931 19.999,53.261 19.999,53.261 L19.999,34.153 L21.990,33.299 L22.092,50.170 C31.419,43.781 39.650,53.614 39.650,53.614 Z" class="cls-1"/>
</svg>
