<svg xmlns="http://www.w3.org/2000/svg" xmlns:xlink="http://www.w3.org/1999/xlink" preserveAspectRatio="xMidYMid" width="80" height="80" viewBox="0 0 80 80">
  <defs>
    <style>
      .cls-1 {
        fill: #ef944a;
        fill-rule: evenodd;
      }
    </style>
  </defs>
  <path d="M39.998,80.000 C17.907,80.000 -0.003,62.091 -0.003,40.000 C-0.003,17.908 17.907,-0.000 39.998,-0.000 C62.089,-0.000 79.998,17.908 79.998,40.000 C79.998,62.091 62.089,80.000 39.998,80.000 ZM39.998,1.000 C18.460,1.000 0.997,18.461 0.997,40.000 C0.997,61.539 18.460,79.000 39.998,79.000 C61.538,79.000 78.998,61.539 78.998,40.000 C78.998,18.461 61.538,1.000 39.998,1.000 ZM59.395,50.000 C58.318,51.661 55.904,52.466 52.693,52.466 C51.192,52.466 49.512,52.289 47.713,51.939 C45.959,56.833 43.152,60.000 39.990,60.000 C36.829,60.000 34.022,56.833 32.266,51.939 C30.475,52.289 28.794,52.466 27.288,52.466 C24.083,52.466 21.669,51.666 20.591,50.000 C19.011,47.555 20.679,43.800 24.543,40.000 C20.679,36.200 19.011,32.445 20.591,30.000 C21.127,29.166 22.004,28.556 23.142,28.144 C24.282,27.733 25.682,27.533 27.288,27.533 C28.794,27.533 30.475,27.711 32.266,28.061 C34.022,23.167 36.829,20.000 39.990,20.000 C43.152,20.000 45.959,23.167 47.713,28.061 C49.512,27.711 51.192,27.533 52.698,27.533 C55.904,27.533 58.318,28.339 59.395,30.000 C60.976,32.445 59.308,36.200 55.437,40.000 C59.308,43.800 60.976,47.555 59.395,50.000 ZM27.288,29.756 C24.960,29.756 23.306,30.250 22.745,31.111 C22.023,32.233 22.832,34.433 24.860,36.861 C25.296,37.377 25.776,37.894 26.293,38.411 C27.581,37.316 29.043,36.228 30.649,35.183 C30.861,33.422 31.177,31.750 31.602,30.205 C30.058,29.911 28.601,29.756 27.288,29.756 ZM30.406,38.139 C29.559,38.750 28.763,39.372 28.022,40.000 C28.763,40.628 29.559,41.250 30.406,41.861 C30.381,41.250 30.362,40.628 30.362,40.000 C30.362,39.372 30.381,38.755 30.406,38.139 ZM30.649,44.817 C29.043,43.772 27.581,42.689 26.293,41.588 C25.776,42.105 25.296,42.622 24.860,43.139 C22.832,45.566 22.023,47.767 22.745,48.889 C23.306,49.750 24.960,50.244 27.288,50.244 C28.601,50.244 30.058,50.089 31.602,49.794 C31.177,48.250 30.861,46.577 30.649,44.817 ZM46.587,46.478 C46.008,46.805 45.416,47.128 44.808,47.444 C44.197,47.755 43.593,48.050 42.984,48.333 C43.998,48.683 45.000,48.989 45.977,49.250 C46.208,48.378 46.419,47.461 46.587,46.478 ZM39.990,57.778 C41.677,57.778 43.805,55.450 45.299,51.383 C43.588,50.933 41.807,50.356 39.990,49.633 C38.173,50.356 36.392,50.933 34.688,51.383 C36.182,55.450 38.303,57.778 39.990,57.778 ZM34.009,49.250 C34.986,48.989 35.988,48.683 37.003,48.333 C36.392,48.050 35.783,47.755 35.180,47.444 C34.570,47.128 33.978,46.805 33.393,46.478 C33.567,47.461 33.773,48.383 34.009,49.250 ZM33.393,33.522 C33.978,33.194 34.570,32.872 35.180,32.555 C35.783,32.244 36.392,31.950 37.003,31.667 C35.988,31.317 34.986,31.011 34.009,30.750 C33.773,31.622 33.567,32.539 33.393,33.522 ZM39.990,22.222 C38.303,22.222 36.182,24.549 34.688,28.616 C36.392,29.067 38.179,29.644 39.990,30.367 C41.807,29.650 43.588,29.067 45.299,28.616 C43.805,24.549 41.677,22.222 39.990,22.222 ZM45.977,30.755 C45.000,31.011 43.998,31.317 42.984,31.667 C43.593,31.950 44.197,32.244 44.808,32.555 C45.416,32.872 46.008,33.194 46.587,33.522 C46.419,32.539 46.208,31.622 45.977,30.755 ZM46.967,36.405 C45.883,35.739 44.744,35.094 43.563,34.483 C42.380,33.873 41.184,33.317 39.990,32.817 C38.801,33.317 37.606,33.873 36.424,34.483 C35.235,35.094 34.103,35.739 33.019,36.405 C32.914,37.550 32.852,38.744 32.852,40.000 C32.852,41.255 32.914,42.450 33.019,43.595 C34.097,44.261 35.235,44.905 36.424,45.516 C37.606,46.127 38.801,46.683 39.990,47.183 C41.184,46.683 42.380,46.127 43.563,45.516 C44.744,44.905 45.883,44.261 46.967,43.595 C47.072,42.450 47.128,41.255 47.128,40.000 C47.128,38.744 47.072,37.550 46.967,36.405 ZM57.235,31.111 C56.682,30.250 55.026,29.756 52.698,29.756 C51.386,29.756 49.928,29.911 48.386,30.205 C48.803,31.750 49.126,33.422 49.338,35.183 C50.944,36.228 52.406,37.316 53.694,38.411 C54.212,37.894 54.690,37.377 55.120,36.861 C57.154,34.433 57.964,32.233 57.235,31.111 ZM49.574,41.861 C50.421,41.250 51.218,40.628 51.959,40.000 C51.218,39.372 50.421,38.750 49.574,38.139 C49.606,38.750 49.618,39.372 49.618,40.000 C49.618,40.628 49.606,41.250 49.574,41.861 ZM55.120,43.139 C54.690,42.622 54.212,42.105 53.694,41.588 C52.406,42.689 50.944,43.772 49.338,44.817 C49.126,46.577 48.803,48.250 48.386,49.794 C49.928,50.089 51.386,50.244 52.693,50.244 C55.026,50.244 56.682,49.750 57.242,48.889 C57.964,47.767 57.154,45.566 55.120,43.139 ZM39.992,42.864 C38.219,42.864 36.783,41.582 36.783,40.000 C36.783,38.418 38.219,37.135 39.992,37.135 C41.765,37.135 43.201,38.418 43.201,40.000 C43.201,41.582 41.765,42.864 39.992,42.864 Z" class="cls-1"/>
</svg>
