<svg xmlns="http://www.w3.org/2000/svg" xmlns:xlink="http://www.w3.org/1999/xlink" preserveAspectRatio="xMidYMid" width="80" height="80" viewBox="0 0 80 80">
  <defs>
    <style>
      .cls-1 {
        fill: #12c8cc;
        fill-rule: evenodd;
      }
    </style>
  </defs>
  <path d="M40.000,80.000 C17.909,80.000 -0.000,62.091 -0.000,40.000 C-0.000,17.909 17.909,-0.000 40.000,-0.000 C62.091,-0.000 80.000,17.909 80.000,40.000 C80.000,62.091 62.091,80.000 40.000,80.000 ZM40.000,1.000 C18.461,1.000 1.000,18.461 1.000,40.000 C1.000,61.539 18.461,79.000 40.000,79.000 C61.539,79.000 79.000,61.539 79.000,40.000 C79.000,18.461 61.539,1.000 40.000,1.000 ZM55.134,52.078 L56.302,53.760 L51.228,54.600 C50.803,55.129 50.318,55.653 49.773,56.100 C49.219,56.329 48.254,56.511 47.058,56.649 C45.410,58.059 43.642,59.328 41.749,60.445 C41.434,60.631 41.093,60.775 40.765,60.940 C40.624,61.011 40.483,61.011 40.345,60.938 C39.790,60.642 39.220,60.370 38.685,60.040 C37.054,59.036 35.525,57.900 34.077,56.661 C32.827,56.522 31.815,56.336 31.243,56.100 C30.699,55.654 30.215,55.131 29.791,54.604 L24.696,53.760 L25.863,52.078 L22.998,49.196 C22.998,49.196 25.410,49.743 28.297,50.326 C26.994,48.382 25.983,46.297 25.335,44.036 C24.865,42.400 24.486,40.743 24.251,39.058 C24.063,37.714 23.903,36.365 23.774,35.014 C23.680,34.023 23.658,33.025 23.603,32.030 C23.599,31.968 23.587,31.906 23.579,31.844 C23.579,31.378 23.579,30.911 23.579,30.444 C23.629,30.432 23.681,30.426 23.728,30.407 C24.407,30.127 25.035,29.760 25.603,29.295 C27.140,28.036 28.126,26.413 28.719,24.537 C28.753,24.428 28.802,24.362 28.909,24.313 C32.412,22.718 35.913,21.121 39.413,19.522 C39.783,19.353 40.148,19.174 40.515,19.000 C40.550,19.000 40.585,19.000 40.620,19.000 C40.784,19.083 40.944,19.173 41.111,19.249 C44.808,20.938 48.505,22.626 52.205,24.309 C52.331,24.367 52.368,24.453 52.405,24.567 C53.039,26.542 54.097,28.230 55.773,29.496 C56.254,29.859 56.775,30.159 57.337,30.381 C57.494,30.443 57.537,30.526 57.536,30.688 C57.527,32.484 57.424,34.275 57.248,36.063 C57.093,37.641 56.877,39.210 56.571,40.766 C56.136,42.976 55.561,45.147 54.605,47.197 C54.099,48.280 53.510,49.310 52.853,50.296 C55.672,49.724 58.000,49.196 58.000,49.196 L55.134,52.078 ZM48.110,52.438 C49.055,51.456 49.927,50.413 50.700,49.293 C51.999,47.412 52.970,45.374 53.586,43.172 C54.236,40.849 54.645,38.480 54.886,36.083 C55.017,34.773 55.094,33.458 55.195,32.145 C55.224,31.959 55.123,31.871 54.979,31.781 C54.137,31.254 53.385,30.617 52.735,29.869 C51.787,28.778 51.039,27.560 50.501,26.216 C50.470,26.140 50.394,26.062 50.319,26.027 C47.117,24.559 43.912,23.097 40.709,21.631 C40.604,21.583 40.519,21.581 40.413,21.629 C37.215,23.092 34.016,24.553 30.816,26.010 C30.705,26.060 30.643,26.129 30.600,26.239 C30.267,27.089 29.832,27.889 29.328,28.646 C28.473,29.929 27.397,30.996 26.083,31.814 C25.984,31.876 25.946,31.942 25.949,32.065 C25.997,33.732 26.131,35.392 26.342,37.047 C26.560,38.764 26.850,40.467 27.255,42.152 C27.796,44.396 28.655,46.505 29.876,48.465 C30.824,49.988 31.969,51.353 33.215,52.637 C38.098,53.302 43.045,53.295 47.926,52.618 C47.986,52.556 48.050,52.500 48.110,52.438 ZM38.257,56.930 C38.959,57.412 39.678,57.871 40.386,58.344 C40.496,58.417 40.587,58.428 40.703,58.350 C40.887,58.226 41.085,58.125 41.273,58.007 C41.824,57.663 42.359,57.299 42.887,56.926 C41.369,56.973 39.780,56.974 38.257,56.930 ZM36.467,57.220 C37.704,58.161 38.977,59.047 40.352,59.779 C40.497,59.856 40.611,59.867 40.753,59.780 C41.435,59.364 42.140,58.983 42.803,58.539 C43.611,57.996 44.388,57.416 45.150,56.818 C44.733,56.846 44.304,56.870 43.862,56.890 C43.318,57.292 42.763,57.680 42.195,58.052 C41.717,58.366 41.217,58.646 40.735,58.952 C40.600,59.038 40.501,59.023 40.371,58.950 C39.292,58.343 38.281,57.636 37.292,56.896 C36.847,56.877 36.412,56.854 35.991,56.827 C36.153,56.954 36.303,57.095 36.467,57.220 ZM54.881,43.298 C55.364,41.524 55.700,39.723 55.955,37.904 C56.211,36.073 56.366,34.233 56.469,32.386 C56.469,32.030 56.466,31.675 56.471,31.320 C56.472,31.211 56.447,31.148 56.338,31.091 C55.299,30.555 54.391,29.846 53.635,28.956 C52.713,27.871 52.002,26.660 51.530,25.313 C51.491,25.203 51.435,25.130 51.322,25.078 C47.782,23.465 44.244,21.848 40.703,20.237 C40.622,20.200 40.494,20.201 40.413,20.238 C36.866,21.851 33.322,23.469 29.780,25.092 C29.707,25.125 29.634,25.208 29.606,25.285 C29.199,26.397 28.653,27.437 27.944,28.387 C27.104,29.510 26.070,30.415 24.822,31.065 C24.693,31.133 24.651,31.204 24.653,31.344 C24.676,33.135 24.799,34.919 25.008,36.698 C25.232,38.603 25.533,40.493 25.992,42.358 C26.379,43.928 26.865,45.465 27.563,46.925 C28.511,48.907 29.753,50.692 31.194,52.338 C31.587,52.406 31.982,52.452 32.376,52.512 C32.215,52.339 32.036,52.184 31.879,52.007 C30.128,50.038 28.691,47.870 27.721,45.413 C27.262,44.252 26.923,43.054 26.634,41.840 C26.268,40.308 26.002,38.758 25.826,37.195 C25.657,35.696 25.532,34.192 25.388,32.690 C25.394,32.688 25.400,32.687 25.406,32.685 C25.406,32.365 25.401,32.044 25.410,31.724 C25.412,31.663 25.455,31.578 25.506,31.548 C27.243,30.525 28.550,29.096 29.489,27.326 C29.748,26.839 29.955,26.324 30.194,25.825 C30.231,25.749 30.298,25.667 30.372,25.633 C33.723,24.098 37.076,22.567 40.431,21.042 C40.503,21.009 40.617,21.010 40.690,21.043 C44.040,22.567 47.387,24.096 50.732,25.630 C50.815,25.668 50.894,25.761 50.928,25.847 C51.561,27.437 52.442,28.866 53.667,30.071 C54.243,30.638 54.888,31.120 55.586,31.529 C55.681,31.584 55.713,31.642 55.707,31.750 C55.641,32.897 55.610,34.046 55.509,35.189 C55.406,36.349 55.255,37.505 55.091,38.659 C54.874,40.188 54.548,41.697 54.137,43.186 C53.533,45.378 52.597,47.417 51.332,49.308 C50.572,50.444 49.706,51.495 48.775,52.492 C49.158,52.433 49.542,52.390 49.923,52.323 C50.625,51.521 51.291,50.693 51.891,49.811 C53.253,47.807 54.244,45.634 54.881,43.298 ZM44.148,42.470 L43.114,42.616 C42.687,42.677 42.237,42.753 41.765,42.843 L41.669,42.167 C42.147,42.124 42.601,42.072 43.028,42.011 L45.024,41.729 C44.971,41.350 44.906,40.983 44.832,40.631 L45.545,40.530 C45.568,40.866 45.609,41.235 45.666,41.638 L47.876,41.325 C48.208,41.278 48.611,41.209 49.083,41.118 L49.179,41.794 C48.700,41.838 48.294,41.883 47.962,41.930 L46.679,42.111 C46.994,42.454 47.433,42.731 47.997,42.941 C48.559,43.152 49.186,43.293 49.875,43.365 C49.664,43.588 49.531,43.849 49.477,44.147 C48.703,43.991 48.034,43.759 47.469,43.451 C46.904,43.145 46.403,42.731 45.966,42.212 L45.752,42.243 L46.030,44.199 L48.276,43.881 C48.312,44.312 48.368,44.788 48.442,45.310 C48.513,45.808 48.596,46.304 48.690,46.799 L43.629,47.515 C43.588,47.062 43.531,46.574 43.457,46.052 C43.380,45.506 43.298,45.022 43.214,44.598 C42.932,44.832 42.593,45.085 42.195,45.359 C42.016,45.119 41.819,44.929 41.605,44.790 C42.111,44.597 42.600,44.286 43.072,43.856 C43.544,43.426 43.903,42.964 44.148,42.470 ZM44.225,46.850 L47.932,46.325 L47.841,45.685 L44.134,46.210 L44.225,46.850 ZM44.058,45.676 L47.765,45.151 L47.679,44.547 L43.972,45.071 L44.058,45.676 ZM45.389,44.290 L45.110,42.334 L44.932,42.359 C44.728,42.799 44.493,43.196 44.228,43.547 C43.963,43.899 43.637,44.248 43.250,44.593 L45.389,44.290 ZM48.975,47.521 C49.378,47.463 49.769,47.396 50.146,47.319 L50.237,47.959 C49.330,48.063 48.699,48.140 48.343,48.191 L43.816,48.832 C43.388,48.892 42.962,48.965 42.538,49.049 L42.447,48.409 C42.901,48.369 43.331,48.320 43.735,48.262 L48.975,47.521 ZM49.930,34.076 L49.287,32.834 L47.904,33.057 L48.889,32.063 L48.250,30.819 L49.501,31.447 L50.489,30.455 L50.277,31.837 L51.527,32.468 L50.145,32.695 L49.930,34.076 ZM45.386,36.720 L44.076,36.226 L43.198,37.315 L43.263,35.919 L41.954,35.422 L43.305,35.052 L43.374,33.656 L44.144,34.824 L45.495,34.458 L44.620,35.550 L45.386,36.720 ZM42.630,31.233 L40.508,29.699 L38.386,31.233 L39.193,28.745 L37.075,27.205 L39.695,27.202 L40.508,24.715 L41.321,27.202 L43.941,27.205 L41.824,28.745 L42.630,31.233 ZM37.812,35.075 L39.166,35.433 L37.861,35.942 L37.939,37.338 L37.051,36.256 L35.745,36.761 L36.501,35.584 L35.617,34.500 L36.972,34.854 L37.731,33.680 L37.812,35.075 ZM36.279,41.482 C36.450,41.203 36.576,40.936 36.659,40.680 C36.958,40.793 37.234,40.902 37.487,41.008 C37.376,41.115 37.303,41.201 37.270,41.269 C37.614,42.137 38.015,42.764 38.472,43.151 C38.928,43.538 39.349,43.830 39.735,44.026 C39.468,44.208 39.292,44.439 39.206,44.717 C38.984,44.567 38.775,44.412 38.578,44.253 C38.382,44.094 38.183,43.905 37.983,43.684 C37.782,43.464 37.598,43.204 37.433,42.904 C37.267,42.605 37.082,42.223 36.878,41.761 C36.633,42.139 36.409,42.454 36.207,42.705 C36.004,42.956 35.791,43.187 35.569,43.399 L37.889,43.708 L37.803,44.349 C37.639,44.304 37.474,44.269 37.308,44.247 L36.238,44.104 C35.952,44.066 35.665,44.041 35.376,44.026 L35.438,43.563 L34.993,43.902 C34.801,44.071 34.625,44.216 34.463,44.339 C34.349,44.107 34.158,43.900 33.892,43.720 C34.280,43.530 34.625,43.304 34.927,43.042 C35.228,42.780 35.486,42.524 35.701,42.275 C35.916,42.026 36.109,41.762 36.279,41.482 ZM33.695,42.751 L33.445,42.717 L33.226,44.356 C33.425,44.310 33.605,44.238 33.763,44.137 C33.819,44.266 33.892,44.439 33.985,44.656 C34.076,44.874 34.167,45.098 34.258,45.327 C34.082,45.376 33.864,45.468 33.604,45.603 C33.548,45.474 33.492,45.304 33.436,45.091 C33.379,44.878 33.300,44.704 33.197,44.570 L32.840,47.241 C32.780,47.692 32.733,48.133 32.700,48.563 L31.986,48.468 C32.060,48.091 32.131,47.654 32.198,47.155 L32.579,44.306 C32.452,44.531 32.267,44.826 32.024,45.193 C31.781,45.559 31.559,45.862 31.358,46.101 C31.223,45.842 31.057,45.638 30.859,45.491 C31.104,45.282 31.317,45.050 31.496,44.796 C31.675,44.543 31.848,44.287 32.016,44.032 C32.183,43.776 32.325,43.529 32.442,43.291 C32.558,43.053 32.655,42.830 32.731,42.622 L32.374,42.575 C32.255,42.559 32.003,42.538 31.620,42.511 L31.711,41.834 C32.064,41.905 32.312,41.950 32.455,41.969 L32.883,42.026 L33.012,41.065 C33.047,40.804 33.071,40.529 33.086,40.241 L33.835,40.341 C33.749,40.619 33.689,40.889 33.654,41.150 L33.526,42.112 L33.883,42.159 C34.025,42.179 34.277,42.200 34.637,42.224 L34.546,42.900 C34.145,42.823 33.861,42.773 33.695,42.751 ZM31.812,32.908 L31.179,34.155 L30.952,32.776 L29.568,32.561 L30.813,31.920 L30.590,30.539 L31.586,31.522 L32.832,30.884 L32.203,32.133 L33.196,33.119 L31.812,32.908 ZM34.689,46.182 C34.625,45.932 34.506,45.554 34.332,45.047 C34.636,44.942 34.878,44.854 35.058,44.781 C35.156,45.133 35.257,45.503 35.363,45.891 C35.468,46.280 35.558,46.648 35.633,46.997 C35.433,47.042 35.181,47.118 34.877,47.222 C34.814,46.779 34.752,46.432 34.689,46.182 ZM36.063,45.821 C35.997,45.499 35.901,45.171 35.776,44.841 C36.077,44.760 36.328,44.696 36.528,44.651 C36.602,44.999 36.684,45.384 36.773,45.807 C36.861,46.230 36.929,46.541 36.975,46.740 C36.706,46.753 36.458,46.804 36.228,46.894 C36.183,46.502 36.128,46.144 36.063,45.821 ZM34.886,47.695 L36.563,47.918 C36.774,47.608 36.986,47.244 37.200,46.825 C37.413,46.406 37.579,46.066 37.699,45.804 C37.819,45.542 37.940,45.226 38.062,44.855 C38.355,45.015 38.628,45.148 38.881,45.254 C38.545,45.766 38.265,46.230 38.041,46.647 C37.815,47.064 37.548,47.518 37.241,48.008 L37.848,48.089 C38.205,48.137 38.563,48.172 38.923,48.196 L38.837,48.837 C38.555,48.775 38.200,48.716 37.772,48.659 L34.774,48.260 C34.108,48.171 33.666,48.124 33.449,48.119 L33.535,47.478 C33.769,47.534 34.220,47.606 34.886,47.695 Z" class="cls-1"/>
</svg>
