<svg xmlns="http://www.w3.org/2000/svg" xmlns:xlink="http://www.w3.org/1999/xlink" preserveAspectRatio="xMidYMid" width="80" height="80" viewBox="0 0 80 80">
  <defs>
    <style>
      .cls-1 {
        fill: #3789c9;
        fill-rule: evenodd;
      }
    </style>
  </defs>
  <path d="M39.996,80.000 C17.905,80.000 -0.003,62.091 -0.003,40.000 C-0.003,17.908 17.905,-0.000 39.996,-0.000 C62.088,-0.000 79.996,17.908 79.996,40.000 C79.996,62.091 62.088,80.000 39.996,80.000 ZM39.996,1.000 C18.458,1.000 0.996,18.461 0.996,40.000 C0.996,61.539 18.458,79.000 39.996,79.000 C61.536,79.000 78.996,61.539 78.996,40.000 C78.996,18.461 61.536,1.000 39.996,1.000 ZM46.057,49.153 L35.400,40.916 L35.381,40.933 C35.319,41.069 35.237,41.186 35.145,41.303 L36.121,42.449 C36.705,43.133 36.811,44.081 36.390,44.868 L31.062,54.773 C30.477,55.864 29.072,56.303 27.932,55.741 C26.795,55.180 26.355,53.832 26.944,52.739 L31.581,44.142 L26.067,37.656 C26.086,40.243 26.117,44.527 26.117,44.527 C26.115,44.724 26.087,44.920 26.034,45.109 L23.579,54.127 C23.391,54.918 22.778,55.546 21.965,55.772 C21.151,55.995 20.271,55.769 19.677,55.191 C19.084,54.611 18.863,53.773 19.107,52.997 L21.493,44.237 C21.488,43.634 21.427,35.027 21.427,35.027 C21.423,34.436 21.662,33.866 22.098,33.446 L23.107,32.493 C22.929,32.397 22.766,32.269 22.619,32.123 C22.208,31.718 21.985,31.173 21.995,30.623 L20.164,29.219 C19.913,29.025 19.808,28.712 19.895,28.413 C19.984,28.115 20.246,27.887 20.568,27.849 C20.784,27.821 21.001,27.880 21.172,28.010 L22.417,28.961 L24.101,23.025 C24.346,22.103 25.572,21.191 26.602,21.240 C28.739,21.263 34.841,21.240 34.841,21.240 C35.894,21.238 36.606,21.820 37.014,22.398 L41.150,28.286 C41.599,28.930 41.640,29.764 41.252,30.447 L36.173,39.511 L47.373,48.128 L51.106,45.868 L63.996,55.980 L36.110,55.980 L46.057,49.153 ZM27.763,25.327 L26.974,28.800 L30.595,25.343 L27.763,25.327 ZM30.884,35.453 L32.727,36.865 L35.457,32.784 L30.884,35.453 ZM43.374,27.220 C41.291,27.220 39.604,25.602 39.604,23.606 C39.604,21.610 41.293,19.993 43.374,19.993 C45.448,19.993 47.138,21.613 47.140,23.606 C47.140,25.602 45.448,27.220 43.374,27.220 Z" class="cls-1"/>
</svg>
