<svg xmlns="http://www.w3.org/2000/svg" xmlns:xlink="http://www.w3.org/1999/xlink" preserveAspectRatio="xMidYMid" width="80" height="80" viewBox="0 0 80 80">
  <defs>
    <style>
      .cls-1 {
        fill: #12c8cc;
        fill-rule: evenodd;
      }
    </style>
  </defs>
  <path d="M39.997,80.000 C17.906,80.000 -0.002,62.091 -0.002,40.000 C-0.002,17.908 17.906,-0.000 39.997,-0.000 C62.089,-0.000 79.997,17.908 79.997,40.000 C79.997,62.091 62.089,80.000 39.997,80.000 ZM39.997,1.000 C18.459,1.000 0.997,18.461 0.997,40.000 C0.997,61.539 18.459,79.000 39.997,79.000 C61.537,79.000 78.997,61.539 78.997,40.000 C78.997,18.461 61.537,1.000 39.997,1.000 ZM56.841,52.552 L55.822,52.552 L55.822,56.999 L46.388,56.999 L46.391,52.592 L45.405,52.592 L45.405,56.999 L42.254,56.999 L42.256,51.919 C42.256,51.919 42.066,48.070 47.423,47.974 L50.325,47.974 L51.342,49.610 L52.362,47.974 L54.900,47.974 C54.900,47.974 59.646,47.914 59.987,51.919 L59.987,56.999 L56.841,56.999 L56.841,52.552 ZM51.345,46.791 C49.284,46.791 47.611,45.155 47.611,43.139 C47.611,41.120 49.284,39.488 51.345,39.488 C53.401,39.488 55.075,41.120 55.075,43.139 C55.075,45.155 53.401,46.791 51.345,46.791 ZM45.886,28.056 L44.866,28.056 L44.866,32.500 L35.430,32.500 L35.435,28.094 L34.448,28.094 L34.448,32.500 L31.300,32.500 L31.300,27.420 C31.300,27.420 31.108,23.568 36.463,23.471 L39.367,23.471 L40.386,25.108 L41.408,23.471 L43.942,23.471 C43.942,23.471 48.691,23.412 49.034,27.420 L49.034,32.500 L45.886,32.500 L45.886,28.056 ZM40.390,22.296 C38.328,22.296 36.657,20.656 36.657,18.637 C36.657,16.618 38.328,14.989 40.390,14.989 C42.446,14.989 44.119,16.618 44.119,18.637 C44.119,20.656 42.446,22.296 40.390,22.296 ZM33.008,43.139 C33.008,45.155 31.339,46.791 29.284,46.791 C27.222,46.791 25.549,45.155 25.549,43.139 C25.549,41.120 27.222,39.488 29.284,39.488 C31.339,39.488 33.008,41.120 33.008,43.139 ZM29.280,49.610 L30.300,47.974 L32.839,47.974 C32.839,47.974 37.583,47.914 37.926,51.919 L37.926,56.999 L34.780,56.999 L34.780,52.552 L33.757,52.552 L33.757,56.999 L24.326,56.999 L24.329,52.592 L23.343,52.592 L23.343,56.999 L20.190,56.999 L20.195,51.919 C20.195,51.919 20.001,48.070 25.360,47.974 L28.259,47.974 L29.280,49.610 ZM34.600,45.304 L39.544,40.473 L39.544,34.583 L40.790,34.583 L40.790,40.473 L45.726,45.304 L44.844,46.166 L40.513,41.927 L39.819,41.927 L35.488,46.166 L34.600,45.304 Z" class="cls-1"/>
</svg>
