<svg xmlns="http://www.w3.org/2000/svg" xmlns:xlink="http://www.w3.org/1999/xlink" preserveAspectRatio="xMidYMid" width="61" height="50" viewBox="0 0 61 50">
  <defs>
    <style>
      .cls-1 {
        fill: #fff;
        fill-rule: evenodd;
      }
    </style>
  </defs>
  <path d="M46.377,37.499 C43.131,35.863 38.426,31.936 31.402,30.628 C33.126,28.533 34.515,25.261 35.977,21.465 C36.703,19.175 36.571,17.277 36.571,14.594 C36.571,12.565 36.968,9.424 36.440,7.591 C34.913,1.635 31.005,-0.001 26.434,-0.001 C21.796,-0.001 17.887,1.635 16.362,7.591 C15.898,9.424 16.229,12.630 16.229,14.594 C16.229,17.277 16.095,19.175 16.958,21.465 C18.351,25.261 19.675,28.599 21.464,30.628 C14.507,32.002 9.736,35.929 6.622,37.499 C-0.003,40.641 -0.003,44.109 -0.003,44.109 L-0.003,45.418 C-0.003,47.709 2.447,49.999 4.832,49.999 L48.101,49.999 C51.148,49.999 53.002,47.513 53.002,45.222 L53.002,44.109 C53.002,44.109 52.936,40.641 46.377,37.499 ZM56.028,29.746 C53.359,27.946 52.168,25.666 46.899,24.706 C48.192,23.171 49.234,20.771 50.327,17.988 C50.875,16.308 50.776,14.916 50.776,12.948 C50.776,11.460 51.073,9.157 50.676,7.813 C49.533,3.446 46.601,2.246 43.171,2.246 C41.492,2.246 39.930,2.527 38.647,3.308 C39.158,4.201 39.589,5.257 39.910,6.504 C40.439,8.336 40.041,11.478 40.041,13.507 C40.041,16.190 40.175,18.088 39.446,20.379 L38.335,23.163 C38.681,23.751 39.050,24.269 39.446,24.706 C38.748,24.841 38.085,25.011 37.446,25.204 C36.644,26.927 35.808,28.405 34.873,29.541 C41.898,30.849 46.601,34.776 49.848,36.412 C51.590,37.246 52.878,38.104 53.824,38.913 L57.319,38.913 C59.605,38.913 60.997,37.089 60.997,35.409 L60.997,34.593 C60.997,34.593 58.626,31.810 56.028,29.746 Z" class="cls-1"/>
</svg>
