<svg xmlns="http://www.w3.org/2000/svg" xmlns:xlink="http://www.w3.org/1999/xlink" preserveAspectRatio="xMidYMid" width="80" height="80" viewBox="0 0 80 80">
  <defs>
    <style>
      .cls-1 {
        fill: #f17181;
        fill-rule: evenodd;
      }
    </style>
  </defs>
  <path d="M39.997,80.000 C17.908,80.000 -0.003,62.091 -0.003,40.000 C-0.003,17.908 17.908,-0.000 39.997,-0.000 C62.089,-0.000 79.997,17.908 79.997,40.000 C79.997,62.091 62.089,80.000 39.997,80.000 ZM39.997,1.000 C18.458,1.000 0.997,18.461 0.997,40.000 C0.997,61.539 18.458,79.000 39.997,79.000 C61.537,79.000 78.997,61.539 78.997,40.000 C78.997,18.461 61.537,1.000 39.997,1.000 ZM25.004,56.037 L26.964,56.037 L26.964,42.955 L32.194,37.722 L48.539,37.722 L48.539,27.256 C48.539,26.389 48.971,25.948 49.845,25.948 L55.729,25.948 C56.603,25.948 57.037,26.389 57.037,27.256 L57.037,56.037 L58.997,56.037 L58.997,58.000 L25.004,58.000 L25.004,56.037 ZM51.153,54.729 L54.421,54.729 L54.421,51.458 L51.153,51.458 L51.153,54.729 ZM51.153,49.496 L54.421,49.496 L54.421,46.225 L51.153,46.225 L51.153,49.496 ZM51.153,44.263 L54.421,44.263 L54.421,40.993 L51.153,40.993 L51.153,44.263 ZM51.153,37.722 L54.421,37.722 L54.421,34.452 L51.153,34.452 L51.153,37.722 ZM51.153,31.835 L54.421,31.835 L54.421,28.564 L51.153,28.564 L51.153,31.835 ZM44.615,54.729 L47.885,54.729 L47.885,51.458 L44.615,51.458 L44.615,54.729 ZM44.615,49.496 L47.885,49.496 L47.885,46.225 L44.615,46.225 L44.615,49.496 ZM44.615,44.263 L47.885,44.263 L47.885,40.993 L44.615,40.993 L44.615,44.263 ZM38.733,54.729 L42.000,54.729 L42.000,51.458 L38.733,51.458 L38.733,54.729 ZM38.733,49.496 L42.000,49.496 L42.000,46.225 L38.733,46.225 L38.733,49.496 ZM38.733,44.263 L42.000,44.263 L42.000,40.993 L38.733,40.993 L38.733,44.263 ZM32.194,54.729 L35.462,54.729 L35.462,51.458 L32.194,51.458 L32.194,54.729 ZM32.194,49.496 L35.462,49.496 L35.462,46.225 L32.194,46.225 L32.194,49.496 ZM32.194,44.263 L35.462,44.263 L35.462,40.993 L32.194,40.993 L32.194,44.263 ZM30.333,31.095 L24.785,36.645 L26.172,38.033 L19.008,40.114 L21.088,32.945 L22.474,34.332 L29.407,27.395 L35.260,30.812 L46.048,19.994 L48.360,22.307 L35.879,34.795 L30.333,31.095 Z" class="cls-1"/>
</svg>
