<svg xmlns="http://www.w3.org/2000/svg" xmlns:xlink="http://www.w3.org/1999/xlink" preserveAspectRatio="xMidYMid" width="66" height="66" viewBox="0 0 66 66">
  <defs>
    <style>
      .cls-1 {
        fill: #fff;
        fill-rule: evenodd;
      }
    </style>
  </defs>
  <path d="M64.278,56.072 C66.548,58.348 66.548,62.036 64.274,64.307 C63.141,65.446 61.649,66.014 60.162,66.014 C58.671,66.014 57.183,65.446 56.044,64.307 C56.044,64.307 41.218,49.453 41.102,49.312 C36.956,51.961 32.029,53.503 26.742,53.503 C11.983,53.503 0.013,41.522 0.013,26.743 C0.013,11.969 11.983,-0.011 26.742,-0.011 C41.508,-0.011 53.477,11.969 53.477,26.743 C53.477,32.034 51.936,36.965 49.292,41.119 C49.439,41.231 64.278,56.072 64.278,56.072 ZM49.638,26.743 C49.638,14.089 39.391,3.832 26.742,3.832 C14.102,3.832 3.855,14.089 3.855,26.743 C3.855,39.402 14.102,49.658 26.742,49.658 C39.391,49.658 49.638,39.402 49.638,26.743 ZM27.835,43.937 L15.357,43.937 L15.357,11.058 L27.976,11.058 L27.976,26.405 L33.569,22.254 L39.305,26.509 L39.305,43.937 L27.976,43.937 L27.835,43.937 ZM20.576,13.440 L17.736,13.440 L17.736,16.284 L20.576,16.284 L20.576,13.440 ZM20.576,18.494 L17.736,18.494 L17.736,21.338 L20.576,21.338 L20.576,18.494 ZM20.576,23.549 L17.736,23.549 L17.736,26.392 L20.576,26.392 L20.576,23.549 ZM20.576,28.603 L17.736,28.603 L17.736,31.446 L20.576,31.446 L20.576,28.603 ZM20.576,33.657 L17.736,33.657 L17.736,36.501 L20.576,36.501 L20.576,33.657 ZM20.576,38.711 L17.736,38.711 L17.736,41.555 L20.576,41.555 L20.576,38.711 ZM25.596,13.440 L22.755,13.440 L22.755,16.284 L25.596,16.284 L25.596,13.440 ZM25.596,18.494 L22.755,18.494 L22.755,21.338 L25.596,21.338 L25.596,18.494 ZM25.596,23.549 L22.755,23.549 L22.755,26.392 L25.596,26.392 L25.596,23.549 ZM25.596,28.603 L22.755,28.603 L22.755,31.446 L25.596,31.446 L25.596,28.603 ZM25.596,33.657 L22.755,33.657 L22.755,36.501 L25.596,36.501 L25.596,33.657 ZM25.596,38.711 L22.755,38.711 L22.755,41.555 L25.596,41.555 L25.596,38.711 ZM34.667,41.555 L37.507,41.555 L37.507,38.711 L34.667,38.711 L34.667,41.555 ZM34.667,36.501 L37.507,36.501 L37.507,33.657 L34.667,33.657 L34.667,36.501 ZM34.667,31.446 L37.507,31.446 L37.507,28.603 L34.667,28.603 L34.667,31.446 ZM29.648,41.555 L32.488,41.555 L32.488,38.711 L29.648,38.711 L29.648,41.555 ZM29.648,36.501 L32.488,36.501 L32.488,33.657 L29.648,33.657 L29.648,36.501 ZM29.648,31.446 L32.488,31.446 L32.488,28.603 L29.648,28.603 L29.648,31.446 Z" class="cls-1"/>
</svg>
