<svg xmlns="http://www.w3.org/2000/svg" xmlns:xlink="http://www.w3.org/1999/xlink" preserveAspectRatio="xMidYMid" width="60" height="60" viewBox="0 0 60 60">
  <defs>
    <style>
      .cls-1 {
        fill: #fff;
        fill-rule: evenodd;
      }
    </style>
  </defs>
  <path d="M33.811,56.727 L33.811,26.052 C35.061,25.513 36.786,24.313 37.330,23.076 L22.663,23.076 C23.206,24.313 24.932,25.513 26.184,26.052 L26.184,56.727 C24.932,57.261 23.206,58.768 22.663,59.999 L37.330,59.999 C36.786,58.768 35.061,57.261 33.811,56.727 L33.811,56.727 ZM14.200,56.727 L14.200,26.052 C15.456,25.513 16.783,24.313 17.331,23.076 L3.995,23.076 C4.545,24.313 5.321,25.513 6.577,26.052 L6.577,56.727 C5.321,57.261 4.545,58.768 3.995,59.999 L17.331,59.999 C16.783,58.768 15.456,57.261 14.200,56.727 L14.200,56.727 ZM53.417,56.727 L53.417,26.052 C54.672,25.513 55.454,24.313 55.998,23.076 L42.663,23.076 C43.206,24.313 44.539,25.513 45.789,26.052 L45.789,56.727 C44.539,57.261 43.206,58.768 42.663,59.999 L55.998,59.999 C55.535,58.134 54.672,57.261 53.417,56.727 L53.417,56.727 ZM59.997,20.439 C59.997,20.439 43.886,6.818 34.800,1.813 C32.755,0.687 31.066,-0.003 29.998,-0.003 C28.698,-0.003 27.879,0.484 25.330,1.977 C16.063,7.403 -0.003,20.439 -0.003,20.439 L59.997,20.439 Z" class="cls-1"/>
</svg>
