<svg xmlns="http://www.w3.org/2000/svg" xmlns:xlink="http://www.w3.org/1999/xlink" preserveAspectRatio="xMidYMid" width="36" height="36" viewBox="0 0 36 36">
  <defs>
    <style>
      .cls-1 {
        fill: #12c8cc;
        fill-rule: evenodd;
      }
    </style>
  </defs>
  <path d="M17.998,36.000 C8.056,36.000 -0.002,27.941 -0.002,18.000 C-0.002,8.059 8.056,-0.000 17.998,-0.000 C27.939,-0.000 35.998,8.059 35.998,18.000 C35.998,27.941 27.939,36.000 17.998,36.000 ZM17.998,1.000 C8.610,1.000 0.998,8.611 0.998,18.000 C0.998,27.389 8.610,35.000 17.998,35.000 C27.387,35.000 34.999,27.389 34.999,18.000 C34.999,8.611 27.387,1.000 17.998,1.000 ZM27.519,10.355 L22.253,13.296 L24.470,17.009 C24.777,17.522 24.594,18.177 24.065,18.473 L18.321,21.681 C18.282,21.702 18.239,21.704 18.199,21.720 L18.212,21.742 C18.212,21.742 14.867,22.518 19.820,26.413 L14.261,29.519 C14.261,29.519 9.503,21.323 11.584,19.255 L11.243,19.445 C10.184,20.037 8.827,19.686 8.216,18.660 C7.604,17.635 7.967,16.324 9.027,15.732 L25.302,6.641 C25.833,6.345 26.510,6.521 26.817,7.034 L27.925,8.890 C28.230,9.403 28.049,10.059 27.519,10.355 ZM16.451,18.764 L17.226,20.064 C17.533,20.577 18.210,20.753 18.739,20.456 L19.589,19.982 C19.578,19.324 19.529,18.338 19.329,18.023 C19.145,17.734 18.399,17.189 17.796,16.775 L16.856,17.300 C16.325,17.596 16.144,18.252 16.451,18.764 ZM20.875,15.056 L18.581,16.337 C19.175,16.732 19.900,17.258 20.095,17.595 C20.314,17.975 20.359,18.915 20.364,19.549 L22.759,18.212 C23.289,17.916 23.470,17.260 23.165,16.748 L22.389,15.448 C22.082,14.935 21.405,14.760 20.875,15.056 Z" class="cls-1"/>
</svg>
