<svg xmlns="http://www.w3.org/2000/svg" xmlns:xlink="http://www.w3.org/1999/xlink" preserveAspectRatio="xMidYMid" width="36" height="36" viewBox="0 0 36 36">
  <defs>
    <style>
      .cls-1 {
        fill: #ef944a;
        fill-rule: evenodd;
      }
    </style>
  </defs>
  <path d="M17.998,36.000 C8.056,36.000 -0.002,27.941 -0.002,18.000 C-0.002,8.059 8.056,-0.000 17.998,-0.000 C27.939,-0.000 35.998,8.059 35.998,18.000 C35.998,27.941 27.939,36.000 17.998,36.000 ZM17.998,1.000 C8.610,1.000 0.998,8.611 0.998,18.000 C0.998,27.389 8.610,35.000 17.998,35.000 C27.387,35.000 34.999,27.389 34.999,18.000 C34.999,8.611 27.387,1.000 17.998,1.000 ZM31.016,13.673 C30.272,16.428 27.418,18.063 24.641,17.325 C22.923,16.868 21.640,15.606 21.086,14.059 L21.056,14.170 L18.099,13.383 L18.859,10.567 C17.914,10.641 12.377,11.339 12.886,17.544 L11.356,17.544 C11.356,17.544 10.013,9.930 19.270,9.044 L19.684,7.515 L22.641,8.301 L22.611,8.412 C23.329,7.804 24.209,7.403 25.150,7.249 L25.134,7.222 L27.268,5.996 L28.251,7.692 C30.459,8.748 31.674,11.238 31.016,13.673 ZM23.623,11.707 C23.272,13.004 24.048,14.336 25.355,14.684 C26.661,15.031 28.004,14.262 28.354,12.965 C28.704,11.669 27.929,10.336 26.622,9.988 C25.316,9.641 23.973,10.411 23.623,11.707 ZM9.186,17.550 L15.336,17.550 L15.336,20.587 L15.248,20.587 C16.591,21.523 17.473,23.069 17.473,24.825 C17.473,27.683 15.148,30.000 12.280,30.000 C9.429,30.000 7.120,27.710 7.091,24.877 L6.000,22.999 L8.065,21.816 C8.409,21.341 8.828,20.923 9.311,20.587 L9.186,20.587 L9.186,17.550 ZM12.261,27.262 C13.607,27.262 14.698,26.171 14.698,24.825 C14.698,23.479 13.607,22.387 12.261,22.387 C10.915,22.387 9.823,23.479 9.823,24.825 C9.823,26.171 10.915,27.262 12.261,27.262 Z" class="cls-1"/>
</svg>
