<svg xmlns="http://www.w3.org/2000/svg" xmlns:xlink="http://www.w3.org/1999/xlink" preserveAspectRatio="xMidYMid" width="80" height="80" viewBox="0 0 80 80">
  <defs>
    <style>
      .cls-1 {
        fill: #ef944a;
        fill-rule: evenodd;
      }
    </style>
  </defs>
  <path d="M39.997,80.000 C17.907,80.000 -0.003,62.091 -0.003,40.000 C-0.003,17.908 17.907,-0.000 39.997,-0.000 C62.089,-0.000 79.998,17.908 79.998,40.000 C79.998,62.091 62.089,80.000 39.997,80.000 ZM39.997,1.000 C18.457,1.000 0.998,18.461 0.998,40.000 C0.998,61.539 18.457,79.000 39.997,79.000 C61.537,79.000 78.997,61.539 78.997,40.000 C78.997,18.461 61.537,1.000 39.997,1.000 ZM30.497,45.477 L30.497,52.530 C30.497,52.807 30.328,53.034 30.122,53.034 L28.621,53.034 L28.621,44.973 L30.122,44.973 C30.328,44.973 30.497,45.200 30.497,45.477 ZM55.497,58.000 L51.748,58.000 L51.748,45.583 L51.122,45.583 L51.122,58.000 L47.372,58.000 L47.372,43.724 L45.498,43.724 L45.498,35.489 L43.728,38.065 C43.561,38.308 43.175,38.346 42.766,38.193 C42.633,38.287 42.501,38.340 42.387,38.296 L39.247,37.085 L39.247,43.729 L36.123,43.729 L36.123,58.000 L32.373,58.000 L32.373,45.583 L31.748,45.583 L31.748,58.000 L27.998,58.000 L27.998,53.646 L31.122,53.646 L31.122,44.354 L27.998,44.354 L27.998,43.729 L26.847,43.729 C27.010,43.961 27.133,44.235 27.133,44.592 L27.373,44.965 L27.998,44.965 L27.998,53.034 L20.497,53.034 L20.497,44.965 L21.122,44.965 L21.362,44.592 C21.362,43.870 21.869,43.103 22.805,43.103 L24.873,43.103 L24.873,33.458 C24.873,31.249 26.663,29.458 28.873,29.458 L29.563,29.458 L32.373,40.000 L34.557,29.458 L35.248,29.458 C37.457,29.458 39.247,31.249 39.247,33.458 L39.247,34.515 L42.445,35.748 L45.207,31.727 C45.278,31.622 45.400,31.569 45.537,31.539 C45.727,30.355 46.752,29.448 47.998,29.448 L48.310,29.448 L51.122,40.000 L53.310,29.448 L55.497,29.448 C56.878,29.448 57.998,30.559 57.998,31.931 L57.998,43.724 L55.497,43.724 L55.497,58.000 ZM25.506,43.729 L24.873,43.729 L24.873,43.724 L22.998,43.724 C22.517,43.724 22.324,44.592 22.324,44.592 L22.373,44.965 L26.123,44.965 L26.171,44.592 C26.171,44.106 25.531,43.743 25.506,43.729 ZM50.248,29.448 L51.372,29.448 L52.372,29.448 L51.443,30.371 L51.748,34.336 L50.810,35.034 L49.872,34.336 L50.177,30.371 L49.247,29.448 L50.248,29.448 ZM50.810,28.833 C48.911,28.833 47.372,27.303 47.372,25.416 C47.372,23.529 48.911,22.000 50.810,22.000 C52.708,22.000 54.248,23.529 54.248,25.416 C54.248,27.303 52.708,28.833 50.810,28.833 ZM31.498,29.448 L32.623,29.448 L33.622,29.448 L32.693,30.371 L32.997,34.336 L32.061,35.034 L31.122,34.336 L31.427,30.371 L30.497,29.448 L31.498,29.448 ZM32.061,28.833 C30.162,28.833 28.623,27.303 28.623,25.416 C28.623,23.529 30.162,22.000 32.061,22.000 C33.959,22.000 35.498,23.529 35.498,25.416 C35.498,27.303 33.959,28.833 32.061,28.833 ZM17.997,52.530 L17.997,45.477 C17.997,45.200 18.210,44.973 18.468,44.973 L19.882,44.973 L19.882,53.034 L18.468,53.034 C18.210,53.034 17.997,52.807 17.997,52.530 Z" class="cls-1"/>
</svg>
