<svg xmlns="http://www.w3.org/2000/svg" xmlns:xlink="http://www.w3.org/1999/xlink" preserveAspectRatio="xMidYMid" width="80" height="80" viewBox="0 0 80 80">
  <defs>
    <style>
      .cls-1 {
        fill: #9cbbff;
        fill-rule: evenodd;
      }
    </style>
  </defs>
  <path d="M39.997,80.000 C17.907,80.000 -0.003,62.091 -0.003,40.000 C-0.003,17.908 17.907,-0.000 39.997,-0.000 C62.089,-0.000 79.997,17.908 79.997,40.000 C79.997,62.091 62.089,80.000 39.997,80.000 ZM39.997,1.000 C18.458,1.000 0.997,18.460 0.997,40.000 C0.997,61.539 18.458,79.000 39.997,79.000 C61.537,79.000 78.997,61.539 78.997,40.000 C78.997,18.460 61.537,1.000 39.997,1.000 ZM36.870,40.684 C36.151,39.944 35.311,39.684 34.333,39.661 C35.729,39.170 36.783,40.120 37.986,40.453 C37.974,40.560 37.963,40.667 37.951,40.774 C37.582,40.753 37.060,40.880 36.870,40.684 ZM40.241,41.512 C39.431,41.572 38.841,41.616 38.024,41.676 C38.968,40.740 39.162,40.725 40.241,41.512 ZM40.646,59.000 C30.910,59.000 22.990,51.079 22.990,41.342 C22.990,31.606 30.569,23.827 40.305,23.827 C40.333,23.827 40.970,25.896 40.998,25.896 C41.638,27.567 41.828,27.757 43.074,30.034 C42.741,30.175 42.656,30.357 42.348,30.542 C41.612,30.982 40.943,31.530 40.234,32.017 C39.540,32.494 38.771,32.840 38.664,33.891 C38.628,34.235 38.017,34.582 37.606,34.815 C36.054,35.693 36.057,35.674 36.202,37.448 C36.229,37.791 36.118,38.146 36.070,38.496 C35.981,38.514 35.890,38.534 35.801,38.553 C35.682,38.224 35.540,37.902 35.450,37.566 C35.356,37.222 35.314,36.863 35.227,36.394 C34.420,36.886 33.430,35.488 32.793,36.940 C31.528,36.046 30.575,36.647 29.764,37.591 C28.891,38.606 29.049,39.819 29.394,40.963 C29.481,41.251 30.115,41.555 30.475,41.531 C30.873,41.505 31.352,41.189 31.605,40.854 C32.115,40.175 32.185,40.084 33.187,40.296 C32.857,41.046 32.538,41.778 32.161,42.637 C32.838,42.591 33.391,42.554 34.100,42.506 C34.029,43.092 33.972,43.588 33.906,44.083 C33.777,45.029 34.064,45.403 35.074,45.591 C35.288,46.126 34.851,46.120 34.619,45.985 C34.061,45.658 33.553,45.243 33.051,44.831 C32.804,44.628 32.650,44.306 32.395,44.117 C31.781,43.661 31.141,43.240 30.493,42.832 C30.297,42.707 30.020,42.565 29.821,42.613 C28.377,42.957 27.447,41.937 26.358,41.347 C26.187,41.254 25.943,40.991 25.977,40.875 C26.227,39.991 25.285,39.747 24.855,39.137 C24.718,39.968 24.812,40.752 24.855,41.620 C25.276,49.926 30.867,56.141 38.483,57.137 C38.327,57.022 38.297,56.528 38.115,56.433 C37.420,56.071 36.992,55.598 36.673,54.894 C36.302,54.074 35.876,53.245 35.309,52.557 C34.771,51.905 34.621,51.394 35.296,50.779 C34.367,49.924 35.075,49.308 35.594,48.769 C36.195,48.145 36.290,47.463 36.197,46.671 C36.117,45.997 35.850,45.558 35.116,45.575 C35.611,45.183 36.081,45.176 36.487,45.714 C37.167,45.132 37.818,44.576 38.643,43.871 C38.595,44.545 38.565,44.989 38.519,45.612 C38.819,45.091 38.954,44.549 39.225,44.468 C39.535,44.376 39.963,44.711 40.349,44.826 C40.580,44.893 40.827,44.906 41.068,44.923 C42.250,45.003 43.144,45.580 43.915,46.451 C44.134,46.695 44.555,46.856 44.894,46.876 C45.999,46.943 46.988,47.696 47.022,48.786 C47.035,49.216 46.586,49.660 46.193,50.382 C46.980,50.198 47.542,50.036 48.114,49.947 C48.367,49.908 48.823,49.944 48.877,50.075 C49.129,50.680 49.558,50.552 50.066,50.660 C50.855,50.828 52.007,51.153 52.731,51.551 C55.119,48.817 57.054,44.973 56.922,41.068 C57.007,34.940 54.491,31.804 51.877,29.340 C52.259,28.586 52.502,28.005 52.632,27.656 C57.851,31.255 59.061,37.452 58.997,41.068 C58.824,50.765 50.382,59.000 40.646,59.000 ZM35.074,45.591 C35.071,45.584 35.071,45.579 35.067,45.571 L35.069,45.574 C35.087,45.573 35.099,45.576 35.116,45.575 C35.106,45.582 35.098,45.587 35.088,45.595 C35.083,45.594 35.079,45.592 35.074,45.591 ZM47.062,33.282 L46.582,32.626 C46.123,32.001 42.106,26.440 42.106,23.925 C42.106,21.207 44.328,18.996 47.062,18.996 C49.793,18.996 52.016,21.207 52.016,23.925 C52.016,26.440 47.999,32.001 47.541,32.626 L47.062,33.282 ZM49.524,23.665 C49.524,22.315 48.419,21.216 47.062,21.216 C45.703,21.216 44.598,22.315 44.598,23.665 C44.598,25.015 45.703,26.114 47.062,26.114 C48.419,26.114 49.524,25.015 49.524,23.665 Z" class="cls-1"/>
</svg>
