<svg xmlns="http://www.w3.org/2000/svg" xmlns:xlink="http://www.w3.org/1999/xlink" preserveAspectRatio="xMidYMid" width="80" height="80" viewBox="0 0 80 80">
  <defs>
    <style>
      .cls-1 {
        fill: #f17181;
        fill-rule: evenodd;
      }
    </style>
  </defs>
  <path d="M39.999,80.000 C17.907,80.000 -0.002,62.091 -0.002,40.000 C-0.002,17.908 17.907,-0.000 39.999,-0.000 C62.089,-0.000 79.998,17.908 79.998,40.000 C79.998,62.091 62.089,80.000 39.999,80.000 ZM39.999,1.000 C18.460,1.000 0.998,18.461 0.998,40.000 C0.998,61.539 18.460,79.000 39.999,79.000 C61.538,79.000 78.998,61.539 78.998,40.000 C78.998,18.461 61.538,1.000 39.999,1.000 ZM43.110,52.686 L58.264,52.686 L58.264,50.257 L45.653,50.257 L56.851,35.050 C58.639,35.050 59.997,36.615 59.997,38.552 L59.997,58.008 L43.110,58.008 L43.110,52.686 ZM49.785,33.626 C47.293,33.626 45.159,31.700 45.159,28.949 L42.871,28.949 L44.820,26.477 L54.499,26.477 L54.499,28.858 C54.499,31.700 52.185,33.626 49.785,33.626 ZM42.402,21.991 L54.456,21.991 L54.456,25.401 L44.727,25.401 L42.402,21.991 ZM54.096,35.050 L43.103,49.797 L43.103,40.570 L34.401,51.243 C32.660,53.639 28.966,51.026 30.856,48.479 L40.018,36.395 C40.638,35.529 41.635,35.059 42.872,35.059 L54.096,35.050 ZM40.807,55.816 C40.807,56.921 40.096,58.004 38.753,58.004 L25.526,58.004 C24.184,58.004 23.465,56.900 23.465,55.793 L23.465,52.687 L22.123,52.687 C21.048,52.687 19.999,51.950 19.999,50.567 L20.000,50.567 L20.000,37.107 C20.000,35.724 21.073,34.987 22.144,34.987 L23.465,34.987 L23.465,52.685 L40.807,52.685 L40.807,55.816 Z" class="cls-1"/>
</svg>
