<svg xmlns="http://www.w3.org/2000/svg" xmlns:xlink="http://www.w3.org/1999/xlink" preserveAspectRatio="xMidYMid" width="80" height="80" viewBox="0 0 80 80">
  <defs>
    <style>
      .cls-1 {
        fill: #12c8cc;
        fill-rule: evenodd;
      }
    </style>
  </defs>
  <path d="M39.999,80.000 C17.907,80.000 -0.002,62.091 -0.002,40.000 C-0.002,17.908 17.907,-0.000 39.999,-0.000 C62.089,-0.000 79.998,17.908 79.998,40.000 C79.998,62.091 62.089,80.000 39.999,80.000 ZM39.999,1.000 C18.459,1.000 0.998,18.461 0.998,40.000 C0.998,61.539 18.459,79.000 39.999,79.000 C61.537,79.000 78.998,61.539 78.998,40.000 C78.998,18.461 61.537,1.000 39.999,1.000 ZM54.870,60.303 L49.677,55.258 C49.318,54.909 49.096,54.476 49.012,54.024 C48.794,53.951 48.590,53.835 48.416,53.667 C48.231,53.489 48.110,53.275 48.037,53.049 C45.528,54.389 42.649,55.154 39.589,55.154 C29.894,55.154 22.006,47.494 22.006,38.078 C22.006,28.661 29.894,21.001 39.589,21.001 C49.285,21.001 57.172,28.661 57.172,38.078 C57.172,43.072 54.953,47.572 51.422,50.697 C51.431,50.705 51.440,50.711 51.451,50.720 C51.623,50.888 51.742,51.087 51.817,51.298 C52.283,51.380 52.729,51.595 53.088,51.944 L58.282,56.989 C59.222,57.902 59.222,59.389 58.281,60.303 C57.341,61.217 55.810,61.217 54.870,60.303 ZM54.830,38.078 C54.830,29.916 47.993,23.276 39.589,23.276 C31.185,23.276 24.348,29.916 24.348,38.078 C24.348,46.239 31.185,52.879 39.589,52.879 C47.993,52.879 54.830,46.239 54.830,38.078 ZM39.445,46.571 C32.419,46.571 27.001,38.611 26.774,38.272 L26.287,37.546 L26.774,36.820 C27.001,36.481 32.419,28.521 39.445,28.521 C46.472,28.521 51.890,36.481 52.118,36.820 L52.605,37.546 L52.118,38.272 C51.890,38.611 46.472,46.571 39.445,46.571 ZM39.445,31.183 C34.969,31.183 31.004,35.736 29.606,37.544 C31.007,39.353 34.984,43.909 39.445,43.909 C43.922,43.909 47.887,39.356 49.286,37.548 C47.884,35.739 43.906,31.183 39.445,31.183 ZM39.445,43.509 C36.060,43.509 33.306,40.834 33.306,37.546 C33.306,34.257 36.060,31.582 39.445,31.582 C42.831,31.582 45.585,34.257 45.585,37.546 C45.585,40.834 42.831,43.509 39.445,43.509 ZM39.445,34.244 C37.570,34.244 36.047,35.725 36.047,37.546 C36.047,39.367 37.570,40.848 39.445,40.848 C41.320,40.848 42.845,39.367 42.845,37.546 C42.845,35.725 41.320,34.244 39.445,34.244 ZM39.445,40.045 C38.025,40.045 36.873,38.926 36.873,37.546 C36.873,37.022 37.039,36.536 37.323,36.135 C37.325,36.623 37.734,37.019 38.238,37.019 C38.744,37.019 39.154,36.621 39.154,36.130 C39.154,35.697 38.836,35.337 38.414,35.258 C38.730,35.123 39.078,35.047 39.445,35.047 C40.866,35.047 42.018,36.166 42.018,37.546 C42.018,38.926 40.866,40.045 39.445,40.045 Z" class="cls-1"/>
</svg>
