<svg xmlns="http://www.w3.org/2000/svg" xmlns:xlink="http://www.w3.org/1999/xlink" preserveAspectRatio="xMidYMid" width="80" height="80" viewBox="0 0 80 80">
  <defs>
    <style>
      .cls-1 {
        fill: #12c8cc;
        fill-rule: evenodd;
      }
    </style>
  </defs>
  <path d="M39.999,80.000 C17.907,80.000 -0.002,62.091 -0.002,40.000 C-0.002,17.908 17.907,-0.000 39.999,-0.000 C62.089,-0.000 79.998,17.908 79.998,40.000 C79.998,62.091 62.089,80.000 39.999,80.000 ZM39.999,1.000 C18.460,1.000 0.998,18.461 0.998,40.000 C0.998,61.539 18.460,79.000 39.999,79.000 C61.538,79.000 78.998,61.539 78.998,40.000 C78.998,18.461 61.538,1.000 39.999,1.000 ZM58.941,43.692 C58.354,43.692 57.881,43.211 57.881,42.616 C57.881,42.613 57.881,42.613 57.881,42.609 L57.878,42.609 L57.878,36.781 L57.192,36.781 L57.194,51.657 C57.194,52.453 56.554,53.098 55.765,53.098 C54.988,53.098 54.353,52.466 54.345,51.670 L54.336,51.660 L54.336,43.291 L53.690,43.291 L53.695,51.651 C53.695,52.453 53.052,53.105 52.262,53.105 C51.469,53.105 50.830,52.453 50.830,51.651 L50.835,36.811 L50.269,36.811 L50.269,33.748 C50.630,33.654 51.043,33.591 51.531,33.581 L52.859,33.581 L54.025,35.527 L55.191,33.581 L56.572,33.581 C56.572,33.581 59.768,33.544 59.998,36.343 L59.998,42.609 C59.998,42.613 59.998,42.613 59.998,42.616 C59.998,43.211 59.528,43.692 58.941,43.692 ZM54.174,32.761 C52.786,32.761 51.659,31.618 51.659,30.210 C51.659,28.802 52.786,27.662 54.174,27.662 C55.560,27.662 56.688,28.802 56.688,30.210 C56.688,31.618 55.560,32.761 54.174,32.761 ZM47.813,44.114 C46.929,44.114 46.217,43.385 46.217,42.492 C46.217,42.489 46.217,42.485 46.217,42.478 L46.213,42.478 L46.213,33.715 L45.175,33.711 L45.185,57.813 C45.185,59.020 44.224,59.990 43.040,59.990 C41.865,59.990 40.911,59.030 40.896,57.843 L40.883,57.827 L40.883,43.505 L39.919,43.505 L39.922,57.803 C39.922,59.013 38.954,59.990 37.766,59.990 C36.568,59.990 35.612,59.013 35.612,57.803 L35.621,33.755 L34.620,33.755 L34.620,42.478 L34.616,42.478 C34.620,42.502 34.620,42.522 34.620,42.552 C34.620,43.445 33.912,44.170 33.028,44.170 C32.147,44.170 31.431,43.445 31.431,42.552 C31.431,42.522 31.435,42.502 31.435,42.478 L31.430,42.478 L31.431,33.042 C31.431,33.042 31.237,29.006 36.667,28.906 L38.662,28.906 L40.417,31.822 L42.173,28.906 L44.249,28.906 C44.249,28.906 49.058,28.839 49.405,33.042 L49.405,42.478 C49.405,42.485 49.405,42.489 49.405,42.492 C49.405,43.385 48.689,44.114 47.813,44.114 ZM40.642,27.662 C38.555,27.662 36.862,25.947 36.862,23.830 C36.862,21.717 38.555,19.995 40.642,19.995 C42.730,19.995 44.424,21.717 44.424,23.830 C44.424,25.947 42.730,27.662 40.642,27.662 ZM30.165,51.530 C30.165,52.339 29.528,52.985 28.735,52.985 C27.945,52.985 27.299,52.339 27.299,51.530 L27.306,43.167 L26.658,43.167 L26.658,51.544 L26.651,51.553 C26.643,52.346 26.009,52.981 25.228,52.981 C24.441,52.981 23.801,52.339 23.801,51.540 L23.807,36.660 L23.118,36.660 L23.118,42.492 L23.114,42.492 C23.114,42.492 23.114,42.499 23.114,42.502 C23.114,43.094 22.640,43.576 22.055,43.576 C21.470,43.576 20.997,43.094 20.997,42.502 C20.997,42.499 20.997,42.495 20.997,42.495 L20.997,36.226 C21.228,33.427 24.425,33.467 24.425,33.467 L25.806,33.467 L26.970,35.406 L28.137,33.467 L29.465,33.467 C29.951,33.477 30.364,33.534 30.723,33.627 L30.723,36.687 L30.161,36.687 L30.165,51.530 ZM26.822,32.641 C25.432,32.641 24.306,31.501 24.306,30.096 C24.306,28.685 25.432,27.545 26.822,27.545 C28.207,27.545 29.336,28.685 29.336,30.096 C29.336,31.501 28.207,32.641 26.822,32.641 Z" class="cls-1"/>
</svg>
