<svg xmlns="http://www.w3.org/2000/svg" xmlns:xlink="http://www.w3.org/1999/xlink" preserveAspectRatio="xMidYMid" width="80" height="80" viewBox="0 0 80 80">
  <defs>
    <style>
      .cls-1 {
        fill: #ef944a;
        fill-rule: evenodd;
      }
    </style>
  </defs>
  <path d="M39.999,80.000 C17.907,80.000 -0.002,62.091 -0.002,40.000 C-0.002,17.908 17.907,-0.000 39.999,-0.000 C62.089,-0.000 79.998,17.908 79.998,40.000 C79.998,62.091 62.089,80.000 39.999,80.000 ZM39.999,1.000 C18.459,1.000 0.998,18.461 0.998,40.000 C0.998,61.539 18.459,79.000 39.999,79.000 C61.537,79.000 78.998,61.539 78.998,40.000 C78.998,18.461 61.537,1.000 39.999,1.000 ZM47.580,50.561 L58.996,50.561 L58.996,54.321 L45.495,54.321 C46.366,53.185 47.070,51.921 47.580,50.561 ZM48.509,45.479 C48.509,45.440 48.504,45.402 48.504,45.364 L58.996,45.364 L58.996,49.124 L48.031,49.124 C48.333,47.957 48.509,46.739 48.509,45.479 ZM48.436,44.135 C48.447,44.303 48.472,44.783 48.472,45.364 C48.472,53.446 41.874,59.999 33.736,59.999 C25.598,59.999 18.999,53.446 18.999,45.364 C18.999,37.281 25.598,30.728 33.736,30.728 C35.227,30.728 36.668,30.954 38.022,31.362 L38.022,30.146 L58.996,30.146 L58.996,33.906 L42.888,33.906 C43.445,34.346 43.966,34.825 44.454,35.340 L58.996,35.340 L58.996,39.103 L47.039,39.103 C47.260,39.565 47.459,40.038 47.633,40.525 L58.996,40.525 L58.996,44.286 L48.448,44.286 C48.442,44.218 48.439,44.171 48.436,44.135 ZM33.736,34.201 C27.540,34.201 22.496,39.207 22.496,45.364 C22.496,51.519 27.540,56.528 33.736,56.528 C39.935,56.528 44.976,51.519 44.976,45.364 C44.976,39.207 39.935,34.201 33.736,34.201 ZM34.002,44.076 C35.479,44.424 36.594,44.933 37.337,45.599 C38.072,46.273 38.452,47.131 38.452,48.136 C38.452,49.346 37.987,50.351 37.070,51.133 C36.419,51.687 35.612,52.044 34.666,52.196 L34.666,54.112 L32.590,54.112 L32.590,52.200 C31.650,52.035 30.812,51.646 30.083,51.039 C29.210,50.293 28.762,49.422 28.749,48.462 L28.790,47.935 L30.807,47.935 L30.812,48.131 C30.823,48.931 31.058,49.525 31.542,49.949 C32.023,50.378 32.718,50.597 33.608,50.597 C34.495,50.597 35.191,50.378 35.688,49.949 C36.172,49.525 36.410,48.940 36.410,48.171 C36.410,47.550 36.184,47.059 35.724,46.684 C35.244,46.300 34.404,45.969 33.230,45.688 C31.925,45.384 30.930,44.911 30.276,44.294 C29.604,43.674 29.263,42.865 29.263,41.905 C29.263,40.810 29.693,39.903 30.546,39.211 C31.124,38.738 31.816,38.430 32.590,38.287 L32.590,36.616 L34.666,36.616 L34.666,38.233 C35.589,38.363 36.365,38.689 36.977,39.198 C37.780,39.868 38.225,40.815 38.282,41.989 L38.298,42.199 L36.265,42.199 L36.244,42.025 C36.147,41.293 35.899,40.739 35.509,40.390 C35.114,40.047 34.534,39.868 33.781,39.868 C32.990,39.868 32.367,40.047 31.937,40.404 C31.507,40.757 31.294,41.239 31.294,41.882 C31.294,42.445 31.489,42.878 31.883,43.204 C32.283,43.544 32.995,43.834 34.002,44.076 ZM56.919,28.820 L35.945,28.820 L35.945,25.061 L56.919,25.061 L56.919,28.820 ZM38.022,19.996 L58.996,19.996 L58.996,23.756 L38.022,23.756 L38.022,19.996 Z" class="cls-1"/>
</svg>
