<svg xmlns="http://www.w3.org/2000/svg" xmlns:xlink="http://www.w3.org/1999/xlink" preserveAspectRatio="xMidYMid" width="80" height="80" viewBox="0 0 80 80">
  <defs>
    <style>
      .cls-1 {
        fill: #00acc1;
        fill-rule: evenodd;
      }
    </style>
  </defs>
  <path d="M39.999,80.000 C17.907,80.000 -0.002,62.091 -0.002,40.000 C-0.002,17.908 17.907,-0.000 39.999,-0.000 C62.089,-0.000 79.998,17.908 79.998,40.000 C79.998,62.091 62.089,80.000 39.999,80.000 ZM39.999,1.000 C18.460,1.000 0.998,18.461 0.998,40.000 C0.998,61.539 18.460,79.000 39.999,79.000 C61.538,79.000 78.998,61.539 78.998,40.000 C78.998,18.461 61.538,1.000 39.999,1.000 ZM40.594,19.995 L58.993,29.131 L22.003,29.131 L40.594,19.995 ZM30.401,32.311 L30.401,49.195 L24.475,49.195 L24.475,32.311 L30.401,32.311 ZM23.628,51.759 L32.283,51.759 C33.056,51.759 33.683,52.354 33.683,53.089 L33.683,55.417 C33.683,56.151 33.056,56.746 32.283,56.746 L23.628,56.746 C22.857,56.746 22.229,56.151 22.229,55.417 L22.229,53.089 C22.229,52.354 22.857,51.759 23.628,51.759 ZM42.964,32.311 L42.964,49.195 L37.038,49.195 L37.038,32.311 L42.964,32.311 ZM35.801,51.801 L44.699,51.801 C45.185,51.801 45.580,52.046 45.580,52.349 C45.580,52.651 45.185,52.896 44.699,52.896 L35.801,52.896 C35.315,52.896 34.924,52.651 34.924,52.349 C34.924,52.046 35.315,51.801 35.801,51.801 ZM35.801,55.355 L44.699,55.355 C45.185,55.355 45.580,55.600 45.580,55.903 C45.580,56.205 45.185,56.450 44.699,56.450 L35.801,56.450 C35.315,56.450 34.924,56.205 34.924,55.903 C34.924,55.600 35.315,55.355 35.801,55.355 ZM35.801,58.908 L44.699,58.908 C45.185,58.908 45.580,59.154 45.580,59.457 C45.580,59.759 45.185,60.004 44.699,60.004 L35.801,60.004 C35.315,60.004 34.924,59.759 34.924,59.457 C34.924,59.154 35.315,58.908 35.801,58.908 ZM55.531,32.311 L55.531,49.195 L49.603,49.195 L49.603,32.311 L55.531,32.311 ZM48.433,51.759 L57.086,51.759 C57.858,51.759 58.485,52.354 58.485,53.089 L58.485,55.417 C58.485,56.151 57.858,56.746 57.086,56.746 L48.433,56.746 C47.660,56.746 47.032,56.151 47.032,55.417 L47.032,53.089 C47.032,52.354 47.660,51.759 48.433,51.759 Z" class="cls-1"/>
</svg>
