<svg xmlns="http://www.w3.org/2000/svg" xmlns:xlink="http://www.w3.org/1999/xlink" preserveAspectRatio="xMidYMid" width="80" height="80" viewBox="0 0 80 80">
  <defs>
    <style>
      .cls-1 {
        fill: #9cbbff;
        fill-rule: evenodd;
      }
    </style>
  </defs>
  <path d="M39.999,80.000 C17.907,80.000 -0.002,62.091 -0.002,40.000 C-0.002,17.908 17.907,-0.000 39.999,-0.000 C62.089,-0.000 79.998,17.908 79.998,40.000 C79.998,62.091 62.089,80.000 39.999,80.000 ZM39.999,1.000 C18.459,1.000 0.998,18.461 0.998,40.000 C0.998,61.539 18.459,79.000 39.999,79.000 C61.537,79.000 78.998,61.539 78.998,40.000 C78.998,18.461 61.537,1.000 39.999,1.000 ZM53.458,60.035 C52.881,59.232 49.069,53.219 49.069,53.219 L48.940,45.064 C48.940,45.064 48.690,45.852 48.291,47.801 C47.897,49.750 47.641,50.877 47.641,50.877 L35.980,50.866 L48.913,34.559 C48.978,34.477 53.828,34.123 53.774,37.568 C53.741,39.678 54.006,60.241 54.006,60.241 C54.006,60.241 54.038,60.836 53.458,60.035 ZM45.667,23.423 L46.369,24.886 L33.639,24.868 L34.356,23.397 L33.818,23.396 L30.274,20.494 C30.274,20.494 35.191,19.006 40.084,19.001 C44.934,18.995 49.759,20.472 49.759,20.472 L46.234,23.424 L45.667,23.423 ZM39.999,20.476 C39.300,20.476 38.735,20.969 38.735,21.576 C38.735,22.183 39.300,22.675 39.999,22.675 C40.696,22.675 41.262,22.183 41.262,21.576 C41.262,20.969 40.696,20.476 39.999,20.476 ZM36.941,32.252 C34.483,30.488 34.629,28.088 34.609,25.642 L45.444,25.642 C45.419,28.277 45.527,31.215 42.086,32.580 C39.945,33.428 37.793,32.865 36.941,32.252 ZM33.752,50.877 L32.100,50.875 C31.937,50.875 31.321,45.940 31.103,45.161 C30.965,44.672 31.255,52.758 30.974,53.219 L27.188,59.444 C25.866,61.614 26.156,59.940 26.156,59.940 L26.010,38.378 C25.854,36.333 26.992,34.583 29.931,34.577 L46.483,34.541 L33.752,50.877 ZM32.480,52.817 L47.525,52.817 L52.768,61.006 L28.158,61.009 C27.895,61.009 27.843,60.609 28.166,60.067 L32.480,52.817 Z" class="cls-1"/>
</svg>
