<svg xmlns="http://www.w3.org/2000/svg" xmlns:xlink="http://www.w3.org/1999/xlink" preserveAspectRatio="xMidYMid" width="80" height="80" viewBox="0 0 80 80">
  <defs>
    <style>
      .cls-1 {
        fill: #3789c9;
        fill-rule: evenodd;
      }
    </style>
  </defs>
  <path d="M39.999,80.000 C17.907,80.000 -0.002,62.091 -0.002,40.000 C-0.002,17.908 17.907,-0.000 39.999,-0.000 C62.089,-0.000 79.998,17.908 79.998,40.000 C79.998,62.091 62.089,80.000 39.999,80.000 ZM39.999,1.000 C18.460,1.000 0.998,18.461 0.998,40.000 C0.998,61.539 18.460,79.000 39.999,79.000 C61.538,79.000 78.998,61.539 78.998,40.000 C78.998,18.461 61.538,1.000 39.999,1.000 ZM22.000,53.957 L58.988,53.957 L58.988,58.001 L22.000,58.001 L22.000,53.957 ZM47.956,49.579 L47.956,53.354 L43.525,53.354 L43.525,52.707 C45.283,52.077 46.812,50.987 47.956,49.579 ZM37.115,53.354 L32.689,53.354 L32.689,50.174 C33.884,51.426 35.401,52.379 37.115,52.893 L37.115,53.354 ZM40.238,34.679 C45.228,34.679 49.277,38.645 49.277,43.537 C49.277,48.432 45.228,52.398 40.238,52.398 C35.247,52.398 31.201,48.432 31.201,43.537 C31.201,38.645 35.247,34.679 40.238,34.679 ZM40.238,51.337 C44.631,51.337 48.193,47.842 48.193,43.537 C48.193,39.229 44.631,35.740 40.238,35.740 C35.843,35.740 32.283,39.229 32.283,43.537 C32.283,47.842 35.843,51.337 40.238,51.337 ZM37.750,38.753 L39.816,42.544 C39.983,42.856 40.120,43.133 40.227,43.375 C40.341,43.136 40.489,42.837 40.679,42.476 L42.631,38.753 L44.431,38.753 L41.605,43.876 L43.894,43.876 L43.894,45.206 L41.018,45.206 L41.018,45.974 L43.894,45.974 L43.894,47.236 L41.018,47.236 L41.018,49.579 L39.489,49.579 L39.489,47.236 L36.590,47.236 L36.590,45.974 L39.489,45.974 L39.489,45.206 L36.590,45.206 L36.590,43.876 L38.883,43.876 L36.042,38.753 L37.750,38.753 ZM57.612,53.354 L53.182,53.354 L53.182,33.265 L47.956,33.265 L47.956,37.261 C46.812,35.853 45.283,34.762 43.525,34.130 L43.525,33.265 L37.115,33.265 L37.115,33.947 C35.401,34.458 33.884,35.414 32.689,36.666 L32.689,33.265 L27.801,33.265 L27.801,53.354 L23.377,53.354 L23.377,33.265 L22.000,33.265 L22.000,29.959 L58.988,29.959 L58.988,33.265 L57.612,33.265 L57.612,53.354 ZM40.231,17.999 L58.341,29.375 L22.643,29.375 L40.231,17.999 Z" class="cls-1"/>
</svg>
