<svg xmlns="http://www.w3.org/2000/svg" xmlns:xlink="http://www.w3.org/1999/xlink" preserveAspectRatio="xMidYMid" width="80" height="80" viewBox="0 0 80 80">
  <defs>
    <style>
      .cls-1 {
        fill: #9cbbff;
        fill-rule: evenodd;
      }
    </style>
  </defs>
  <path d="M39.999,80.000 C17.907,80.000 -0.002,62.091 -0.002,40.000 C-0.002,17.908 17.907,-0.000 39.999,-0.000 C62.089,-0.000 79.998,17.908 79.998,40.000 C79.998,62.091 62.089,80.000 39.999,80.000 ZM39.999,1.000 C18.460,1.000 0.998,18.461 0.998,40.000 C0.998,61.539 18.460,79.000 39.999,79.000 C61.538,79.000 78.998,61.539 78.998,40.000 C78.998,18.461 61.538,1.000 39.999,1.000 ZM55.061,60.009 L42.512,60.009 L42.512,47.146 L58.000,47.146 L58.000,57.091 C58.000,58.696 56.678,60.009 55.061,60.009 ZM42.512,32.105 C41.974,31.960 41.088,31.729 40.708,31.377 C40.682,31.352 40.661,31.321 40.635,31.295 C40.609,31.321 40.590,31.352 40.562,31.377 C40.183,31.729 39.838,31.960 39.301,32.105 L39.301,43.959 L22.997,43.959 L22.997,33.745 C22.997,32.139 24.321,30.826 25.937,30.826 L32.761,30.826 C31.993,30.398 31.273,29.901 30.673,29.345 C27.945,26.819 27.451,23.180 29.572,21.214 C30.462,20.393 31.668,19.995 32.972,19.995 C34.782,19.995 36.776,20.762 38.363,22.230 C39.285,23.084 40.072,24.182 40.635,25.336 C41.199,24.182 41.985,23.084 42.907,22.230 C44.494,20.762 46.489,19.995 48.299,19.995 C49.601,19.995 50.808,20.393 51.698,21.214 C53.821,23.180 53.327,26.819 50.599,29.345 C49.997,29.901 49.277,30.398 48.508,30.826 L55.061,30.826 C56.678,30.826 58.000,32.139 58.000,33.745 L58.000,43.959 L42.512,43.959 L42.512,32.105 ZM36.317,24.408 C35.346,23.510 34.095,22.973 32.972,22.973 C32.637,22.973 32.015,23.027 31.618,23.394 C31.529,23.476 31.254,23.730 31.254,24.356 C31.254,25.059 31.639,26.167 32.718,27.166 C34.037,28.386 36.215,29.308 37.781,29.308 C38.333,29.308 38.529,29.187 38.530,29.185 C38.786,28.678 38.157,26.110 36.317,24.408 ZM42.784,29.228 C42.784,29.228 42.785,29.227 42.787,29.227 C42.824,29.227 43.036,29.308 43.488,29.308 C45.055,29.308 47.234,28.386 48.553,27.166 C49.633,26.167 50.016,25.061 50.016,24.358 C50.016,23.731 49.742,23.478 49.652,23.394 C49.255,23.027 48.635,22.973 48.299,22.973 C47.175,22.973 45.925,23.510 44.952,24.408 C43.127,26.098 42.494,28.641 42.784,29.228 ZM39.301,60.009 L25.937,60.009 C24.321,60.009 22.997,58.696 22.997,57.091 L22.997,47.146 L39.301,47.146 L39.301,60.009 Z" class="cls-1"/>
</svg>
