<svg xmlns="http://www.w3.org/2000/svg" xmlns:xlink="http://www.w3.org/1999/xlink" preserveAspectRatio="xMidYMid" width="80" height="80" viewBox="0 0 80 80">
  <defs>
    <style>
      .cls-1 {
        fill: #f17181;
        fill-rule: evenodd;
      }
    </style>
  </defs>
  <path d="M39.999,80.000 C17.907,80.000 -0.002,62.091 -0.002,40.000 C-0.002,17.908 17.907,-0.000 39.999,-0.000 C62.089,-0.000 79.998,17.908 79.998,40.000 C79.998,62.091 62.089,80.000 39.999,80.000 ZM39.999,1.000 C18.459,1.000 0.998,18.461 0.998,40.000 C0.998,61.539 18.459,79.000 39.999,79.000 C61.537,79.000 78.998,61.539 78.998,40.000 C78.998,18.461 61.537,1.000 39.999,1.000 ZM59.047,42.934 L59.663,42.934 L59.663,47.641 L59.663,50.141 L57.633,50.141 L35.373,50.141 L33.340,50.141 L33.340,47.953 L33.340,42.934 L33.959,42.934 L33.959,41.368 L37.245,41.368 L38.615,39.117 C38.367,39.083 38.125,38.988 37.936,38.793 C37.933,38.786 37.930,38.786 37.930,38.786 L33.065,34.250 L32.301,34.250 L32.306,54.832 C32.306,55.729 31.599,56.451 30.725,56.451 C29.856,56.451 29.151,55.736 29.141,54.847 L29.131,54.832 L29.131,41.569 L28.418,41.569 L28.418,54.817 C28.418,55.725 27.704,56.454 26.827,56.454 C25.947,56.454 25.238,55.725 25.238,54.817 L25.243,34.280 L24.504,34.280 L24.504,40.806 L24.502,40.806 C24.502,40.825 24.504,40.843 24.504,40.858 C24.504,41.528 23.980,42.071 23.329,42.071 C22.677,42.071 22.152,41.528 22.152,40.858 C22.152,40.843 22.152,40.825 22.152,40.806 L22.149,40.806 L22.152,33.755 C22.152,33.755 22.005,30.731 26.017,30.652 L31.615,30.652 C31.615,30.652 33.541,30.805 35.011,32.364 L39.596,37.071 C39.599,37.078 39.603,37.081 39.603,37.081 C39.660,37.140 39.689,37.214 39.733,37.282 L41.336,34.648 L51.665,34.648 L55.761,41.368 L57.314,41.368 L57.314,38.462 L62.003,38.462 L62.003,41.368 L59.047,41.368 L59.047,42.934 ZM51.065,35.902 L41.941,35.902 L38.996,40.743 L54.012,40.743 L51.065,35.902 ZM34.576,44.299 L34.576,47.953 L34.576,48.771 L35.373,48.771 L57.633,48.771 L58.429,48.771 L58.429,47.641 L58.429,44.299 L34.576,44.299 ZM49.503,44.757 L57.750,44.757 L57.750,48.407 L51.975,48.407 L49.503,44.757 ZM35.291,48.362 L35.291,44.720 L43.540,44.720 L41.063,48.362 L35.291,48.362 ZM28.952,29.734 C27.413,29.734 26.161,28.443 26.161,26.865 C26.161,25.284 27.413,24.000 28.952,24.000 C30.492,24.000 31.744,25.284 31.744,26.865 C31.744,28.443 30.492,29.734 28.952,29.734 ZM37.564,56.603 L33.340,56.603 L33.340,51.015 L37.564,51.015 L37.564,56.603 ZM54.247,53.281 L39.577,53.281 L39.577,50.803 L54.247,50.803 L54.247,53.281 ZM59.656,57.005 L55.841,57.005 L55.841,51.413 L59.656,51.413 L59.656,57.005 Z" class="cls-1"/>
</svg>
