<svg xmlns="http://www.w3.org/2000/svg" xmlns:xlink="http://www.w3.org/1999/xlink" preserveAspectRatio="xMidYMid" width="62" height="66" viewBox="0 0 62 66">
  <defs>
    <style>
      .cls-1 {
        fill: #fff;
        fill-rule: evenodd;
      }
    </style>
  </defs>
  <path d="M46.394,0.143 C50.653,1.330 50.521,5.644 51.376,8.821 C51.604,9.672 52.699,12.350 50.971,12.642 C50.781,12.630 50.589,12.619 50.398,12.607 C48.622,10.477 48.588,3.994 46.705,2.772 C44.547,1.372 39.344,3.522 38.131,4.325 C37.408,4.802 36.798,5.747 35.722,5.553 C35.523,5.339 35.324,5.124 35.124,4.910 C35.106,3.299 36.221,3.018 37.120,2.358 C38.879,1.069 41.145,0.249 43.456,0.013 C44.435,0.056 45.415,0.100 46.394,0.143 ZM16.848,49.224 C16.141,51.917 18.690,55.992 20.524,57.251 C20.518,57.271 20.512,57.292 20.507,57.312 C18.654,57.094 16.275,57.216 14.101,56.163 C12.467,55.373 10.905,54.807 9.551,53.890 C4.282,50.318 1.014,44.933 0.197,38.784 C-0.475,33.715 0.451,27.040 3.876,22.367 C6.909,18.229 10.757,15.393 15.287,14.035 C16.586,13.772 17.888,13.509 19.188,13.246 C19.797,13.225 20.407,13.204 21.017,13.183 C21.507,12.659 21.996,12.134 22.483,11.610 C24.199,9.912 25.919,8.213 27.636,6.514 C28.317,5.849 29.025,4.656 29.905,4.377 C31.244,3.951 34.213,4.831 35.614,5.721 C36.777,6.732 37.944,7.743 39.110,8.753 C39.033,8.797 38.957,8.842 38.880,8.886 C38.258,9.621 37.163,9.801 36.575,10.679 C35.032,13.786 33.484,16.895 31.941,20.002 C30.274,20.073 28.520,21.450 27.364,22.530 C25.139,20.715 21.664,20.476 19.241,20.808 C13.830,21.549 7.244,26.190 7.001,34.506 C6.822,40.587 9.984,47.245 16.848,49.224 ZM45.597,11.729 C49.688,12.919 55.496,14.160 56.553,17.022 C56.657,21.348 56.757,25.676 56.860,30.002 C57.173,30.874 58.504,32.122 58.998,33.036 C60.561,35.921 61.586,39.041 61.915,42.642 C63.165,56.283 51.957,64.873 42.965,65.921 C40.866,66.165 38.685,65.821 36.276,65.557 C33.031,65.201 29.541,62.756 27.807,61.329 C21.289,55.968 15.847,43.861 22.545,33.000 C24.664,29.561 27.136,27.415 29.947,25.360 C30.929,24.847 31.912,24.335 32.893,23.822 C33.320,23.680 33.749,23.539 34.174,23.397 C34.523,22.676 34.872,21.955 35.223,21.234 C36.307,19.172 37.392,17.108 38.479,15.046 C38.983,14.134 39.300,12.845 40.011,12.291 C41.465,11.158 43.635,11.998 45.597,11.729 ZM30.274,11.497 C29.638,12.556 29.000,13.616 28.363,14.676 C28.404,14.687 28.443,14.699 28.484,14.711 C29.443,15.371 30.403,16.033 31.364,16.693 C32.022,15.640 32.676,14.586 33.333,13.532 C32.313,12.854 31.294,12.176 30.274,11.497 ZM41.854,18.510 C41.566,19.560 41.277,20.611 40.987,21.661 C42.005,21.960 43.021,22.259 44.038,22.558 C44.333,21.487 44.626,20.416 44.923,19.345 C43.901,19.067 42.878,18.789 41.854,18.510 ZM44.390,29.273 C43.918,29.179 43.448,29.086 42.978,28.992 C41.887,28.961 40.797,28.929 39.707,28.898 C35.283,29.330 31.550,31.458 28.833,35.050 C23.221,42.474 26.601,51.853 31.429,55.917 C32.809,57.077 34.953,58.810 37.533,59.114 C43.938,59.869 48.686,58.398 52.207,53.946 C59.553,44.664 54.453,32.180 44.390,29.273 ZM40.652,32.983 C43.376,33.736 42.160,36.671 41.864,39.149 C41.295,43.911 38.123,49.529 35.740,51.774 C33.458,51.374 31.191,48.130 31.443,46.236 C32.907,44.652 34.499,41.583 34.851,38.556 C34.955,37.650 34.924,34.802 35.314,34.285 C36.430,32.808 38.828,33.255 40.652,32.983 Z" class="cls-1"/>
</svg>
