<svg xmlns="http://www.w3.org/2000/svg" xmlns:xlink="http://www.w3.org/1999/xlink" preserveAspectRatio="xMidYMid" width="70" height="53" viewBox="0 0 70 53">
  <defs>
    <style>
      .cls-1 {
        fill: #fff;
        fill-rule: evenodd;
      }
    </style>
  </defs>
  <path d="M14.082,10.277 L18.458,3.273 L18.466,3.273 C19.721,1.315 21.905,0.011 24.408,0.011 C26.914,0.011 29.106,1.319 30.359,3.282 L39.640,3.282 C40.889,1.319 43.081,0.011 45.587,0.011 C48.092,0.011 50.274,1.315 51.529,3.273 L51.539,3.273 L55.905,10.268 C54.514,9.785 53.029,9.531 51.513,9.531 C46.876,9.531 42.596,11.917 40.158,15.804 L29.837,15.804 C27.399,11.917 23.121,9.531 18.484,9.531 C16.961,9.531 15.479,9.794 14.082,10.277 L14.082,10.277 ZM69.989,37.308 C69.989,45.975 62.945,52.996 54.264,52.996 C48.721,52.996 43.870,50.127 41.074,45.805 C39.686,47.641 37.486,48.832 34.996,48.832 C32.513,48.832 30.311,47.641 28.922,45.805 C26.126,50.127 21.274,52.996 15.731,52.996 C7.051,52.996 0.006,45.975 0.006,37.308 C0.006,34.194 0.930,31.299 2.505,28.861 L2.488,28.852 L10.896,15.385 C12.888,13.378 15.595,12.214 18.484,12.214 C22.408,12.214 26.010,14.346 27.887,17.783 L28.265,18.485 L41.729,18.485 L42.109,17.783 C43.984,14.346 47.588,12.214 51.513,12.214 C54.370,12.214 57.059,13.335 59.060,15.315 L67.508,28.852 L67.486,28.861 C69.067,31.299 69.989,34.194 69.989,37.308 L69.989,37.308 ZM25.527,37.308 C25.527,31.927 21.144,27.557 15.731,27.557 C10.319,27.557 5.939,31.927 5.939,37.308 C5.939,42.703 10.319,47.073 15.731,47.073 C21.144,47.073 25.527,42.703 25.527,37.308 L25.527,37.308 ZM38.582,41.243 C38.582,39.267 36.979,37.667 34.996,37.667 C33.019,37.667 31.412,39.267 31.412,41.243 C31.412,43.214 33.019,44.815 34.996,44.815 C36.979,44.815 38.582,43.214 38.582,41.243 L38.582,41.243 ZM64.058,37.308 C64.058,31.927 59.677,27.557 54.264,27.557 C48.851,27.557 44.468,31.927 44.468,37.308 C44.468,42.703 48.851,47.073 54.264,47.073 C59.677,47.073 64.058,42.703 64.058,37.308 L64.058,37.308 Z" class="cls-1"/>
</svg>
