<svg xmlns="http://www.w3.org/2000/svg" xmlns:xlink="http://www.w3.org/1999/xlink" preserveAspectRatio="xMidYMid" width="80" height="80" viewBox="0 0 80 80">
  <defs>
    <style>
      .cls-1 {
        fill: #9cbbff;
        fill-rule: evenodd;
      }
    </style>
  </defs>
  <path d="M39.997,80.000 C17.906,80.000 -0.002,62.091 -0.002,40.000 C-0.002,17.908 17.906,-0.000 39.997,-0.000 C62.089,-0.000 79.997,17.908 79.997,40.000 C79.997,62.091 62.089,80.000 39.997,80.000 ZM39.997,1.000 C18.459,1.000 0.997,18.461 0.997,40.000 C0.997,61.539 18.459,79.000 39.997,79.000 C61.537,79.000 78.997,61.539 78.997,40.000 C78.997,18.461 61.537,1.000 39.997,1.000 ZM56.674,39.874 L52.946,36.113 L52.283,32.757 L54.292,30.731 L57.162,31.297 L61.446,35.618 L62.008,38.515 L59.999,40.542 L56.674,39.874 ZM58.918,33.846 C58.198,33.119 57.272,32.874 56.850,33.297 C56.429,33.722 56.675,34.656 57.396,35.384 C58.118,36.111 59.044,36.358 59.463,35.934 C59.886,35.508 59.642,34.574 58.918,33.846 ZM51.204,22.913 L34.696,22.913 L34.696,33.758 L23.902,33.758 L23.902,56.086 L51.204,56.086 L51.204,51.620 L53.109,49.706 L53.109,58.000 L21.997,58.000 L21.997,33.173 L34.065,20.997 L53.109,21.000 L53.109,29.293 L51.204,31.207 L51.204,22.913 ZM43.113,42.007 L50.825,34.229 L51.396,37.124 L55.670,41.436 L58.539,42.012 L50.829,49.790 L42.576,51.733 C41.003,52.103 40.761,52.192 41.150,50.513 L43.113,42.007 ZM44.263,50.039 L47.854,49.177 L47.854,48.751 L44.147,45.011 L43.723,45.011 L42.864,48.649 C43.670,48.740 44.086,49.256 44.263,50.039 ZM27.703,38.219 L41.041,38.219 L41.041,40.766 L27.703,40.766 L27.703,38.219 ZM27.715,43.955 L37.242,43.955 L37.242,46.523 L27.715,46.523 L27.715,43.955 ZM27.709,49.706 L35.319,49.706 L35.319,52.252 L27.709,52.252 L27.709,49.706 Z" class="cls-1"/>
</svg>
