<?xml version="1.0" encoding="utf-8"?>
<!-- Generator: Adobe Illustrator 18.0.0, SVG Export Plug-In . SVG Version: 6.00 Build 0)  -->
<!DOCTYPE svg PUBLIC "-//W3C//DTD SVG 1.1//EN" "http://www.w3.org/Graphics/SVG/1.1/DTD/svg11.dtd">
<svg version="1.1" id="图层_1" xmlns="http://www.w3.org/2000/svg" xmlns:xlink="http://www.w3.org/1999/xlink" x="0px" y="0px"
	 viewBox="0 0 200 200" enable-background="new 0 0 200 200" xml:space="preserve">
<g>
	<g>
		<path fill-rule="evenodd" clip-rule="evenodd" fill="#20CCAB" d="M121.6,13.1c3.7-2.4,19.6-8.9,26.2-4.7
			c5.8,3.7,5.9,23.3,11.3,29.8c0.6,0,1.2,0.1,1.8,0.1c5.3-0.9,1.9-9,1.2-11.6c-2.6-9.6-2.2-22.7-15.2-26.3c-3-0.1-6-0.3-9-0.4
			c-7.1,0.7-14,3.2-19.4,7.1c-2.7,2-6.2,2.9-6.1,7.7c0.6,0.7,1.2,1.3,1.8,2C117.5,17.4,119.4,14.5,121.6,13.1z M56.4,149.1
			c-21-6-30.7-26.2-30.1-44.6C27.1,79.3,47.2,65.3,63.8,63c7.4-1,18-0.3,24.9,5.2c3.5-3.3,8.9-7.4,14-7.7
			c4.7-9.4,9.5-18.8,14.2-28.2c1.8-2.7,5.2-3.2,7.1-5.4c0.2-0.1,0.5-0.3,0.7-0.4c-3.6-3.1-7.1-6.1-10.7-9.2
			c-4.3-2.7-13.4-5.4-17.5-4.1c-2.7,0.8-4.9,4.5-6.9,6.5C84.2,24.8,78.9,30,73.7,35.1c-1.5,1.6-3,3.2-4.5,4.8
			c-1.9,0.1-3.7,0.1-5.6,0.2c-4,0.8-8,1.6-11.9,2.4C37.8,46.6,26,55.2,16.8,67.7C6.3,81.9,3.4,102.1,5.5,117.5
			C8,136.1,18,152.4,34.1,163.2c4.1,2.8,8.9,4.5,13.9,6.9c6.7,3.2,13.9,2.8,19.6,3.5c0-0.1,0-0.1,0.1-0.2
			C62.1,169.6,54.3,157.3,56.4,149.1z M97.5,34.8c3.1,2.1,6.2,4.1,9.4,6.2c-2,3.2-4,6.4-6,9.6c-2.9-2-5.9-4-8.8-6
			c-0.1,0-0.2-0.1-0.4-0.1C93.6,41.2,95.6,38,97.5,34.8z M194.3,129.2c-1-10.9-4.1-20.4-8.9-29.1c-1.5-2.8-5.6-6.6-6.5-9.2
			c-0.3-13.1-0.6-26.2-0.9-39.3c-3.2-8.7-21-12.4-33.5-16c-6,0.8-12.6-1.7-17.1,1.7c-2.2,1.7-3.1,5.6-4.7,8.3
			c-3.3,6.2-6.6,12.5-10,18.7c-1.1,2.2-2.1,4.4-3.2,6.6c-1.3,0.4-2.6,0.9-3.9,1.3c-3,1.6-6,3.1-9,4.7C87.9,83,80.4,89.5,73.9,99.9
			C53.4,132.9,70,169.5,90,185.8c5.3,4.3,16,11.7,25.9,12.8c7.4,0.8,14,1.8,20.5,1.1C163.9,196.5,198.2,170.5,194.3,129.2z M133,56
			c3.1,0.8,6.3,1.7,9.4,2.5c-0.9,3.2-1.8,6.5-2.7,9.7c-3.1-0.9-6.2-1.8-9.3-2.7C131.2,62.4,132.1,59.2,133,56z M164.6,163.4
			c-10.8,13.5-25.3,17.9-44.9,15.7c-7.9-0.9-14.5-6.2-18.7-9.7c-14.8-12.3-25.1-40.7-7.9-63.2c8.3-10.9,19.7-17.3,33.3-18.6
			c3.3,0.1,6.7,0.2,10,0.3c1.4,0.3,2.9,0.6,4.3,0.9C171.5,97.5,187.1,135.3,164.6,163.4z M129.3,99.9c-5.6,0.8-12.9-0.5-16.3,3.9
			c-1.2,1.6-1.1,10.2-1.4,12.9c-1.1,9.2-5.9,18.5-10.4,23.3c-0.8,5.7,6.2,15.6,13.1,16.8c7.3-6.8,17-23.8,18.7-38.2
			C133.9,111.1,137.6,102.2,129.3,99.9z"/>
	</g>
</g>
</svg>
