<?xml version="1.0" encoding="utf-8"?>
<!-- Generator: Adobe Illustrator 18.0.0, SVG Export Plug-In . SVG Version: 6.00 Build 0)  -->
<!DOCTYPE svg PUBLIC "-//W3C//DTD SVG 1.1//EN" "http://www.w3.org/Graphics/SVG/1.1/DTD/svg11.dtd">
<svg version="1.1" id="图层_1" xmlns="http://www.w3.org/2000/svg" xmlns:xlink="http://www.w3.org/1999/xlink" x="0px" y="0px"
	 viewBox="0 0 200 200" enable-background="new 0 0 200 200" xml:space="preserve">
<g>
	<g>
		<path fill="#57D17E" d="M193.6,169.4c0,0-44.3-44.7-44.7-45c7.9-12.5,12.5-27.4,12.5-43.3c0-44.5-35.7-80.6-79.7-80.6
			c-44,0-79.7,36.1-79.7,80.6c0,44.5,35.7,80.6,79.7,80.6c15.8,0,30.5-4.6,42.8-12.6c0.3,0.4,44.6,45.2,44.6,45.2
			c3.4,3.4,7.8,5.1,12.3,5.1c4.4,0,8.9-1.7,12.3-5.1C200.3,187.4,200.3,176.3,193.6,169.4z M81.6,150.1c-37.7,0-68.3-30.9-68.3-69
			c0-38.1,30.6-69,68.3-69c37.7,0,68.3,30.9,68.3,69C149.9,119.2,119.3,150.1,81.6,150.1z M85.3,80.1V33.9H47.7v99h37.2h0.4h33.8
			V80.4L102,67.6L85.3,80.1z M63.2,125.7h-8.5v-8.6h8.5V125.7z M63.2,110.5h-8.5v-8.6h8.5V110.5z M63.2,95.3h-8.5v-8.6h8.5V95.3z
			 M63.2,80.1h-8.5v-8.6h8.5V80.1z M63.2,64.9h-8.5v-8.6h8.5V64.9z M63.2,49.6h-8.5v-8.6h8.5V49.6z M78.2,125.7h-8.5v-8.6h8.5V125.7
			z M78.2,110.5h-8.5v-8.6h8.5V110.5z M78.2,95.3h-8.5v-8.6h8.5V95.3z M78.2,80.1h-8.5v-8.6h8.5V80.1z M78.2,64.9h-8.5v-8.6h8.5
			V64.9z M78.2,49.6h-8.5v-8.6h8.5V49.6z M98.8,125.7h-8.5v-8.6h8.5V125.7z M98.8,110.5h-8.5v-8.6h8.5V110.5z M98.8,95.3h-8.5v-8.6
			h8.5V95.3z M105.3,86.7h8.5v8.6h-8.5V86.7z M105.3,101.9h8.5v8.6h-8.5V101.9z M105.3,117.2h8.5v8.6h-8.5V117.2z"/>
	</g>
</g>
</svg>
