<?xml version="1.0" encoding="utf-8"?>
<!-- Generator: Adobe Illustrator 18.0.0, SVG Export Plug-In . SVG Version: 6.00 Build 0)  -->
<!DOCTYPE svg PUBLIC "-//W3C//DTD SVG 1.1//EN" "http://www.w3.org/Graphics/SVG/1.1/DTD/svg11.dtd">
<svg version="1.1" id="图层_1" xmlns="http://www.w3.org/2000/svg" xmlns:xlink="http://www.w3.org/1999/xlink" x="0px" y="0px"
	 viewBox="0 0 200 200" enable-background="new 0 0 200 200" xml:space="preserve">
<g>
	<g>
		<path fill-rule="evenodd" clip-rule="evenodd" fill="#20CCAB" d="M180.1,1.4H21.8c-2.7,0-4.9,2.2-4.9,4.9v187.9
			c0,2.7,2.2,4.9,4.9,4.9h158.2c2.7,0,4.9-2.2,4.9-4.9V6.4C185,3.7,182.8,1.4,180.1,1.4z M61,183.1H37v-24.3h24V183.1z M61,146.7H37
			v-24.3h24V146.7z M61,110.3H37V86h24V110.3z M96.8,183.1h-24v-24.3h24V183.1z M96.8,146.7h-24v-24.3h24V146.7z M96.8,110.3h-24V86
			h24V110.3z M132.8,183.1h-23.9v-24.3h23.9V183.1z M132.8,146.7h-23.9v-24.3h23.9V146.7z M132.8,110.3h-23.9V86h23.9V110.3z
			 M168.9,183.1h-23.9v-24.3h23.9V183.1z M168.9,146.7h-23.9v-24.3h23.9V146.7z M168.9,110.3h-23.9V86h23.9V110.3z M168.9,74.2
			h-36.1V66h36.1V74.2z M168.9,51.5c0,1.4-1.1,2.5-2.5,2.5H35.4c-1.4,0-2.5-1.1-2.5-2.5V20.1c0-1.4,1.1-2.5,2.5-2.5h131.1
			c1.4,0,2.5,1.1,2.5,2.5V51.5z"/>
	</g>
</g>
</svg>
