<?xml version="1.0" encoding="utf-8"?>
<!-- Generator: Adobe Illustrator 18.0.0, SVG Export Plug-In . SVG Version: 6.00 Build 0)  -->
<!DOCTYPE svg PUBLIC "-//W3C//DTD SVG 1.1//EN" "http://www.w3.org/Graphics/SVG/1.1/DTD/svg11.dtd">
<svg version="1.1" id="图层_1" xmlns="http://www.w3.org/2000/svg" xmlns:xlink="http://www.w3.org/1999/xlink" x="0px" y="0px"
	 viewBox="0 0 200 200" enable-background="new 0 0 200 200" xml:space="preserve">
<path fill-rule="evenodd" clip-rule="evenodd" fill="#5AA1D7" d="M151.9,136.2c-10.6-5.1-26-17.3-49-21.3c5.6-6.5,10.2-16.6,15-28.4
	c2.4-7.1,1.9-13,1.9-21.3c0-6.3,1.3-16-0.4-21.7c-5-18.5-17.8-23.5-32.7-23.5c-15.2,0-27.9,5.1-32.9,23.5
	c-1.5,5.7-0.4,15.6-0.4,21.7c0,8.3-0.4,14.2,2.4,21.3c4.6,11.8,8.9,22.1,14.7,28.4c-22.7,4.3-38.3,16.4-48.5,21.3
	c-21.7,9.7-21.7,20.5-21.7,20.5v4.1c0,7.1,8,14.2,15.8,14.2h141.4c10,0,16-7.7,16-14.8v-3.4C173.6,156.7,173.4,145.9,151.9,136.2z
	 M183.5,112.2c-8.7-5.6-12.6-12.7-29.8-15.6c4.2-4.8,7.6-12.2,11.2-20.8c1.8-5.2,1.5-9.5,1.5-15.6c0-4.6,1-11.8-0.3-15.9
	c-3.7-13.5-13.3-17.3-24.5-17.3c-5.5,0-10.6,0.9-14.8,3.3c1.7,2.8,3.1,6,4.1,9.9c1.7,5.7,0.4,15.4,0.4,21.7c0,8.3,0.4,14.2-1.9,21.3
	l-3.6,8.6c1.1,1.8,2.3,3.4,3.6,4.8c-2.3,0.4-4.4,0.9-6.5,1.5c-2.6,5.3-5.4,9.9-8.4,13.4c23,4.1,38.3,16.2,48.9,21.3
	c5.7,2.6,9.9,5.2,13,7.8h11.4c7.5,0,12-5.7,12-10.9v-2.5C199.7,127.2,192,118.6,183.5,112.2z"/>
</svg>
