<?xml version="1.0" encoding="utf-8"?>
<!-- Generator: Adobe Illustrator 18.0.0, SVG Export Plug-In . SVG Version: 6.00 Build 0)  -->
<!DOCTYPE svg PUBLIC "-//W3C//DTD SVG 1.1//EN" "http://www.w3.org/Graphics/SVG/1.1/DTD/svg11.dtd">
<svg version="1.1" id="图层_1" xmlns="http://www.w3.org/2000/svg" xmlns:xlink="http://www.w3.org/1999/xlink" x="0px" y="0px"
	 viewBox="0 0 200 200" enable-background="new 0 0 200 200" xml:space="preserve">
<path fill="#57D17E" d="M112.7,189.1V86.8c4.2-1.8,9.9-5.8,11.7-9.9H75.6c1.8,4.1,7.6,8.1,11.7,9.9v102.2
	c-4.2,1.8-9.9,6.8-11.7,10.9h48.9C122.6,195.9,116.9,190.9,112.7,189.1L112.7,189.1z M47.3,189.1V86.8c4.2-1.8,8.6-5.8,10.4-9.9
	H13.3c1.8,4.1,4.4,8.1,8.6,9.9v102.2c-4.2,1.8-6.8,6.8-8.6,10.9h44.5C56,195.9,51.5,190.9,47.3,189.1L47.3,189.1z M178.1,189.1V86.8
	c4.2-1.8,6.8-5.8,8.6-9.9h-44.5c1.8,4.1,6.3,8.1,10.4,9.9v102.2c-4.2,1.8-8.6,6.8-10.4,10.9h44.5
	C185.1,193.8,182.2,190.9,178.1,189.1L178.1,189.1z M200,68.1c0,0-53.7-45.4-84-62.1C109.2,2.3,103.6,0,100,0
	c-4.3,0-7.1,1.6-15.6,6.6C53.6,24.7,0,68.1,0,68.1H200z"/>
</svg>
