<?xml version="1.0" encoding="utf-8"?>
<!-- Generator: Adobe Illustrator 18.0.0, SVG Export Plug-In . SVG Version: 6.00 Build 0)  -->
<!DOCTYPE svg PUBLIC "-//W3C//DTD SVG 1.1//EN" "http://www.w3.org/Graphics/SVG/1.1/DTD/svg11.dtd">
<svg version="1.1" id="图层_1" xmlns="http://www.w3.org/2000/svg" xmlns:xlink="http://www.w3.org/1999/xlink" x="0px" y="0px"
	 viewBox="0 0 200 200" enable-background="new 0 0 200 200" xml:space="preserve">
<path fill="#5AA1D7" d="M40.5,52.3l12.4-20h0c3.6-5.6,9.8-9.3,16.9-9.3c7.1,0,13.3,3.7,16.9,9.3H113c3.5-5.6,9.8-9.3,16.9-9.3
	c7.1,0,13.3,3.7,16.9,9.3h0l12.4,19.9c-3.9-1.4-8.2-2.1-12.5-2.1c-13.2,0-25.3,6.8-32.2,17.9H85.2C78.2,57,66.1,50.2,53,50.2
	C48.6,50.2,44.4,51,40.5,52.3L40.5,52.3z M199.1,129.4c0,24.7-20,44.7-44.6,44.7c-15.7,0-29.5-8.2-37.4-20.5
	c-3.9,5.2-10.2,8.6-17.2,8.6c-7,0-13.3-3.4-17.2-8.6c-7.9,12.3-21.7,20.5-37.4,20.5c-24.6,0-44.6-20-44.6-44.7
	c0-8.9,2.6-17.1,7.1-24.1l-0.1,0l23.9-38.4c5.7-5.7,13.3-9,21.5-9c11.1,0,21.3,6.1,26.7,15.9l1.1,2h38.2l1.1-2
	c5.3-9.8,15.5-15.9,26.7-15.9c8.1,0,15.7,3.2,21.4,8.8l24,38.6l-0.1,0C196.4,112.2,199.1,120.5,199.1,129.4L199.1,129.4z
	 M72.9,129.4c0-15.3-12.4-27.8-27.8-27.8c-15.4,0-27.8,12.5-27.8,27.8c0,15.4,12.4,27.8,27.8,27.8C60.5,157.2,72.9,144.7,72.9,129.4
	L72.9,129.4z M110,140.6c0-5.6-4.5-10.2-10.2-10.2c-5.6,0-10.2,4.6-10.2,10.2c0,5.6,4.6,10.2,10.2,10.2
	C105.4,150.8,110,146.2,110,140.6L110,140.6z M182.2,129.4c0-15.3-12.4-27.8-27.8-27.8c-15.4,0-27.8,12.5-27.8,27.8
	c0,15.4,12.4,27.8,27.8,27.8C169.8,157.2,182.2,144.7,182.2,129.4L182.2,129.4z"/>
</svg>
