<?xml version="1.0" encoding="utf-8"?>
<!-- Generator: Adobe Illustrator 18.0.0, SVG Export Plug-In . SVG Version: 6.00 Build 0)  -->
<!DOCTYPE svg PUBLIC "-//W3C//DTD SVG 1.1//EN" "http://www.w3.org/Graphics/SVG/1.1/DTD/svg11.dtd">
<svg version="1.1" id="图层_1" xmlns="http://www.w3.org/2000/svg" xmlns:xlink="http://www.w3.org/1999/xlink" x="0px" y="0px"
	 viewBox="0 0 510 510" enable-background="new 0 0 510 510" xml:space="preserve">
<rect x="0" y="0" fill="#D8D8D8" width="510" height="510"/>
<g>
	<path fill="#FFE7D9" d="M201.6,321.9l0.8,46.9L66.6,441.3c0,0,74.1,41.2,173.7,37.9c99.6-3.3,162.5-58.5,162.5-58.5L306.2,368
		l1.6-46.1H201.6z"/>
	<path fill="#F7DDD0" d="M201.9,337.8v10.9c0,0,44.5,60.4,105,0v-34.6h-105V337.8z"/>
	<path fill="#FFE7D9" d="M129.3,200.1c0,0-23.6-119.9,36.2-154.8C270.1-15.6,333.5,42,333.5,42s82.3-5.8,49.4,158.1
		c0,0,9.1-17.3,16.5,0c11.4,26.7-31.8,48.3-31.8,48.3s4.4,35.1-37.3,68.1s-50.5,45-79,45c-30.7,0-63.7-35.1-72.4-43.9
		c-8.8-8.8-38.4-31.8-43.9-69.2c0,0-36.7-25.9-27.4-54C113.7,175.4,129.3,200.1,129.3,200.1z"/>
	<path fill="#9E6D5D" d="M339.9,44.5c0,0-59.3-74.9-186.9,4.9c-54.2,33.9-17.3,180.3-17.3,180.3s4.1-50.2,20.6-64.2
		c0,0,70,8.2,164.6-49.4c0,0,9.1,32.1,45.3,57.6l14,45.3c0,0,26.3-88.1,10.7-135.8C375.4,35.5,339.9,44.5,339.9,44.5z"/>
	<path fill="#C9EED2" d="M202.5,368.8c0,0-138,56.7-151.2,85.2s-12.1,56-12.1,56h431.4c0,0,3.3-49.4-13.2-62.6
		C440.9,434.3,306.2,368,306.2,368l-51.8,52L202.5,368.8z"/>
	<polygon fill="#ECF3EE" points="202.5,368.8 161.8,386.6 202.5,455.1 254.4,420 306.9,455.1 340,384.8 306.2,368 254.4,418.1 	"/>
	<path fill="#F7DDD0" d="M215.1,289.5c0,0,35.8,19.6,76.8,0C291.9,289.5,250.9,349.7,215.1,289.5z"/>
	<g>
		<path fill="#FFCBB3" d="M158.3,194.6v16.5c0,0,9.3,26.3,24.1,27.4c14.8,1.1,45,0,45,0s12.6-2.7,21.4-26.3c0,0,5.5-4.9,10.4,0
			c0,0,7.7,25.1,20.3,26.8c12.6,1.7,46.7,0,46.7,0s12.6-2.1,22.5-27.4v-17h-7.1c0,0-27.4-13.7-74.1,3.8h-25.8
			C241.7,198.5,219.2,180.9,158.3,194.6z"/>
		<path fill="#FFF2E9" d="M169.3,202.3c0,0,30.7-15.9,68.6,2.7c0,0,7.1,12.1-8.8,26.9h-40.1C189.1,231.9,166,231.9,169.3,202.3z"/>
		<path fill="#FFF2E9" d="M339.2,202.3c0,0-30.7-15.9-68.6,2.7c0,0-7.1,12.1,8.8,26.9h40.1C319.5,231.9,342.5,231.9,339.2,202.3z"/>
	</g>
</g>
</svg>
