<?xml version="1.0" encoding="utf-8"?>
<!-- Generator: Adobe Illustrator 18.0.0, SVG Export Plug-In . SVG Version: 6.00 Build 0)  -->
<!DOCTYPE svg PUBLIC "-//W3C//DTD SVG 1.1//EN" "http://www.w3.org/Graphics/SVG/1.1/DTD/svg11.dtd">
<svg version="1.1" id="图层_1" xmlns="http://www.w3.org/2000/svg" xmlns:xlink="http://www.w3.org/1999/xlink" x="0px" y="0px"
	 viewBox="0 0 200 200" enable-background="new 0 0 200 200" xml:space="preserve">
<g>
	<g>
		<path fill="#CEF2D8" d="M69,96.7l-4.3,2.6c-0.4-0.4-1-1.1-1.4-1.5l-0.6-0.7c-1.5-2.3-2.8-12.6-1.9-15l0.5-0.4l8.1,1.5l-2.8-7.7
			c0,0-1.2-3.4-2.4-7.6c-2.2-8.1-1.7-16-0.6-20.1c1.3-4.2,7.3-8.1,9.3-9.2l1.8-0.9l2.9-10.1c5.8,2.2,11.7,2.9,14.8,2.9
			c2.5,0,4.4-0.3,5.8-1.9l0.1-0.1c2.6,0.8,6.3,1.7,10.8,1.7c1.6,0,3.3,0.1,4.9-0.1c3.1,1.1,5.6,4.7,6.4,6.1l1.5,2.9h2.9
			c2.2,0,5.1,0.2,6.5,1c0.9,0.6,1.8,0.7,2.4,1.4l-2.3,4.1l1.8,2.5c0.8,1.1,2.5,4.2,2.6,6.3c0,0.8,0.1,1.7,0.2,2.6
			c0.2,2.6,0.5,6,0.3,11.4c-0.1,2.3-0.3,4.5-0.6,6.5l-1.3,8.6l6.5-3c0.7,1,1.8,3.1,1.5,6.2c-0.6,6.2-2.7,11.1-3.9,12.6
			c-0.5,0-0.7-0.1-0.6-0.1l-5.1-2.8l-1.6,5.7c-0.1,0.3-9.1,31.2-31.6,31.2c-14.3,0-23.4-16.9-28.5-31.1L69,96.7z"/>
		<path fill="#CEF2D8" d="M21.3,176l2-5.3c0.6-1.3,1.7-2,3.1-2.3l49-11.2c6.7-1.5,11.3-7.3,11.2-14.1c0-0.9,0-1.8,0-2.8
			c4.6,2.6,9.1,3.5,13,3.5c4.9,0,9.2-1,13.1-2.6c0,0.4-0.1,0.9-0.1,1.4c-0.2,6.9,4.4,13,11.2,14.6l48.9,11.5c1.4,0.3,2.5,0.7,3,1.9
			l2.5,5.5H21.3z"/>
	</g>
	<path fill="#40D16D" d="M184.3,167.3c-1.8-3.9-5.3-6.9-9.5-7.8l-49-11.5c-2.3-0.5-4-2.6-3.9-5c0.1-2.5,0.3-5.2,0.5-7.8
		c9-7.7,14.1-18.5,16.4-24.2c0,0,0,0,0,0c8.6,0.5,12.2-14.8,12.9-22.2c0.5-5.2-1-11.4-4.1-14.8c-0.7-0.7-1.4-1.4-2.2-1.9
		c0.1-1.1,0.2-2.2,0.2-3.3c0.2-6-0.1-9.6-0.3-12.5c-0.1-0.8-0.1-1.6-0.2-2.3c-0.2-3.2-1.6-6.4-2.7-8.6l2.6-4.6l-1.8-2.5
		c-0.3-0.4-2.8-3.8-6.9-6.4c-2.8-1.8-6.3-2.5-9.1-2.7c-2-3-6.1-7.7-12.1-8.9l-0.8-0.2l-0.8,0.1c-1.5,0.2-3,0.4-4.5,0.4
		c-6.2,0-10.4-2-10.4-2.1l-3.8-2l-3,4.4c-3.2-0.1-9.8-1-14.9-4.1l-5.3-3.2l-5,17.7c-3.3,2.1-10,6.9-12.1,13.9
		c-1.5,5.7-2.2,15.3,0.6,25.3c0.3,1.2,0.7,2.3,1,3.3c-1.8,1.1-3.2,2.8-4.1,4.9c-2.2,5.5-0.2,20.5,3.4,24.6l0.6,0.9
		c1.7,2,3.9,4.9,7.4,5.4c4.1,10.2,8.6,17.6,13.2,22.8c0.2,4.2,0.4,8,0.4,11c0,2.3-1.6,4.3-3.9,4.9l-49,11.3c-4.3,1-7.9,3.9-9.8,8.3
		l-5.3,15.6c-0.5,1.5,0.6,3.1,2.2,3.1h177.3c1.7,0,2.8-1.7,2.2-3.2L184.3,167.3z M69,96.7l-4.3,2.6c-0.4-0.4-1-1.1-1.4-1.5l-0.6-0.7
		c-1.5-2.3-2.8-12.6-1.9-15l0.5-0.4l8.1,1.5l-2.8-7.7c0,0-1.2-3.4-2.4-7.6c-2.2-8.1-1.7-16-0.6-20.1c1.3-4.2,7.3-8.1,9.3-9.2
		l1.8-0.9l2.9-10.1c5.8,2.2,11.7,2.9,14.8,2.9c2.5,0,4.4-0.3,5.8-1.9l0.1-0.1c2.6,0.8,6.3,1.7,10.8,1.7c1.6,0,3.3,0.1,4.9-0.1
		c3.1,1.1,5.6,4.7,6.4,6.1l1.5,2.9h2.9c2.2,0,5.1,0.2,6.5,1c0.9,0.6,1.8,0.7,2.4,1.4l-2.3,4.1l1.8,2.5c0.8,1.1,2.5,4.2,2.6,6.3
		c0,0.8,0.1,1.7,0.2,2.6c0.2,2.6,0.5,6,0.3,11.4c-0.1,2.3-0.3,4.5-0.6,6.5l-1.3,8.6l6.5-3c0.7,1,1.8,3.1,1.5,6.2
		c-0.6,6.2-2.7,11.1-3.9,12.6c-0.5,0-0.7-0.1-0.6-0.1l-5.1-2.8l-1.6,5.7c-0.1,0.3-9.1,31.2-31.6,31.2c-14.3,0-23.4-16.9-28.5-31.1
		L69,96.7z M21.3,176l2-5.3c0.6-1.3,1.7-2,3.1-2.3l49-11.2c6.7-1.5,11.3-7.3,11.2-14.1c0-0.9,0-1.8,0-2.8c4.6,2.6,9.1,3.5,13,3.5
		c4.9,0,9.2-1,13.1-2.6c0,0.4-0.1,0.9-0.1,1.4c-0.2,6.9,4.4,13,11.2,14.6l48.9,11.5c1.4,0.3,2.5,0.7,3,1.9l2.5,5.5H21.3z"/>
</g>
</svg>
