<?xml version="1.0" encoding="utf-8"?>
<!-- Generator: Adobe Illustrator 18.0.0, SVG Export Plug-In . SVG Version: 6.00 Build 0)  -->
<!DOCTYPE svg PUBLIC "-//W3C//DTD SVG 1.1//EN" "http://www.w3.org/Graphics/SVG/1.1/DTD/svg11.dtd">
<svg version="1.1" id="图层_1" xmlns="http://www.w3.org/2000/svg" xmlns:xlink="http://www.w3.org/1999/xlink" x="0px" y="0px"
	 viewBox="0 0 200 200" enable-background="new 0 0 200 200" xml:space="preserve">
<g>
	<g>
		<g>
			<path fill="#fff" d="M135.7,23.3c-31.1-31.1-81.4-31.1-112.5,0c-31.1,31.1-31.1,81.4,0,112.5c31.1,31.1,81.4,31.1,112.5,0
				C166.8,104.7,166.8,54.3,135.7,23.3z M126.4,126.4c-25.9,25.9-67.9,25.9-93.7,0c-25.9-25.9-25.9-67.9,0-93.7
				c25.9-25.9,67.9-25.9,93.7,0C152.3,58.5,152.3,100.5,126.4,126.4z"/>
		</g>
	</g>
	
		<rect x="117.4" y="147" transform="matrix(0.7071 0.7071 -0.7071 0.7071 153.727 -63.6764)" fill="#fff" width="72.7" height="13.4"/>
	<path fill="#fff" d="M180.9,199l-42.4-42.4c-1.3-1.3-1.3-3.4,0-4.7l13.3-13.3c1.3-1.3,3.4-1.3,4.7,0l42.4,42.4
		c1.3,1.3,1.3,3.4,0,4.7L185.7,199C184.4,200.3,182.3,200.3,180.9,199z"/>
</g>
</svg>
