<?xml version="1.0" encoding="utf-8"?>
<!-- Generator: Adobe Illustrator 18.0.0, SVG Export Plug-In . SVG Version: 6.00 Build 0)  -->
<!DOCTYPE svg PUBLIC "-//W3C//DTD SVG 1.1//EN" "http://www.w3.org/Graphics/SVG/1.1/DTD/svg11.dtd">
<svg version="1.1" id="图层_1" xmlns="http://www.w3.org/2000/svg" xmlns:xlink="http://www.w3.org/1999/xlink" x="0px" y="0px"
	 viewBox="0 0 200 200" enable-background="new 0 0 200 200" xml:space="preserve">
<g>
	<path fill="#B3B3B3" d="M195,52.4l-52.2-33c-1.9-1.2-4-1.8-6.2-1.8c-4,0-7.7,1.7-9.8,5.1L83.4,91h-9.8L54.8,63.3
		c3.9-4.9,5.8-9.6,6.2-11.2c1-3.9,0.3-8-1.8-11.5l-7.6-12.3c-3.7-6-10.5-9.4-18.8-9.4c-2.4,0-4.9,0.3-7.4,0.9
		c-1.3,0.3-2.3,1.2-2.8,2.4c-0.5,1.2-0.4,2.6,0.3,3.7l0.9,1.6c0.1,0.1,0.1,0.2,0.2,0.4l6.6,11c0.1,0.1,0.1,0.3,0.2,0.4
		c0.7,1.2,0.9,2.6,0.6,4c-0.7,2.8-3.6,4.6-6.4,3.8c-1.4-0.3-2.5-1.2-3.3-2.4c-0.1-0.1-0.2-0.3-0.3-0.4l-6.6-11
		c-0.1-0.1-0.1-0.2-0.2-0.3l-1-1.7c-0.7-1.1-1.8-1.9-3.1-2c-1.3-0.1-2.6,0.4-3.4,1.3c-3.2,3.6-5.5,7.6-6.5,11.7
		c-1.3,5.3-0.7,10.4,2,14.7l7.6,12.4c5,7.7,12.5,10.3,21.8,7.9L39.3,91H21c-4,0-8,2.3-8,6.3v17.3c0,4,2.9,8.4,9.8,8.4H23v45.7
		c0,7.8,5.1,13.3,12.9,13.3h126.1c7.8,0,10.9-5.5,10.9-13.3V123h5.9c4,0,3.1-4.4,3.1-8.4V97.3c0-2.1,0.8-3.5-0.2-4.4l16.1-24.4
		C201.4,63,200.4,55.8,195,52.4z M37.7,70.7c-0.7-1.4-2.1-2-3.6-2c-0.5,0-0.9,0.2-1.4,0.3c-7.3,2.6-12,1.6-15.5-3.8L9.6,52.9
		c-1.8-3-1.6-6.2-1-8.4c0.3-1.2,0.7-2.3,1.3-3.5l4.8,8c0.1,0.2,0.2,0.3,0.3,0.5c1.9,2.8,4.7,4.8,8,5.7c7.1,1.8,14.6-2.7,16.4-9.8
		c0.8-3.3,0.4-6.7-1.2-9.7c-0.1-0.2-0.2-0.4-0.3-0.5l-4.7-7.9c5.2,0.1,9.4,2.1,11.5,5.5L52.3,45c0.9,1.5,1.2,3.5,0.8,5.2
		c0,0-1.7,5.3-6.4,10.2c-1.3,1.4-1.5,3.2-0.4,4.8L63.7,91H48.6L37.7,70.7z M164,167.7c0,2.8-1.1,5.3-4.9,5.3H36.6
		c-1.8,0-4.6-1.6-4.6-4.3V123h132V167.7z M173,114H23v-14h150V114z M190.9,63.3L173.1,91h-11.8l0.6-0.7c0.5-0.8,0.3-1.7-0.5-2.1
		l-6.4-4c-0.8-0.5-1.8-0.5-2.3,0.3l-4.3,6.5h-18.9l-0.4-0.2c-0.7-0.4-1.5,0.2-2,0.2h-8.6l2.2-3.2c0.5-0.8,0.3-1.7-0.5-2.1l-6.4-4
		c-0.8-0.5-1.8-0.2-2.3,0.6l-4.6,7c-0.4,0.7-0.3,1.8,0.3,1.8H94.1l40.3-63.4c0.5-0.7,1.3-1,2.1-1c0.5,0,0.9,0.2,1.3,0.5l52.2,32.9
		C191.3,60.6,191.6,62.1,190.9,63.3z"/>
	<path fill="#B3B3B3" d="M131,69.1l-6.4-4c-0.8-0.5-1.8-0.3-2.3,0.5l-4.6,7.3c-0.5,0.8-0.3,1.8,0.5,2.3l6.4,4
		c0.8,0.5,1.8,0.3,2.3-0.5l4.6-7.3C132,70.6,131.8,69.5,131,69.1z"/>
	<path fill="#B3B3B3" d="M146.3,78.7l-6.4-4c-0.8-0.5-1.8-0.3-2.3,0.5l-4.6,7.3c-0.5,0.8-0.3,1.8,0.5,2.3l6.4,4
		c0.8,0.5,1.8,0.3,2.3-0.5l4.6-7.3C147.3,80.2,147,79.2,146.3,78.7z"/>
	<path fill="#B3B3B3" d="M175.4,64.8l-35.5-22.4c-1.9-1.2-4.3-0.6-5.5,1.2l-5.7,9.1c-1.2,1.9-0.6,4.3,1.2,5.5l35.5,22.4
		c1.9,1.2,4.3,0.6,5.5-1.2l5.7-9.1C177.8,68.4,177.3,66,175.4,64.8z"/>
</g>
</svg>
