<?xml version="1.0" encoding="utf-8"?>
<!-- Generator: Adobe Illustrator 18.0.0, SVG Export Plug-In . SVG Version: 6.00 Build 0)  -->
<!DOCTYPE svg PUBLIC "-//W3C//DTD SVG 1.1//EN" "http://www.w3.org/Graphics/SVG/1.1/DTD/svg11.dtd">
<svg version="1.1" id="图层_1" xmlns="http://www.w3.org/2000/svg" xmlns:xlink="http://www.w3.org/1999/xlink" x="0px" y="0px"
	 viewBox="0 0 200 200" enable-background="new 0 0 200 200" xml:space="preserve">
<g>
	<g>
		<path fill="#40D16D" d="M195,54.4l-52.2-33c-1.9-1.2-4-1.8-6.2-1.8c-4,0-7.7,1.7-9.8,5.1L83.4,93h-9.8L54.8,65.3
			c3.9-4.9,5.8-9.6,6.2-11.2c1-3.9,0.3-8-1.8-11.5l-7.6-12.3c-3.7-6-10.5-9.4-18.8-9.4c-2.4,0-4.9,0.3-7.4,0.9
			c-1.3,0.3-2.3,1.2-2.8,2.4c-0.5,1.2-0.4,2.6,0.3,3.7l0.9,1.6c0.1,0.1,0.1,0.2,0.2,0.4l6.6,11c0.1,0.1,0.1,0.3,0.2,0.4
			c0.7,1.2,0.9,2.6,0.6,4c-0.7,2.8-3.6,4.6-6.4,3.8c-1.4-0.3-2.5-1.2-3.3-2.4c-0.1-0.1-0.2-0.3-0.3-0.4l-6.6-11
			c-0.1-0.1-0.1-0.2-0.2-0.3l-1-1.7c-0.7-1.1-1.8-1.9-3.1-2c-1.3-0.1-2.6,0.4-3.4,1.3c-3.2,3.6-5.5,7.6-6.5,11.7
			c-1.3,5.3-0.7,10.4,2,14.7l7.6,12.4c5,7.7,12.5,10.3,21.8,7.9L39.3,93H20.9c-4,0-7.9,2.3-7.9,6.3v17.3c0,4,2.9,8.4,9.8,8.4H23
			v45.7c0,7.8,3.7,13.3,11.5,13.3h127.6c7.8,0,10.9-5.5,10.9-13.3V125h5.9c4,0,3.1-4.4,3.1-8.4V99.3c0-2.1,0.8-3.5-0.2-4.4
			l16.1-24.4C201.4,65,200.4,57.8,195,54.4z M37.7,72.7c-0.7-1.4-2.1-2-3.6-2c-0.5,0-0.9,0.2-1.4,0.3c-7.3,2.6-12,1.6-15.5-3.8
			L9.6,54.9c-1.8-3-1.6-6.2-1-8.4c0.3-1.2,0.7-2.3,1.3-3.5l4.8,8c0.1,0.2,0.2,0.3,0.3,0.5c1.9,2.8,4.7,4.8,8,5.7
			c7.1,1.8,14.6-2.7,16.4-9.8c0.8-3.3,0.4-6.7-1.2-9.7c-0.1-0.2-0.2-0.4-0.3-0.5l-4.7-7.9c5.2,0.1,9.4,2.1,11.5,5.5L52.3,47
			c0.9,1.5,1.2,3.5,0.8,5.2c0,0-1.7,5.3-6.4,10.2c-1.3,1.4-1.5,3.2-0.4,4.8L63.7,93H48.6L37.7,72.7z M164,169.8
			c0,2.8-2.7,5.2-5.5,5.2H36.7c-2.8,0-4.7-1.6-4.7-4.3V125h132V169.8z M173,116H23v-14h150V116z M190.9,65.3L173.1,93h-11.8l0.6-0.7
			c0.5-0.8,0.3-1.7-0.5-2.1l-6.4-4c-0.8-0.5-1.8-0.5-2.3,0.3l-4.3,6.5h-18.9l-0.4-0.2c-0.7-0.4-1.5,0.2-2,0.2h-8.6l2.2-3.2
			c0.5-0.8,0.3-1.7-0.5-2.1l-6.4-4c-0.8-0.5-1.8-0.2-2.3,0.6l-4.6,7c-0.4,0.7-0.3,1.8,0.3,1.8H94.1l40.3-63.4c0.5-0.7,1.3-1,2.1-1
			c0.5,0,0.9,0.2,1.3,0.5l52.2,32.9C191.3,62.6,191.6,64.1,190.9,65.3z"/>
		<path fill="#40D16D" d="M131,71.1l-6.4-4c-0.8-0.5-1.8-0.3-2.3,0.5l-4.6,7.3c-0.5,0.8-0.3,1.8,0.5,2.3l6.4,4
			c0.8,0.5,1.8,0.3,2.3-0.5l4.6-7.3C132,72.6,131.8,71.5,131,71.1z"/>
		<path fill="#40D16D" d="M146.3,80.7l-6.4-4c-0.8-0.5-1.8-0.3-2.3,0.5l-4.6,7.3c-0.5,0.8-0.3,1.8,0.5,2.3l6.4,4
			c0.8,0.5,1.8,0.3,2.3-0.5l4.6-7.3C147.3,82.2,147,81.2,146.3,80.7z"/>
		<path fill="#40D16D" d="M175.4,66.8l-35.5-22.4c-1.9-1.2-4.3-0.6-5.5,1.2l-5.7,9.1c-1.2,1.9-0.6,4.3,1.2,5.5l35.5,22.4
			c1.9,1.2,4.3,0.6,5.5-1.2l5.7-9.1C177.8,70.4,177.3,68,175.4,66.8z"/>
	</g>
	<path fill="#CEF2D8" d="M190.1,62.1l-52.2-33c-0.4-0.3-0.9-0.4-1.3-0.4c-0.9,0-1.7,0.1-2.1,0.9L94.1,93h13.3
		c-0.6,0-0.7-1.1-0.3-1.8l4.6-7.1c0.5-0.8,1.5-0.9,2.3-0.4l6.4,4.1c0.8,0.5,1,1.2,0.5,2l-2.2,3.3h8.6c0.5,0,1.4-0.6,2-0.2l0.4,0.2
		h18.9l4.3-6.5c0.5-0.8,1.5-0.9,2.3-0.4l6.4,4.1c0.8,0.5,1,1.3,0.5,2l-0.6,0.7h11.8l17.7-27.7C191.6,64.1,191.3,62.8,190.1,62.1z
		 M131.6,73.4l-4.6,7.3c-0.5,0.8-1.5,1-2.3,0.5l-6.4-4c-0.8-0.5-1-1.5-0.5-2.3l4.6-7.3c0.5-0.8,1.5-1,2.3-0.5l6.4,4
		C131.8,71.5,132,72.6,131.6,73.4z M146.8,83l-4.6,7.3c-0.5,0.8-1.5,1-2.3,0.5l-6.4-4c-0.8-0.5-1-1.5-0.5-2.3l4.6-7.3
		c0.5-0.8,1.5-1,2.3-0.5l6.4,4C147,81.2,147.3,82.2,146.8,83z M176.7,72.3l-5.7,9.1c-1.2,1.9-3.6,2.4-5.5,1.2l-35.5-22.4
		c-1.9-1.2-2.4-3.6-1.2-5.5l5.7-9.1c1.2-1.9,3.6-2.4,5.5-1.2l35.5,22.4C177.3,68,177.8,70.4,176.7,72.3z M37.7,72.7
		c-0.7-1.4-2.1-2-3.6-2c-0.5,0-0.9,0.2-1.4,0.3c-7.3,2.6-12,1.6-15.5-3.8L9.6,54.9c-1.8-3-1.6-6.2-1-8.4c0.3-1.2,0.7-2.3,1.3-3.5
		l4.8,8c0.1,0.2,0.2,0.3,0.3,0.5c1.9,2.8,4.7,4.8,8,5.7c7.1,1.8,14.6-2.7,16.4-9.8c0.8-3.3,0.4-6.7-1.2-9.7
		c-0.1-0.2-0.2-0.4-0.3-0.5l-4.7-7.9c5.2,0.1,9.4,2.1,11.5,5.5L52.3,47c0.9,1.5,1.2,3.5,0.8,5.2c0,0-1.7,5.3-6.4,10.2
		c-1.3,1.4-1.5,3.2-0.4,4.8L63.7,93H48.6L37.7,72.7z M164,169.8c0,2.8-2.7,5.2-5.5,5.2H36.7c-2.8,0-4.7-1.6-4.7-4.3V125h132V169.8z
		 M173,116H23v-14h150V116z"/>
</g>
</svg>
